G04 #@! TF.GenerationSoftware,KiCad,Pcbnew,(5.1.4)-1*
G04 #@! TF.CreationDate,2023-01-28T21:19:40+01:00*
G04 #@! TF.ProjectId,SEN-UP1-8xTH,53454e2d-5550-4312-9d38-7854482e6b69,V00.02*
G04 #@! TF.SameCoordinates,Original*
G04 #@! TF.FileFunction,Paste,Bot*
G04 #@! TF.FilePolarity,Positive*
%FSLAX46Y46*%
G04 Gerber Fmt 4.6, Leading zero omitted, Abs format (unit mm)*
G04 Created by KiCad (PCBNEW (5.1.4)-1) date 2023-01-28 21:19:40*
%MOMM*%
%LPD*%
G04 APERTURE LIST*
%ADD10R,1.060000X0.650000*%
%ADD11R,0.650000X1.060000*%
G04 APERTURE END LIST*
D10*
X124100000Y-126900000D03*
X124100000Y-127850000D03*
X124100000Y-125950000D03*
X121900000Y-125950000D03*
X121900000Y-126900000D03*
X121900000Y-127850000D03*
X124100000Y-130900000D03*
X124100000Y-131850000D03*
X124100000Y-129950000D03*
X121900000Y-129950000D03*
X121900000Y-130900000D03*
X121900000Y-131850000D03*
D11*
X119200000Y-135100000D03*
X118250000Y-135100000D03*
X120150000Y-135100000D03*
X120150000Y-132900000D03*
X119200000Y-132900000D03*
X118250000Y-132900000D03*
X114700000Y-135100000D03*
X113750000Y-135100000D03*
X115650000Y-135100000D03*
X115650000Y-132900000D03*
X114700000Y-132900000D03*
X113750000Y-132900000D03*
X104000000Y-135100000D03*
X103050000Y-135100000D03*
X104950000Y-135100000D03*
X104950000Y-132900000D03*
X104000000Y-132900000D03*
X103050000Y-132900000D03*
X99750000Y-135100000D03*
X98800000Y-135100000D03*
X100700000Y-135100000D03*
X100700000Y-132900000D03*
X99750000Y-132900000D03*
X98800000Y-132900000D03*
D10*
X94900000Y-131000000D03*
X94900000Y-130050000D03*
X94900000Y-131950000D03*
X97100000Y-131950000D03*
X97100000Y-131000000D03*
X97100000Y-130050000D03*
X94900000Y-127000000D03*
X94900000Y-126050000D03*
X94900000Y-127950000D03*
X97100000Y-127950000D03*
X97100000Y-127000000D03*
X97100000Y-126050000D03*
M02*
