G04 #@! TF.GenerationSoftware,KiCad,Pcbnew,(5.1.4)-1*
G04 #@! TF.CreationDate,2023-01-28T21:19:39+01:00*
G04 #@! TF.ProjectId,SEN-UP1-8xTH,53454e2d-5550-4312-9d38-7854482e6b69,V00.02*
G04 #@! TF.SameCoordinates,Original*
G04 #@! TF.FileFunction,Paste,Top*
G04 #@! TF.FilePolarity,Positive*
%FSLAX46Y46*%
G04 Gerber Fmt 4.6, Leading zero omitted, Abs format (unit mm)*
G04 Created by KiCad (PCBNEW (5.1.4)-1) date 2023-01-28 21:19:40*
%MOMM*%
%LPD*%
G04 APERTURE LIST*
%ADD10C,0.100000*%
%ADD11C,1.150000*%
%ADD12R,0.800000X3.000000*%
G04 APERTURE END LIST*
D10*
G36*
X99614505Y-125061204D02*
G01*
X99638773Y-125064804D01*
X99662572Y-125070765D01*
X99685671Y-125079030D01*
X99707850Y-125089520D01*
X99728893Y-125102132D01*
X99748599Y-125116747D01*
X99766777Y-125133223D01*
X99783253Y-125151401D01*
X99797868Y-125171107D01*
X99810480Y-125192150D01*
X99820970Y-125214329D01*
X99829235Y-125237428D01*
X99835196Y-125261227D01*
X99838796Y-125285495D01*
X99840000Y-125309999D01*
X99840000Y-126210001D01*
X99838796Y-126234505D01*
X99835196Y-126258773D01*
X99829235Y-126282572D01*
X99820970Y-126305671D01*
X99810480Y-126327850D01*
X99797868Y-126348893D01*
X99783253Y-126368599D01*
X99766777Y-126386777D01*
X99748599Y-126403253D01*
X99728893Y-126417868D01*
X99707850Y-126430480D01*
X99685671Y-126440970D01*
X99662572Y-126449235D01*
X99638773Y-126455196D01*
X99614505Y-126458796D01*
X99590001Y-126460000D01*
X98939999Y-126460000D01*
X98915495Y-126458796D01*
X98891227Y-126455196D01*
X98867428Y-126449235D01*
X98844329Y-126440970D01*
X98822150Y-126430480D01*
X98801107Y-126417868D01*
X98781401Y-126403253D01*
X98763223Y-126386777D01*
X98746747Y-126368599D01*
X98732132Y-126348893D01*
X98719520Y-126327850D01*
X98709030Y-126305671D01*
X98700765Y-126282572D01*
X98694804Y-126258773D01*
X98691204Y-126234505D01*
X98690000Y-126210001D01*
X98690000Y-125309999D01*
X98691204Y-125285495D01*
X98694804Y-125261227D01*
X98700765Y-125237428D01*
X98709030Y-125214329D01*
X98719520Y-125192150D01*
X98732132Y-125171107D01*
X98746747Y-125151401D01*
X98763223Y-125133223D01*
X98781401Y-125116747D01*
X98801107Y-125102132D01*
X98822150Y-125089520D01*
X98844329Y-125079030D01*
X98867428Y-125070765D01*
X98891227Y-125064804D01*
X98915495Y-125061204D01*
X98939999Y-125060000D01*
X99590001Y-125060000D01*
X99614505Y-125061204D01*
X99614505Y-125061204D01*
G37*
D11*
X99265000Y-125760000D03*
D10*
G36*
X101664505Y-125061204D02*
G01*
X101688773Y-125064804D01*
X101712572Y-125070765D01*
X101735671Y-125079030D01*
X101757850Y-125089520D01*
X101778893Y-125102132D01*
X101798599Y-125116747D01*
X101816777Y-125133223D01*
X101833253Y-125151401D01*
X101847868Y-125171107D01*
X101860480Y-125192150D01*
X101870970Y-125214329D01*
X101879235Y-125237428D01*
X101885196Y-125261227D01*
X101888796Y-125285495D01*
X101890000Y-125309999D01*
X101890000Y-126210001D01*
X101888796Y-126234505D01*
X101885196Y-126258773D01*
X101879235Y-126282572D01*
X101870970Y-126305671D01*
X101860480Y-126327850D01*
X101847868Y-126348893D01*
X101833253Y-126368599D01*
X101816777Y-126386777D01*
X101798599Y-126403253D01*
X101778893Y-126417868D01*
X101757850Y-126430480D01*
X101735671Y-126440970D01*
X101712572Y-126449235D01*
X101688773Y-126455196D01*
X101664505Y-126458796D01*
X101640001Y-126460000D01*
X100989999Y-126460000D01*
X100965495Y-126458796D01*
X100941227Y-126455196D01*
X100917428Y-126449235D01*
X100894329Y-126440970D01*
X100872150Y-126430480D01*
X100851107Y-126417868D01*
X100831401Y-126403253D01*
X100813223Y-126386777D01*
X100796747Y-126368599D01*
X100782132Y-126348893D01*
X100769520Y-126327850D01*
X100759030Y-126305671D01*
X100750765Y-126282572D01*
X100744804Y-126258773D01*
X100741204Y-126234505D01*
X100740000Y-126210001D01*
X100740000Y-125309999D01*
X100741204Y-125285495D01*
X100744804Y-125261227D01*
X100750765Y-125237428D01*
X100759030Y-125214329D01*
X100769520Y-125192150D01*
X100782132Y-125171107D01*
X100796747Y-125151401D01*
X100813223Y-125133223D01*
X100831401Y-125116747D01*
X100851107Y-125102132D01*
X100872150Y-125089520D01*
X100894329Y-125079030D01*
X100917428Y-125070765D01*
X100941227Y-125064804D01*
X100965495Y-125061204D01*
X100989999Y-125060000D01*
X101640001Y-125060000D01*
X101664505Y-125061204D01*
X101664505Y-125061204D01*
G37*
D11*
X101315000Y-125760000D03*
D10*
G36*
X99614505Y-127261204D02*
G01*
X99638773Y-127264804D01*
X99662572Y-127270765D01*
X99685671Y-127279030D01*
X99707850Y-127289520D01*
X99728893Y-127302132D01*
X99748599Y-127316747D01*
X99766777Y-127333223D01*
X99783253Y-127351401D01*
X99797868Y-127371107D01*
X99810480Y-127392150D01*
X99820970Y-127414329D01*
X99829235Y-127437428D01*
X99835196Y-127461227D01*
X99838796Y-127485495D01*
X99840000Y-127509999D01*
X99840000Y-128410001D01*
X99838796Y-128434505D01*
X99835196Y-128458773D01*
X99829235Y-128482572D01*
X99820970Y-128505671D01*
X99810480Y-128527850D01*
X99797868Y-128548893D01*
X99783253Y-128568599D01*
X99766777Y-128586777D01*
X99748599Y-128603253D01*
X99728893Y-128617868D01*
X99707850Y-128630480D01*
X99685671Y-128640970D01*
X99662572Y-128649235D01*
X99638773Y-128655196D01*
X99614505Y-128658796D01*
X99590001Y-128660000D01*
X98939999Y-128660000D01*
X98915495Y-128658796D01*
X98891227Y-128655196D01*
X98867428Y-128649235D01*
X98844329Y-128640970D01*
X98822150Y-128630480D01*
X98801107Y-128617868D01*
X98781401Y-128603253D01*
X98763223Y-128586777D01*
X98746747Y-128568599D01*
X98732132Y-128548893D01*
X98719520Y-128527850D01*
X98709030Y-128505671D01*
X98700765Y-128482572D01*
X98694804Y-128458773D01*
X98691204Y-128434505D01*
X98690000Y-128410001D01*
X98690000Y-127509999D01*
X98691204Y-127485495D01*
X98694804Y-127461227D01*
X98700765Y-127437428D01*
X98709030Y-127414329D01*
X98719520Y-127392150D01*
X98732132Y-127371107D01*
X98746747Y-127351401D01*
X98763223Y-127333223D01*
X98781401Y-127316747D01*
X98801107Y-127302132D01*
X98822150Y-127289520D01*
X98844329Y-127279030D01*
X98867428Y-127270765D01*
X98891227Y-127264804D01*
X98915495Y-127261204D01*
X98939999Y-127260000D01*
X99590001Y-127260000D01*
X99614505Y-127261204D01*
X99614505Y-127261204D01*
G37*
D11*
X99265000Y-127960000D03*
D10*
G36*
X101664505Y-127261204D02*
G01*
X101688773Y-127264804D01*
X101712572Y-127270765D01*
X101735671Y-127279030D01*
X101757850Y-127289520D01*
X101778893Y-127302132D01*
X101798599Y-127316747D01*
X101816777Y-127333223D01*
X101833253Y-127351401D01*
X101847868Y-127371107D01*
X101860480Y-127392150D01*
X101870970Y-127414329D01*
X101879235Y-127437428D01*
X101885196Y-127461227D01*
X101888796Y-127485495D01*
X101890000Y-127509999D01*
X101890000Y-128410001D01*
X101888796Y-128434505D01*
X101885196Y-128458773D01*
X101879235Y-128482572D01*
X101870970Y-128505671D01*
X101860480Y-128527850D01*
X101847868Y-128548893D01*
X101833253Y-128568599D01*
X101816777Y-128586777D01*
X101798599Y-128603253D01*
X101778893Y-128617868D01*
X101757850Y-128630480D01*
X101735671Y-128640970D01*
X101712572Y-128649235D01*
X101688773Y-128655196D01*
X101664505Y-128658796D01*
X101640001Y-128660000D01*
X100989999Y-128660000D01*
X100965495Y-128658796D01*
X100941227Y-128655196D01*
X100917428Y-128649235D01*
X100894329Y-128640970D01*
X100872150Y-128630480D01*
X100851107Y-128617868D01*
X100831401Y-128603253D01*
X100813223Y-128586777D01*
X100796747Y-128568599D01*
X100782132Y-128548893D01*
X100769520Y-128527850D01*
X100759030Y-128505671D01*
X100750765Y-128482572D01*
X100744804Y-128458773D01*
X100741204Y-128434505D01*
X100740000Y-128410001D01*
X100740000Y-127509999D01*
X100741204Y-127485495D01*
X100744804Y-127461227D01*
X100750765Y-127437428D01*
X100759030Y-127414329D01*
X100769520Y-127392150D01*
X100782132Y-127371107D01*
X100796747Y-127351401D01*
X100813223Y-127333223D01*
X100831401Y-127316747D01*
X100851107Y-127302132D01*
X100872150Y-127289520D01*
X100894329Y-127279030D01*
X100917428Y-127270765D01*
X100941227Y-127264804D01*
X100965495Y-127261204D01*
X100989999Y-127260000D01*
X101640001Y-127260000D01*
X101664505Y-127261204D01*
X101664505Y-127261204D01*
G37*
D11*
X101315000Y-127960000D03*
D10*
G36*
X99614505Y-129461204D02*
G01*
X99638773Y-129464804D01*
X99662572Y-129470765D01*
X99685671Y-129479030D01*
X99707850Y-129489520D01*
X99728893Y-129502132D01*
X99748599Y-129516747D01*
X99766777Y-129533223D01*
X99783253Y-129551401D01*
X99797868Y-129571107D01*
X99810480Y-129592150D01*
X99820970Y-129614329D01*
X99829235Y-129637428D01*
X99835196Y-129661227D01*
X99838796Y-129685495D01*
X99840000Y-129709999D01*
X99840000Y-130610001D01*
X99838796Y-130634505D01*
X99835196Y-130658773D01*
X99829235Y-130682572D01*
X99820970Y-130705671D01*
X99810480Y-130727850D01*
X99797868Y-130748893D01*
X99783253Y-130768599D01*
X99766777Y-130786777D01*
X99748599Y-130803253D01*
X99728893Y-130817868D01*
X99707850Y-130830480D01*
X99685671Y-130840970D01*
X99662572Y-130849235D01*
X99638773Y-130855196D01*
X99614505Y-130858796D01*
X99590001Y-130860000D01*
X98939999Y-130860000D01*
X98915495Y-130858796D01*
X98891227Y-130855196D01*
X98867428Y-130849235D01*
X98844329Y-130840970D01*
X98822150Y-130830480D01*
X98801107Y-130817868D01*
X98781401Y-130803253D01*
X98763223Y-130786777D01*
X98746747Y-130768599D01*
X98732132Y-130748893D01*
X98719520Y-130727850D01*
X98709030Y-130705671D01*
X98700765Y-130682572D01*
X98694804Y-130658773D01*
X98691204Y-130634505D01*
X98690000Y-130610001D01*
X98690000Y-129709999D01*
X98691204Y-129685495D01*
X98694804Y-129661227D01*
X98700765Y-129637428D01*
X98709030Y-129614329D01*
X98719520Y-129592150D01*
X98732132Y-129571107D01*
X98746747Y-129551401D01*
X98763223Y-129533223D01*
X98781401Y-129516747D01*
X98801107Y-129502132D01*
X98822150Y-129489520D01*
X98844329Y-129479030D01*
X98867428Y-129470765D01*
X98891227Y-129464804D01*
X98915495Y-129461204D01*
X98939999Y-129460000D01*
X99590001Y-129460000D01*
X99614505Y-129461204D01*
X99614505Y-129461204D01*
G37*
D11*
X99265000Y-130160000D03*
D10*
G36*
X101664505Y-129461204D02*
G01*
X101688773Y-129464804D01*
X101712572Y-129470765D01*
X101735671Y-129479030D01*
X101757850Y-129489520D01*
X101778893Y-129502132D01*
X101798599Y-129516747D01*
X101816777Y-129533223D01*
X101833253Y-129551401D01*
X101847868Y-129571107D01*
X101860480Y-129592150D01*
X101870970Y-129614329D01*
X101879235Y-129637428D01*
X101885196Y-129661227D01*
X101888796Y-129685495D01*
X101890000Y-129709999D01*
X101890000Y-130610001D01*
X101888796Y-130634505D01*
X101885196Y-130658773D01*
X101879235Y-130682572D01*
X101870970Y-130705671D01*
X101860480Y-130727850D01*
X101847868Y-130748893D01*
X101833253Y-130768599D01*
X101816777Y-130786777D01*
X101798599Y-130803253D01*
X101778893Y-130817868D01*
X101757850Y-130830480D01*
X101735671Y-130840970D01*
X101712572Y-130849235D01*
X101688773Y-130855196D01*
X101664505Y-130858796D01*
X101640001Y-130860000D01*
X100989999Y-130860000D01*
X100965495Y-130858796D01*
X100941227Y-130855196D01*
X100917428Y-130849235D01*
X100894329Y-130840970D01*
X100872150Y-130830480D01*
X100851107Y-130817868D01*
X100831401Y-130803253D01*
X100813223Y-130786777D01*
X100796747Y-130768599D01*
X100782132Y-130748893D01*
X100769520Y-130727850D01*
X100759030Y-130705671D01*
X100750765Y-130682572D01*
X100744804Y-130658773D01*
X100741204Y-130634505D01*
X100740000Y-130610001D01*
X100740000Y-129709999D01*
X100741204Y-129685495D01*
X100744804Y-129661227D01*
X100750765Y-129637428D01*
X100759030Y-129614329D01*
X100769520Y-129592150D01*
X100782132Y-129571107D01*
X100796747Y-129551401D01*
X100813223Y-129533223D01*
X100831401Y-129516747D01*
X100851107Y-129502132D01*
X100872150Y-129489520D01*
X100894329Y-129479030D01*
X100917428Y-129470765D01*
X100941227Y-129464804D01*
X100965495Y-129461204D01*
X100989999Y-129460000D01*
X101640001Y-129460000D01*
X101664505Y-129461204D01*
X101664505Y-129461204D01*
G37*
D11*
X101315000Y-130160000D03*
D10*
G36*
X99614505Y-131661204D02*
G01*
X99638773Y-131664804D01*
X99662572Y-131670765D01*
X99685671Y-131679030D01*
X99707850Y-131689520D01*
X99728893Y-131702132D01*
X99748599Y-131716747D01*
X99766777Y-131733223D01*
X99783253Y-131751401D01*
X99797868Y-131771107D01*
X99810480Y-131792150D01*
X99820970Y-131814329D01*
X99829235Y-131837428D01*
X99835196Y-131861227D01*
X99838796Y-131885495D01*
X99840000Y-131909999D01*
X99840000Y-132810001D01*
X99838796Y-132834505D01*
X99835196Y-132858773D01*
X99829235Y-132882572D01*
X99820970Y-132905671D01*
X99810480Y-132927850D01*
X99797868Y-132948893D01*
X99783253Y-132968599D01*
X99766777Y-132986777D01*
X99748599Y-133003253D01*
X99728893Y-133017868D01*
X99707850Y-133030480D01*
X99685671Y-133040970D01*
X99662572Y-133049235D01*
X99638773Y-133055196D01*
X99614505Y-133058796D01*
X99590001Y-133060000D01*
X98939999Y-133060000D01*
X98915495Y-133058796D01*
X98891227Y-133055196D01*
X98867428Y-133049235D01*
X98844329Y-133040970D01*
X98822150Y-133030480D01*
X98801107Y-133017868D01*
X98781401Y-133003253D01*
X98763223Y-132986777D01*
X98746747Y-132968599D01*
X98732132Y-132948893D01*
X98719520Y-132927850D01*
X98709030Y-132905671D01*
X98700765Y-132882572D01*
X98694804Y-132858773D01*
X98691204Y-132834505D01*
X98690000Y-132810001D01*
X98690000Y-131909999D01*
X98691204Y-131885495D01*
X98694804Y-131861227D01*
X98700765Y-131837428D01*
X98709030Y-131814329D01*
X98719520Y-131792150D01*
X98732132Y-131771107D01*
X98746747Y-131751401D01*
X98763223Y-131733223D01*
X98781401Y-131716747D01*
X98801107Y-131702132D01*
X98822150Y-131689520D01*
X98844329Y-131679030D01*
X98867428Y-131670765D01*
X98891227Y-131664804D01*
X98915495Y-131661204D01*
X98939999Y-131660000D01*
X99590001Y-131660000D01*
X99614505Y-131661204D01*
X99614505Y-131661204D01*
G37*
D11*
X99265000Y-132360000D03*
D10*
G36*
X101664505Y-131661204D02*
G01*
X101688773Y-131664804D01*
X101712572Y-131670765D01*
X101735671Y-131679030D01*
X101757850Y-131689520D01*
X101778893Y-131702132D01*
X101798599Y-131716747D01*
X101816777Y-131733223D01*
X101833253Y-131751401D01*
X101847868Y-131771107D01*
X101860480Y-131792150D01*
X101870970Y-131814329D01*
X101879235Y-131837428D01*
X101885196Y-131861227D01*
X101888796Y-131885495D01*
X101890000Y-131909999D01*
X101890000Y-132810001D01*
X101888796Y-132834505D01*
X101885196Y-132858773D01*
X101879235Y-132882572D01*
X101870970Y-132905671D01*
X101860480Y-132927850D01*
X101847868Y-132948893D01*
X101833253Y-132968599D01*
X101816777Y-132986777D01*
X101798599Y-133003253D01*
X101778893Y-133017868D01*
X101757850Y-133030480D01*
X101735671Y-133040970D01*
X101712572Y-133049235D01*
X101688773Y-133055196D01*
X101664505Y-133058796D01*
X101640001Y-133060000D01*
X100989999Y-133060000D01*
X100965495Y-133058796D01*
X100941227Y-133055196D01*
X100917428Y-133049235D01*
X100894329Y-133040970D01*
X100872150Y-133030480D01*
X100851107Y-133017868D01*
X100831401Y-133003253D01*
X100813223Y-132986777D01*
X100796747Y-132968599D01*
X100782132Y-132948893D01*
X100769520Y-132927850D01*
X100759030Y-132905671D01*
X100750765Y-132882572D01*
X100744804Y-132858773D01*
X100741204Y-132834505D01*
X100740000Y-132810001D01*
X100740000Y-131909999D01*
X100741204Y-131885495D01*
X100744804Y-131861227D01*
X100750765Y-131837428D01*
X100759030Y-131814329D01*
X100769520Y-131792150D01*
X100782132Y-131771107D01*
X100796747Y-131751401D01*
X100813223Y-131733223D01*
X100831401Y-131716747D01*
X100851107Y-131702132D01*
X100872150Y-131689520D01*
X100894329Y-131679030D01*
X100917428Y-131670765D01*
X100941227Y-131664804D01*
X100965495Y-131661204D01*
X100989999Y-131660000D01*
X101640001Y-131660000D01*
X101664505Y-131661204D01*
X101664505Y-131661204D01*
G37*
D11*
X101315000Y-132360000D03*
D10*
G36*
X105664505Y-131661204D02*
G01*
X105688773Y-131664804D01*
X105712572Y-131670765D01*
X105735671Y-131679030D01*
X105757850Y-131689520D01*
X105778893Y-131702132D01*
X105798599Y-131716747D01*
X105816777Y-131733223D01*
X105833253Y-131751401D01*
X105847868Y-131771107D01*
X105860480Y-131792150D01*
X105870970Y-131814329D01*
X105879235Y-131837428D01*
X105885196Y-131861227D01*
X105888796Y-131885495D01*
X105890000Y-131909999D01*
X105890000Y-132810001D01*
X105888796Y-132834505D01*
X105885196Y-132858773D01*
X105879235Y-132882572D01*
X105870970Y-132905671D01*
X105860480Y-132927850D01*
X105847868Y-132948893D01*
X105833253Y-132968599D01*
X105816777Y-132986777D01*
X105798599Y-133003253D01*
X105778893Y-133017868D01*
X105757850Y-133030480D01*
X105735671Y-133040970D01*
X105712572Y-133049235D01*
X105688773Y-133055196D01*
X105664505Y-133058796D01*
X105640001Y-133060000D01*
X104989999Y-133060000D01*
X104965495Y-133058796D01*
X104941227Y-133055196D01*
X104917428Y-133049235D01*
X104894329Y-133040970D01*
X104872150Y-133030480D01*
X104851107Y-133017868D01*
X104831401Y-133003253D01*
X104813223Y-132986777D01*
X104796747Y-132968599D01*
X104782132Y-132948893D01*
X104769520Y-132927850D01*
X104759030Y-132905671D01*
X104750765Y-132882572D01*
X104744804Y-132858773D01*
X104741204Y-132834505D01*
X104740000Y-132810001D01*
X104740000Y-131909999D01*
X104741204Y-131885495D01*
X104744804Y-131861227D01*
X104750765Y-131837428D01*
X104759030Y-131814329D01*
X104769520Y-131792150D01*
X104782132Y-131771107D01*
X104796747Y-131751401D01*
X104813223Y-131733223D01*
X104831401Y-131716747D01*
X104851107Y-131702132D01*
X104872150Y-131689520D01*
X104894329Y-131679030D01*
X104917428Y-131670765D01*
X104941227Y-131664804D01*
X104965495Y-131661204D01*
X104989999Y-131660000D01*
X105640001Y-131660000D01*
X105664505Y-131661204D01*
X105664505Y-131661204D01*
G37*
D11*
X105315000Y-132360000D03*
D10*
G36*
X103614505Y-131661204D02*
G01*
X103638773Y-131664804D01*
X103662572Y-131670765D01*
X103685671Y-131679030D01*
X103707850Y-131689520D01*
X103728893Y-131702132D01*
X103748599Y-131716747D01*
X103766777Y-131733223D01*
X103783253Y-131751401D01*
X103797868Y-131771107D01*
X103810480Y-131792150D01*
X103820970Y-131814329D01*
X103829235Y-131837428D01*
X103835196Y-131861227D01*
X103838796Y-131885495D01*
X103840000Y-131909999D01*
X103840000Y-132810001D01*
X103838796Y-132834505D01*
X103835196Y-132858773D01*
X103829235Y-132882572D01*
X103820970Y-132905671D01*
X103810480Y-132927850D01*
X103797868Y-132948893D01*
X103783253Y-132968599D01*
X103766777Y-132986777D01*
X103748599Y-133003253D01*
X103728893Y-133017868D01*
X103707850Y-133030480D01*
X103685671Y-133040970D01*
X103662572Y-133049235D01*
X103638773Y-133055196D01*
X103614505Y-133058796D01*
X103590001Y-133060000D01*
X102939999Y-133060000D01*
X102915495Y-133058796D01*
X102891227Y-133055196D01*
X102867428Y-133049235D01*
X102844329Y-133040970D01*
X102822150Y-133030480D01*
X102801107Y-133017868D01*
X102781401Y-133003253D01*
X102763223Y-132986777D01*
X102746747Y-132968599D01*
X102732132Y-132948893D01*
X102719520Y-132927850D01*
X102709030Y-132905671D01*
X102700765Y-132882572D01*
X102694804Y-132858773D01*
X102691204Y-132834505D01*
X102690000Y-132810001D01*
X102690000Y-131909999D01*
X102691204Y-131885495D01*
X102694804Y-131861227D01*
X102700765Y-131837428D01*
X102709030Y-131814329D01*
X102719520Y-131792150D01*
X102732132Y-131771107D01*
X102746747Y-131751401D01*
X102763223Y-131733223D01*
X102781401Y-131716747D01*
X102801107Y-131702132D01*
X102822150Y-131689520D01*
X102844329Y-131679030D01*
X102867428Y-131670765D01*
X102891227Y-131664804D01*
X102915495Y-131661204D01*
X102939999Y-131660000D01*
X103590001Y-131660000D01*
X103614505Y-131661204D01*
X103614505Y-131661204D01*
G37*
D11*
X103265000Y-132360000D03*
D10*
G36*
X105664505Y-129461204D02*
G01*
X105688773Y-129464804D01*
X105712572Y-129470765D01*
X105735671Y-129479030D01*
X105757850Y-129489520D01*
X105778893Y-129502132D01*
X105798599Y-129516747D01*
X105816777Y-129533223D01*
X105833253Y-129551401D01*
X105847868Y-129571107D01*
X105860480Y-129592150D01*
X105870970Y-129614329D01*
X105879235Y-129637428D01*
X105885196Y-129661227D01*
X105888796Y-129685495D01*
X105890000Y-129709999D01*
X105890000Y-130610001D01*
X105888796Y-130634505D01*
X105885196Y-130658773D01*
X105879235Y-130682572D01*
X105870970Y-130705671D01*
X105860480Y-130727850D01*
X105847868Y-130748893D01*
X105833253Y-130768599D01*
X105816777Y-130786777D01*
X105798599Y-130803253D01*
X105778893Y-130817868D01*
X105757850Y-130830480D01*
X105735671Y-130840970D01*
X105712572Y-130849235D01*
X105688773Y-130855196D01*
X105664505Y-130858796D01*
X105640001Y-130860000D01*
X104989999Y-130860000D01*
X104965495Y-130858796D01*
X104941227Y-130855196D01*
X104917428Y-130849235D01*
X104894329Y-130840970D01*
X104872150Y-130830480D01*
X104851107Y-130817868D01*
X104831401Y-130803253D01*
X104813223Y-130786777D01*
X104796747Y-130768599D01*
X104782132Y-130748893D01*
X104769520Y-130727850D01*
X104759030Y-130705671D01*
X104750765Y-130682572D01*
X104744804Y-130658773D01*
X104741204Y-130634505D01*
X104740000Y-130610001D01*
X104740000Y-129709999D01*
X104741204Y-129685495D01*
X104744804Y-129661227D01*
X104750765Y-129637428D01*
X104759030Y-129614329D01*
X104769520Y-129592150D01*
X104782132Y-129571107D01*
X104796747Y-129551401D01*
X104813223Y-129533223D01*
X104831401Y-129516747D01*
X104851107Y-129502132D01*
X104872150Y-129489520D01*
X104894329Y-129479030D01*
X104917428Y-129470765D01*
X104941227Y-129464804D01*
X104965495Y-129461204D01*
X104989999Y-129460000D01*
X105640001Y-129460000D01*
X105664505Y-129461204D01*
X105664505Y-129461204D01*
G37*
D11*
X105315000Y-130160000D03*
D10*
G36*
X103614505Y-129461204D02*
G01*
X103638773Y-129464804D01*
X103662572Y-129470765D01*
X103685671Y-129479030D01*
X103707850Y-129489520D01*
X103728893Y-129502132D01*
X103748599Y-129516747D01*
X103766777Y-129533223D01*
X103783253Y-129551401D01*
X103797868Y-129571107D01*
X103810480Y-129592150D01*
X103820970Y-129614329D01*
X103829235Y-129637428D01*
X103835196Y-129661227D01*
X103838796Y-129685495D01*
X103840000Y-129709999D01*
X103840000Y-130610001D01*
X103838796Y-130634505D01*
X103835196Y-130658773D01*
X103829235Y-130682572D01*
X103820970Y-130705671D01*
X103810480Y-130727850D01*
X103797868Y-130748893D01*
X103783253Y-130768599D01*
X103766777Y-130786777D01*
X103748599Y-130803253D01*
X103728893Y-130817868D01*
X103707850Y-130830480D01*
X103685671Y-130840970D01*
X103662572Y-130849235D01*
X103638773Y-130855196D01*
X103614505Y-130858796D01*
X103590001Y-130860000D01*
X102939999Y-130860000D01*
X102915495Y-130858796D01*
X102891227Y-130855196D01*
X102867428Y-130849235D01*
X102844329Y-130840970D01*
X102822150Y-130830480D01*
X102801107Y-130817868D01*
X102781401Y-130803253D01*
X102763223Y-130786777D01*
X102746747Y-130768599D01*
X102732132Y-130748893D01*
X102719520Y-130727850D01*
X102709030Y-130705671D01*
X102700765Y-130682572D01*
X102694804Y-130658773D01*
X102691204Y-130634505D01*
X102690000Y-130610001D01*
X102690000Y-129709999D01*
X102691204Y-129685495D01*
X102694804Y-129661227D01*
X102700765Y-129637428D01*
X102709030Y-129614329D01*
X102719520Y-129592150D01*
X102732132Y-129571107D01*
X102746747Y-129551401D01*
X102763223Y-129533223D01*
X102781401Y-129516747D01*
X102801107Y-129502132D01*
X102822150Y-129489520D01*
X102844329Y-129479030D01*
X102867428Y-129470765D01*
X102891227Y-129464804D01*
X102915495Y-129461204D01*
X102939999Y-129460000D01*
X103590001Y-129460000D01*
X103614505Y-129461204D01*
X103614505Y-129461204D01*
G37*
D11*
X103265000Y-130160000D03*
D10*
G36*
X105664505Y-127261204D02*
G01*
X105688773Y-127264804D01*
X105712572Y-127270765D01*
X105735671Y-127279030D01*
X105757850Y-127289520D01*
X105778893Y-127302132D01*
X105798599Y-127316747D01*
X105816777Y-127333223D01*
X105833253Y-127351401D01*
X105847868Y-127371107D01*
X105860480Y-127392150D01*
X105870970Y-127414329D01*
X105879235Y-127437428D01*
X105885196Y-127461227D01*
X105888796Y-127485495D01*
X105890000Y-127509999D01*
X105890000Y-128410001D01*
X105888796Y-128434505D01*
X105885196Y-128458773D01*
X105879235Y-128482572D01*
X105870970Y-128505671D01*
X105860480Y-128527850D01*
X105847868Y-128548893D01*
X105833253Y-128568599D01*
X105816777Y-128586777D01*
X105798599Y-128603253D01*
X105778893Y-128617868D01*
X105757850Y-128630480D01*
X105735671Y-128640970D01*
X105712572Y-128649235D01*
X105688773Y-128655196D01*
X105664505Y-128658796D01*
X105640001Y-128660000D01*
X104989999Y-128660000D01*
X104965495Y-128658796D01*
X104941227Y-128655196D01*
X104917428Y-128649235D01*
X104894329Y-128640970D01*
X104872150Y-128630480D01*
X104851107Y-128617868D01*
X104831401Y-128603253D01*
X104813223Y-128586777D01*
X104796747Y-128568599D01*
X104782132Y-128548893D01*
X104769520Y-128527850D01*
X104759030Y-128505671D01*
X104750765Y-128482572D01*
X104744804Y-128458773D01*
X104741204Y-128434505D01*
X104740000Y-128410001D01*
X104740000Y-127509999D01*
X104741204Y-127485495D01*
X104744804Y-127461227D01*
X104750765Y-127437428D01*
X104759030Y-127414329D01*
X104769520Y-127392150D01*
X104782132Y-127371107D01*
X104796747Y-127351401D01*
X104813223Y-127333223D01*
X104831401Y-127316747D01*
X104851107Y-127302132D01*
X104872150Y-127289520D01*
X104894329Y-127279030D01*
X104917428Y-127270765D01*
X104941227Y-127264804D01*
X104965495Y-127261204D01*
X104989999Y-127260000D01*
X105640001Y-127260000D01*
X105664505Y-127261204D01*
X105664505Y-127261204D01*
G37*
D11*
X105315000Y-127960000D03*
D10*
G36*
X103614505Y-127261204D02*
G01*
X103638773Y-127264804D01*
X103662572Y-127270765D01*
X103685671Y-127279030D01*
X103707850Y-127289520D01*
X103728893Y-127302132D01*
X103748599Y-127316747D01*
X103766777Y-127333223D01*
X103783253Y-127351401D01*
X103797868Y-127371107D01*
X103810480Y-127392150D01*
X103820970Y-127414329D01*
X103829235Y-127437428D01*
X103835196Y-127461227D01*
X103838796Y-127485495D01*
X103840000Y-127509999D01*
X103840000Y-128410001D01*
X103838796Y-128434505D01*
X103835196Y-128458773D01*
X103829235Y-128482572D01*
X103820970Y-128505671D01*
X103810480Y-128527850D01*
X103797868Y-128548893D01*
X103783253Y-128568599D01*
X103766777Y-128586777D01*
X103748599Y-128603253D01*
X103728893Y-128617868D01*
X103707850Y-128630480D01*
X103685671Y-128640970D01*
X103662572Y-128649235D01*
X103638773Y-128655196D01*
X103614505Y-128658796D01*
X103590001Y-128660000D01*
X102939999Y-128660000D01*
X102915495Y-128658796D01*
X102891227Y-128655196D01*
X102867428Y-128649235D01*
X102844329Y-128640970D01*
X102822150Y-128630480D01*
X102801107Y-128617868D01*
X102781401Y-128603253D01*
X102763223Y-128586777D01*
X102746747Y-128568599D01*
X102732132Y-128548893D01*
X102719520Y-128527850D01*
X102709030Y-128505671D01*
X102700765Y-128482572D01*
X102694804Y-128458773D01*
X102691204Y-128434505D01*
X102690000Y-128410001D01*
X102690000Y-127509999D01*
X102691204Y-127485495D01*
X102694804Y-127461227D01*
X102700765Y-127437428D01*
X102709030Y-127414329D01*
X102719520Y-127392150D01*
X102732132Y-127371107D01*
X102746747Y-127351401D01*
X102763223Y-127333223D01*
X102781401Y-127316747D01*
X102801107Y-127302132D01*
X102822150Y-127289520D01*
X102844329Y-127279030D01*
X102867428Y-127270765D01*
X102891227Y-127264804D01*
X102915495Y-127261204D01*
X102939999Y-127260000D01*
X103590001Y-127260000D01*
X103614505Y-127261204D01*
X103614505Y-127261204D01*
G37*
D11*
X103265000Y-127960000D03*
D10*
G36*
X105664505Y-125061204D02*
G01*
X105688773Y-125064804D01*
X105712572Y-125070765D01*
X105735671Y-125079030D01*
X105757850Y-125089520D01*
X105778893Y-125102132D01*
X105798599Y-125116747D01*
X105816777Y-125133223D01*
X105833253Y-125151401D01*
X105847868Y-125171107D01*
X105860480Y-125192150D01*
X105870970Y-125214329D01*
X105879235Y-125237428D01*
X105885196Y-125261227D01*
X105888796Y-125285495D01*
X105890000Y-125309999D01*
X105890000Y-126210001D01*
X105888796Y-126234505D01*
X105885196Y-126258773D01*
X105879235Y-126282572D01*
X105870970Y-126305671D01*
X105860480Y-126327850D01*
X105847868Y-126348893D01*
X105833253Y-126368599D01*
X105816777Y-126386777D01*
X105798599Y-126403253D01*
X105778893Y-126417868D01*
X105757850Y-126430480D01*
X105735671Y-126440970D01*
X105712572Y-126449235D01*
X105688773Y-126455196D01*
X105664505Y-126458796D01*
X105640001Y-126460000D01*
X104989999Y-126460000D01*
X104965495Y-126458796D01*
X104941227Y-126455196D01*
X104917428Y-126449235D01*
X104894329Y-126440970D01*
X104872150Y-126430480D01*
X104851107Y-126417868D01*
X104831401Y-126403253D01*
X104813223Y-126386777D01*
X104796747Y-126368599D01*
X104782132Y-126348893D01*
X104769520Y-126327850D01*
X104759030Y-126305671D01*
X104750765Y-126282572D01*
X104744804Y-126258773D01*
X104741204Y-126234505D01*
X104740000Y-126210001D01*
X104740000Y-125309999D01*
X104741204Y-125285495D01*
X104744804Y-125261227D01*
X104750765Y-125237428D01*
X104759030Y-125214329D01*
X104769520Y-125192150D01*
X104782132Y-125171107D01*
X104796747Y-125151401D01*
X104813223Y-125133223D01*
X104831401Y-125116747D01*
X104851107Y-125102132D01*
X104872150Y-125089520D01*
X104894329Y-125079030D01*
X104917428Y-125070765D01*
X104941227Y-125064804D01*
X104965495Y-125061204D01*
X104989999Y-125060000D01*
X105640001Y-125060000D01*
X105664505Y-125061204D01*
X105664505Y-125061204D01*
G37*
D11*
X105315000Y-125760000D03*
D10*
G36*
X103614505Y-125061204D02*
G01*
X103638773Y-125064804D01*
X103662572Y-125070765D01*
X103685671Y-125079030D01*
X103707850Y-125089520D01*
X103728893Y-125102132D01*
X103748599Y-125116747D01*
X103766777Y-125133223D01*
X103783253Y-125151401D01*
X103797868Y-125171107D01*
X103810480Y-125192150D01*
X103820970Y-125214329D01*
X103829235Y-125237428D01*
X103835196Y-125261227D01*
X103838796Y-125285495D01*
X103840000Y-125309999D01*
X103840000Y-126210001D01*
X103838796Y-126234505D01*
X103835196Y-126258773D01*
X103829235Y-126282572D01*
X103820970Y-126305671D01*
X103810480Y-126327850D01*
X103797868Y-126348893D01*
X103783253Y-126368599D01*
X103766777Y-126386777D01*
X103748599Y-126403253D01*
X103728893Y-126417868D01*
X103707850Y-126430480D01*
X103685671Y-126440970D01*
X103662572Y-126449235D01*
X103638773Y-126455196D01*
X103614505Y-126458796D01*
X103590001Y-126460000D01*
X102939999Y-126460000D01*
X102915495Y-126458796D01*
X102891227Y-126455196D01*
X102867428Y-126449235D01*
X102844329Y-126440970D01*
X102822150Y-126430480D01*
X102801107Y-126417868D01*
X102781401Y-126403253D01*
X102763223Y-126386777D01*
X102746747Y-126368599D01*
X102732132Y-126348893D01*
X102719520Y-126327850D01*
X102709030Y-126305671D01*
X102700765Y-126282572D01*
X102694804Y-126258773D01*
X102691204Y-126234505D01*
X102690000Y-126210001D01*
X102690000Y-125309999D01*
X102691204Y-125285495D01*
X102694804Y-125261227D01*
X102700765Y-125237428D01*
X102709030Y-125214329D01*
X102719520Y-125192150D01*
X102732132Y-125171107D01*
X102746747Y-125151401D01*
X102763223Y-125133223D01*
X102781401Y-125116747D01*
X102801107Y-125102132D01*
X102822150Y-125089520D01*
X102844329Y-125079030D01*
X102867428Y-125070765D01*
X102891227Y-125064804D01*
X102915495Y-125061204D01*
X102939999Y-125060000D01*
X103590001Y-125060000D01*
X103614505Y-125061204D01*
X103614505Y-125061204D01*
G37*
D11*
X103265000Y-125760000D03*
D10*
G36*
X114614505Y-125061204D02*
G01*
X114638773Y-125064804D01*
X114662572Y-125070765D01*
X114685671Y-125079030D01*
X114707850Y-125089520D01*
X114728893Y-125102132D01*
X114748599Y-125116747D01*
X114766777Y-125133223D01*
X114783253Y-125151401D01*
X114797868Y-125171107D01*
X114810480Y-125192150D01*
X114820970Y-125214329D01*
X114829235Y-125237428D01*
X114835196Y-125261227D01*
X114838796Y-125285495D01*
X114840000Y-125309999D01*
X114840000Y-126210001D01*
X114838796Y-126234505D01*
X114835196Y-126258773D01*
X114829235Y-126282572D01*
X114820970Y-126305671D01*
X114810480Y-126327850D01*
X114797868Y-126348893D01*
X114783253Y-126368599D01*
X114766777Y-126386777D01*
X114748599Y-126403253D01*
X114728893Y-126417868D01*
X114707850Y-126430480D01*
X114685671Y-126440970D01*
X114662572Y-126449235D01*
X114638773Y-126455196D01*
X114614505Y-126458796D01*
X114590001Y-126460000D01*
X113939999Y-126460000D01*
X113915495Y-126458796D01*
X113891227Y-126455196D01*
X113867428Y-126449235D01*
X113844329Y-126440970D01*
X113822150Y-126430480D01*
X113801107Y-126417868D01*
X113781401Y-126403253D01*
X113763223Y-126386777D01*
X113746747Y-126368599D01*
X113732132Y-126348893D01*
X113719520Y-126327850D01*
X113709030Y-126305671D01*
X113700765Y-126282572D01*
X113694804Y-126258773D01*
X113691204Y-126234505D01*
X113690000Y-126210001D01*
X113690000Y-125309999D01*
X113691204Y-125285495D01*
X113694804Y-125261227D01*
X113700765Y-125237428D01*
X113709030Y-125214329D01*
X113719520Y-125192150D01*
X113732132Y-125171107D01*
X113746747Y-125151401D01*
X113763223Y-125133223D01*
X113781401Y-125116747D01*
X113801107Y-125102132D01*
X113822150Y-125089520D01*
X113844329Y-125079030D01*
X113867428Y-125070765D01*
X113891227Y-125064804D01*
X113915495Y-125061204D01*
X113939999Y-125060000D01*
X114590001Y-125060000D01*
X114614505Y-125061204D01*
X114614505Y-125061204D01*
G37*
D11*
X114265000Y-125760000D03*
D10*
G36*
X116664505Y-125061204D02*
G01*
X116688773Y-125064804D01*
X116712572Y-125070765D01*
X116735671Y-125079030D01*
X116757850Y-125089520D01*
X116778893Y-125102132D01*
X116798599Y-125116747D01*
X116816777Y-125133223D01*
X116833253Y-125151401D01*
X116847868Y-125171107D01*
X116860480Y-125192150D01*
X116870970Y-125214329D01*
X116879235Y-125237428D01*
X116885196Y-125261227D01*
X116888796Y-125285495D01*
X116890000Y-125309999D01*
X116890000Y-126210001D01*
X116888796Y-126234505D01*
X116885196Y-126258773D01*
X116879235Y-126282572D01*
X116870970Y-126305671D01*
X116860480Y-126327850D01*
X116847868Y-126348893D01*
X116833253Y-126368599D01*
X116816777Y-126386777D01*
X116798599Y-126403253D01*
X116778893Y-126417868D01*
X116757850Y-126430480D01*
X116735671Y-126440970D01*
X116712572Y-126449235D01*
X116688773Y-126455196D01*
X116664505Y-126458796D01*
X116640001Y-126460000D01*
X115989999Y-126460000D01*
X115965495Y-126458796D01*
X115941227Y-126455196D01*
X115917428Y-126449235D01*
X115894329Y-126440970D01*
X115872150Y-126430480D01*
X115851107Y-126417868D01*
X115831401Y-126403253D01*
X115813223Y-126386777D01*
X115796747Y-126368599D01*
X115782132Y-126348893D01*
X115769520Y-126327850D01*
X115759030Y-126305671D01*
X115750765Y-126282572D01*
X115744804Y-126258773D01*
X115741204Y-126234505D01*
X115740000Y-126210001D01*
X115740000Y-125309999D01*
X115741204Y-125285495D01*
X115744804Y-125261227D01*
X115750765Y-125237428D01*
X115759030Y-125214329D01*
X115769520Y-125192150D01*
X115782132Y-125171107D01*
X115796747Y-125151401D01*
X115813223Y-125133223D01*
X115831401Y-125116747D01*
X115851107Y-125102132D01*
X115872150Y-125089520D01*
X115894329Y-125079030D01*
X115917428Y-125070765D01*
X115941227Y-125064804D01*
X115965495Y-125061204D01*
X115989999Y-125060000D01*
X116640001Y-125060000D01*
X116664505Y-125061204D01*
X116664505Y-125061204D01*
G37*
D11*
X116315000Y-125760000D03*
D10*
G36*
X114614505Y-127261204D02*
G01*
X114638773Y-127264804D01*
X114662572Y-127270765D01*
X114685671Y-127279030D01*
X114707850Y-127289520D01*
X114728893Y-127302132D01*
X114748599Y-127316747D01*
X114766777Y-127333223D01*
X114783253Y-127351401D01*
X114797868Y-127371107D01*
X114810480Y-127392150D01*
X114820970Y-127414329D01*
X114829235Y-127437428D01*
X114835196Y-127461227D01*
X114838796Y-127485495D01*
X114840000Y-127509999D01*
X114840000Y-128410001D01*
X114838796Y-128434505D01*
X114835196Y-128458773D01*
X114829235Y-128482572D01*
X114820970Y-128505671D01*
X114810480Y-128527850D01*
X114797868Y-128548893D01*
X114783253Y-128568599D01*
X114766777Y-128586777D01*
X114748599Y-128603253D01*
X114728893Y-128617868D01*
X114707850Y-128630480D01*
X114685671Y-128640970D01*
X114662572Y-128649235D01*
X114638773Y-128655196D01*
X114614505Y-128658796D01*
X114590001Y-128660000D01*
X113939999Y-128660000D01*
X113915495Y-128658796D01*
X113891227Y-128655196D01*
X113867428Y-128649235D01*
X113844329Y-128640970D01*
X113822150Y-128630480D01*
X113801107Y-128617868D01*
X113781401Y-128603253D01*
X113763223Y-128586777D01*
X113746747Y-128568599D01*
X113732132Y-128548893D01*
X113719520Y-128527850D01*
X113709030Y-128505671D01*
X113700765Y-128482572D01*
X113694804Y-128458773D01*
X113691204Y-128434505D01*
X113690000Y-128410001D01*
X113690000Y-127509999D01*
X113691204Y-127485495D01*
X113694804Y-127461227D01*
X113700765Y-127437428D01*
X113709030Y-127414329D01*
X113719520Y-127392150D01*
X113732132Y-127371107D01*
X113746747Y-127351401D01*
X113763223Y-127333223D01*
X113781401Y-127316747D01*
X113801107Y-127302132D01*
X113822150Y-127289520D01*
X113844329Y-127279030D01*
X113867428Y-127270765D01*
X113891227Y-127264804D01*
X113915495Y-127261204D01*
X113939999Y-127260000D01*
X114590001Y-127260000D01*
X114614505Y-127261204D01*
X114614505Y-127261204D01*
G37*
D11*
X114265000Y-127960000D03*
D10*
G36*
X116664505Y-127261204D02*
G01*
X116688773Y-127264804D01*
X116712572Y-127270765D01*
X116735671Y-127279030D01*
X116757850Y-127289520D01*
X116778893Y-127302132D01*
X116798599Y-127316747D01*
X116816777Y-127333223D01*
X116833253Y-127351401D01*
X116847868Y-127371107D01*
X116860480Y-127392150D01*
X116870970Y-127414329D01*
X116879235Y-127437428D01*
X116885196Y-127461227D01*
X116888796Y-127485495D01*
X116890000Y-127509999D01*
X116890000Y-128410001D01*
X116888796Y-128434505D01*
X116885196Y-128458773D01*
X116879235Y-128482572D01*
X116870970Y-128505671D01*
X116860480Y-128527850D01*
X116847868Y-128548893D01*
X116833253Y-128568599D01*
X116816777Y-128586777D01*
X116798599Y-128603253D01*
X116778893Y-128617868D01*
X116757850Y-128630480D01*
X116735671Y-128640970D01*
X116712572Y-128649235D01*
X116688773Y-128655196D01*
X116664505Y-128658796D01*
X116640001Y-128660000D01*
X115989999Y-128660000D01*
X115965495Y-128658796D01*
X115941227Y-128655196D01*
X115917428Y-128649235D01*
X115894329Y-128640970D01*
X115872150Y-128630480D01*
X115851107Y-128617868D01*
X115831401Y-128603253D01*
X115813223Y-128586777D01*
X115796747Y-128568599D01*
X115782132Y-128548893D01*
X115769520Y-128527850D01*
X115759030Y-128505671D01*
X115750765Y-128482572D01*
X115744804Y-128458773D01*
X115741204Y-128434505D01*
X115740000Y-128410001D01*
X115740000Y-127509999D01*
X115741204Y-127485495D01*
X115744804Y-127461227D01*
X115750765Y-127437428D01*
X115759030Y-127414329D01*
X115769520Y-127392150D01*
X115782132Y-127371107D01*
X115796747Y-127351401D01*
X115813223Y-127333223D01*
X115831401Y-127316747D01*
X115851107Y-127302132D01*
X115872150Y-127289520D01*
X115894329Y-127279030D01*
X115917428Y-127270765D01*
X115941227Y-127264804D01*
X115965495Y-127261204D01*
X115989999Y-127260000D01*
X116640001Y-127260000D01*
X116664505Y-127261204D01*
X116664505Y-127261204D01*
G37*
D11*
X116315000Y-127960000D03*
D10*
G36*
X114614505Y-129461204D02*
G01*
X114638773Y-129464804D01*
X114662572Y-129470765D01*
X114685671Y-129479030D01*
X114707850Y-129489520D01*
X114728893Y-129502132D01*
X114748599Y-129516747D01*
X114766777Y-129533223D01*
X114783253Y-129551401D01*
X114797868Y-129571107D01*
X114810480Y-129592150D01*
X114820970Y-129614329D01*
X114829235Y-129637428D01*
X114835196Y-129661227D01*
X114838796Y-129685495D01*
X114840000Y-129709999D01*
X114840000Y-130610001D01*
X114838796Y-130634505D01*
X114835196Y-130658773D01*
X114829235Y-130682572D01*
X114820970Y-130705671D01*
X114810480Y-130727850D01*
X114797868Y-130748893D01*
X114783253Y-130768599D01*
X114766777Y-130786777D01*
X114748599Y-130803253D01*
X114728893Y-130817868D01*
X114707850Y-130830480D01*
X114685671Y-130840970D01*
X114662572Y-130849235D01*
X114638773Y-130855196D01*
X114614505Y-130858796D01*
X114590001Y-130860000D01*
X113939999Y-130860000D01*
X113915495Y-130858796D01*
X113891227Y-130855196D01*
X113867428Y-130849235D01*
X113844329Y-130840970D01*
X113822150Y-130830480D01*
X113801107Y-130817868D01*
X113781401Y-130803253D01*
X113763223Y-130786777D01*
X113746747Y-130768599D01*
X113732132Y-130748893D01*
X113719520Y-130727850D01*
X113709030Y-130705671D01*
X113700765Y-130682572D01*
X113694804Y-130658773D01*
X113691204Y-130634505D01*
X113690000Y-130610001D01*
X113690000Y-129709999D01*
X113691204Y-129685495D01*
X113694804Y-129661227D01*
X113700765Y-129637428D01*
X113709030Y-129614329D01*
X113719520Y-129592150D01*
X113732132Y-129571107D01*
X113746747Y-129551401D01*
X113763223Y-129533223D01*
X113781401Y-129516747D01*
X113801107Y-129502132D01*
X113822150Y-129489520D01*
X113844329Y-129479030D01*
X113867428Y-129470765D01*
X113891227Y-129464804D01*
X113915495Y-129461204D01*
X113939999Y-129460000D01*
X114590001Y-129460000D01*
X114614505Y-129461204D01*
X114614505Y-129461204D01*
G37*
D11*
X114265000Y-130160000D03*
D10*
G36*
X116664505Y-129461204D02*
G01*
X116688773Y-129464804D01*
X116712572Y-129470765D01*
X116735671Y-129479030D01*
X116757850Y-129489520D01*
X116778893Y-129502132D01*
X116798599Y-129516747D01*
X116816777Y-129533223D01*
X116833253Y-129551401D01*
X116847868Y-129571107D01*
X116860480Y-129592150D01*
X116870970Y-129614329D01*
X116879235Y-129637428D01*
X116885196Y-129661227D01*
X116888796Y-129685495D01*
X116890000Y-129709999D01*
X116890000Y-130610001D01*
X116888796Y-130634505D01*
X116885196Y-130658773D01*
X116879235Y-130682572D01*
X116870970Y-130705671D01*
X116860480Y-130727850D01*
X116847868Y-130748893D01*
X116833253Y-130768599D01*
X116816777Y-130786777D01*
X116798599Y-130803253D01*
X116778893Y-130817868D01*
X116757850Y-130830480D01*
X116735671Y-130840970D01*
X116712572Y-130849235D01*
X116688773Y-130855196D01*
X116664505Y-130858796D01*
X116640001Y-130860000D01*
X115989999Y-130860000D01*
X115965495Y-130858796D01*
X115941227Y-130855196D01*
X115917428Y-130849235D01*
X115894329Y-130840970D01*
X115872150Y-130830480D01*
X115851107Y-130817868D01*
X115831401Y-130803253D01*
X115813223Y-130786777D01*
X115796747Y-130768599D01*
X115782132Y-130748893D01*
X115769520Y-130727850D01*
X115759030Y-130705671D01*
X115750765Y-130682572D01*
X115744804Y-130658773D01*
X115741204Y-130634505D01*
X115740000Y-130610001D01*
X115740000Y-129709999D01*
X115741204Y-129685495D01*
X115744804Y-129661227D01*
X115750765Y-129637428D01*
X115759030Y-129614329D01*
X115769520Y-129592150D01*
X115782132Y-129571107D01*
X115796747Y-129551401D01*
X115813223Y-129533223D01*
X115831401Y-129516747D01*
X115851107Y-129502132D01*
X115872150Y-129489520D01*
X115894329Y-129479030D01*
X115917428Y-129470765D01*
X115941227Y-129464804D01*
X115965495Y-129461204D01*
X115989999Y-129460000D01*
X116640001Y-129460000D01*
X116664505Y-129461204D01*
X116664505Y-129461204D01*
G37*
D11*
X116315000Y-130160000D03*
D10*
G36*
X114614505Y-131661204D02*
G01*
X114638773Y-131664804D01*
X114662572Y-131670765D01*
X114685671Y-131679030D01*
X114707850Y-131689520D01*
X114728893Y-131702132D01*
X114748599Y-131716747D01*
X114766777Y-131733223D01*
X114783253Y-131751401D01*
X114797868Y-131771107D01*
X114810480Y-131792150D01*
X114820970Y-131814329D01*
X114829235Y-131837428D01*
X114835196Y-131861227D01*
X114838796Y-131885495D01*
X114840000Y-131909999D01*
X114840000Y-132810001D01*
X114838796Y-132834505D01*
X114835196Y-132858773D01*
X114829235Y-132882572D01*
X114820970Y-132905671D01*
X114810480Y-132927850D01*
X114797868Y-132948893D01*
X114783253Y-132968599D01*
X114766777Y-132986777D01*
X114748599Y-133003253D01*
X114728893Y-133017868D01*
X114707850Y-133030480D01*
X114685671Y-133040970D01*
X114662572Y-133049235D01*
X114638773Y-133055196D01*
X114614505Y-133058796D01*
X114590001Y-133060000D01*
X113939999Y-133060000D01*
X113915495Y-133058796D01*
X113891227Y-133055196D01*
X113867428Y-133049235D01*
X113844329Y-133040970D01*
X113822150Y-133030480D01*
X113801107Y-133017868D01*
X113781401Y-133003253D01*
X113763223Y-132986777D01*
X113746747Y-132968599D01*
X113732132Y-132948893D01*
X113719520Y-132927850D01*
X113709030Y-132905671D01*
X113700765Y-132882572D01*
X113694804Y-132858773D01*
X113691204Y-132834505D01*
X113690000Y-132810001D01*
X113690000Y-131909999D01*
X113691204Y-131885495D01*
X113694804Y-131861227D01*
X113700765Y-131837428D01*
X113709030Y-131814329D01*
X113719520Y-131792150D01*
X113732132Y-131771107D01*
X113746747Y-131751401D01*
X113763223Y-131733223D01*
X113781401Y-131716747D01*
X113801107Y-131702132D01*
X113822150Y-131689520D01*
X113844329Y-131679030D01*
X113867428Y-131670765D01*
X113891227Y-131664804D01*
X113915495Y-131661204D01*
X113939999Y-131660000D01*
X114590001Y-131660000D01*
X114614505Y-131661204D01*
X114614505Y-131661204D01*
G37*
D11*
X114265000Y-132360000D03*
D10*
G36*
X116664505Y-131661204D02*
G01*
X116688773Y-131664804D01*
X116712572Y-131670765D01*
X116735671Y-131679030D01*
X116757850Y-131689520D01*
X116778893Y-131702132D01*
X116798599Y-131716747D01*
X116816777Y-131733223D01*
X116833253Y-131751401D01*
X116847868Y-131771107D01*
X116860480Y-131792150D01*
X116870970Y-131814329D01*
X116879235Y-131837428D01*
X116885196Y-131861227D01*
X116888796Y-131885495D01*
X116890000Y-131909999D01*
X116890000Y-132810001D01*
X116888796Y-132834505D01*
X116885196Y-132858773D01*
X116879235Y-132882572D01*
X116870970Y-132905671D01*
X116860480Y-132927850D01*
X116847868Y-132948893D01*
X116833253Y-132968599D01*
X116816777Y-132986777D01*
X116798599Y-133003253D01*
X116778893Y-133017868D01*
X116757850Y-133030480D01*
X116735671Y-133040970D01*
X116712572Y-133049235D01*
X116688773Y-133055196D01*
X116664505Y-133058796D01*
X116640001Y-133060000D01*
X115989999Y-133060000D01*
X115965495Y-133058796D01*
X115941227Y-133055196D01*
X115917428Y-133049235D01*
X115894329Y-133040970D01*
X115872150Y-133030480D01*
X115851107Y-133017868D01*
X115831401Y-133003253D01*
X115813223Y-132986777D01*
X115796747Y-132968599D01*
X115782132Y-132948893D01*
X115769520Y-132927850D01*
X115759030Y-132905671D01*
X115750765Y-132882572D01*
X115744804Y-132858773D01*
X115741204Y-132834505D01*
X115740000Y-132810001D01*
X115740000Y-131909999D01*
X115741204Y-131885495D01*
X115744804Y-131861227D01*
X115750765Y-131837428D01*
X115759030Y-131814329D01*
X115769520Y-131792150D01*
X115782132Y-131771107D01*
X115796747Y-131751401D01*
X115813223Y-131733223D01*
X115831401Y-131716747D01*
X115851107Y-131702132D01*
X115872150Y-131689520D01*
X115894329Y-131679030D01*
X115917428Y-131670765D01*
X115941227Y-131664804D01*
X115965495Y-131661204D01*
X115989999Y-131660000D01*
X116640001Y-131660000D01*
X116664505Y-131661204D01*
X116664505Y-131661204D01*
G37*
D11*
X116315000Y-132360000D03*
D10*
G36*
X120664505Y-131661204D02*
G01*
X120688773Y-131664804D01*
X120712572Y-131670765D01*
X120735671Y-131679030D01*
X120757850Y-131689520D01*
X120778893Y-131702132D01*
X120798599Y-131716747D01*
X120816777Y-131733223D01*
X120833253Y-131751401D01*
X120847868Y-131771107D01*
X120860480Y-131792150D01*
X120870970Y-131814329D01*
X120879235Y-131837428D01*
X120885196Y-131861227D01*
X120888796Y-131885495D01*
X120890000Y-131909999D01*
X120890000Y-132810001D01*
X120888796Y-132834505D01*
X120885196Y-132858773D01*
X120879235Y-132882572D01*
X120870970Y-132905671D01*
X120860480Y-132927850D01*
X120847868Y-132948893D01*
X120833253Y-132968599D01*
X120816777Y-132986777D01*
X120798599Y-133003253D01*
X120778893Y-133017868D01*
X120757850Y-133030480D01*
X120735671Y-133040970D01*
X120712572Y-133049235D01*
X120688773Y-133055196D01*
X120664505Y-133058796D01*
X120640001Y-133060000D01*
X119989999Y-133060000D01*
X119965495Y-133058796D01*
X119941227Y-133055196D01*
X119917428Y-133049235D01*
X119894329Y-133040970D01*
X119872150Y-133030480D01*
X119851107Y-133017868D01*
X119831401Y-133003253D01*
X119813223Y-132986777D01*
X119796747Y-132968599D01*
X119782132Y-132948893D01*
X119769520Y-132927850D01*
X119759030Y-132905671D01*
X119750765Y-132882572D01*
X119744804Y-132858773D01*
X119741204Y-132834505D01*
X119740000Y-132810001D01*
X119740000Y-131909999D01*
X119741204Y-131885495D01*
X119744804Y-131861227D01*
X119750765Y-131837428D01*
X119759030Y-131814329D01*
X119769520Y-131792150D01*
X119782132Y-131771107D01*
X119796747Y-131751401D01*
X119813223Y-131733223D01*
X119831401Y-131716747D01*
X119851107Y-131702132D01*
X119872150Y-131689520D01*
X119894329Y-131679030D01*
X119917428Y-131670765D01*
X119941227Y-131664804D01*
X119965495Y-131661204D01*
X119989999Y-131660000D01*
X120640001Y-131660000D01*
X120664505Y-131661204D01*
X120664505Y-131661204D01*
G37*
D11*
X120315000Y-132360000D03*
D10*
G36*
X118614505Y-131661204D02*
G01*
X118638773Y-131664804D01*
X118662572Y-131670765D01*
X118685671Y-131679030D01*
X118707850Y-131689520D01*
X118728893Y-131702132D01*
X118748599Y-131716747D01*
X118766777Y-131733223D01*
X118783253Y-131751401D01*
X118797868Y-131771107D01*
X118810480Y-131792150D01*
X118820970Y-131814329D01*
X118829235Y-131837428D01*
X118835196Y-131861227D01*
X118838796Y-131885495D01*
X118840000Y-131909999D01*
X118840000Y-132810001D01*
X118838796Y-132834505D01*
X118835196Y-132858773D01*
X118829235Y-132882572D01*
X118820970Y-132905671D01*
X118810480Y-132927850D01*
X118797868Y-132948893D01*
X118783253Y-132968599D01*
X118766777Y-132986777D01*
X118748599Y-133003253D01*
X118728893Y-133017868D01*
X118707850Y-133030480D01*
X118685671Y-133040970D01*
X118662572Y-133049235D01*
X118638773Y-133055196D01*
X118614505Y-133058796D01*
X118590001Y-133060000D01*
X117939999Y-133060000D01*
X117915495Y-133058796D01*
X117891227Y-133055196D01*
X117867428Y-133049235D01*
X117844329Y-133040970D01*
X117822150Y-133030480D01*
X117801107Y-133017868D01*
X117781401Y-133003253D01*
X117763223Y-132986777D01*
X117746747Y-132968599D01*
X117732132Y-132948893D01*
X117719520Y-132927850D01*
X117709030Y-132905671D01*
X117700765Y-132882572D01*
X117694804Y-132858773D01*
X117691204Y-132834505D01*
X117690000Y-132810001D01*
X117690000Y-131909999D01*
X117691204Y-131885495D01*
X117694804Y-131861227D01*
X117700765Y-131837428D01*
X117709030Y-131814329D01*
X117719520Y-131792150D01*
X117732132Y-131771107D01*
X117746747Y-131751401D01*
X117763223Y-131733223D01*
X117781401Y-131716747D01*
X117801107Y-131702132D01*
X117822150Y-131689520D01*
X117844329Y-131679030D01*
X117867428Y-131670765D01*
X117891227Y-131664804D01*
X117915495Y-131661204D01*
X117939999Y-131660000D01*
X118590001Y-131660000D01*
X118614505Y-131661204D01*
X118614505Y-131661204D01*
G37*
D11*
X118265000Y-132360000D03*
D10*
G36*
X120664505Y-129461204D02*
G01*
X120688773Y-129464804D01*
X120712572Y-129470765D01*
X120735671Y-129479030D01*
X120757850Y-129489520D01*
X120778893Y-129502132D01*
X120798599Y-129516747D01*
X120816777Y-129533223D01*
X120833253Y-129551401D01*
X120847868Y-129571107D01*
X120860480Y-129592150D01*
X120870970Y-129614329D01*
X120879235Y-129637428D01*
X120885196Y-129661227D01*
X120888796Y-129685495D01*
X120890000Y-129709999D01*
X120890000Y-130610001D01*
X120888796Y-130634505D01*
X120885196Y-130658773D01*
X120879235Y-130682572D01*
X120870970Y-130705671D01*
X120860480Y-130727850D01*
X120847868Y-130748893D01*
X120833253Y-130768599D01*
X120816777Y-130786777D01*
X120798599Y-130803253D01*
X120778893Y-130817868D01*
X120757850Y-130830480D01*
X120735671Y-130840970D01*
X120712572Y-130849235D01*
X120688773Y-130855196D01*
X120664505Y-130858796D01*
X120640001Y-130860000D01*
X119989999Y-130860000D01*
X119965495Y-130858796D01*
X119941227Y-130855196D01*
X119917428Y-130849235D01*
X119894329Y-130840970D01*
X119872150Y-130830480D01*
X119851107Y-130817868D01*
X119831401Y-130803253D01*
X119813223Y-130786777D01*
X119796747Y-130768599D01*
X119782132Y-130748893D01*
X119769520Y-130727850D01*
X119759030Y-130705671D01*
X119750765Y-130682572D01*
X119744804Y-130658773D01*
X119741204Y-130634505D01*
X119740000Y-130610001D01*
X119740000Y-129709999D01*
X119741204Y-129685495D01*
X119744804Y-129661227D01*
X119750765Y-129637428D01*
X119759030Y-129614329D01*
X119769520Y-129592150D01*
X119782132Y-129571107D01*
X119796747Y-129551401D01*
X119813223Y-129533223D01*
X119831401Y-129516747D01*
X119851107Y-129502132D01*
X119872150Y-129489520D01*
X119894329Y-129479030D01*
X119917428Y-129470765D01*
X119941227Y-129464804D01*
X119965495Y-129461204D01*
X119989999Y-129460000D01*
X120640001Y-129460000D01*
X120664505Y-129461204D01*
X120664505Y-129461204D01*
G37*
D11*
X120315000Y-130160000D03*
D10*
G36*
X118614505Y-129461204D02*
G01*
X118638773Y-129464804D01*
X118662572Y-129470765D01*
X118685671Y-129479030D01*
X118707850Y-129489520D01*
X118728893Y-129502132D01*
X118748599Y-129516747D01*
X118766777Y-129533223D01*
X118783253Y-129551401D01*
X118797868Y-129571107D01*
X118810480Y-129592150D01*
X118820970Y-129614329D01*
X118829235Y-129637428D01*
X118835196Y-129661227D01*
X118838796Y-129685495D01*
X118840000Y-129709999D01*
X118840000Y-130610001D01*
X118838796Y-130634505D01*
X118835196Y-130658773D01*
X118829235Y-130682572D01*
X118820970Y-130705671D01*
X118810480Y-130727850D01*
X118797868Y-130748893D01*
X118783253Y-130768599D01*
X118766777Y-130786777D01*
X118748599Y-130803253D01*
X118728893Y-130817868D01*
X118707850Y-130830480D01*
X118685671Y-130840970D01*
X118662572Y-130849235D01*
X118638773Y-130855196D01*
X118614505Y-130858796D01*
X118590001Y-130860000D01*
X117939999Y-130860000D01*
X117915495Y-130858796D01*
X117891227Y-130855196D01*
X117867428Y-130849235D01*
X117844329Y-130840970D01*
X117822150Y-130830480D01*
X117801107Y-130817868D01*
X117781401Y-130803253D01*
X117763223Y-130786777D01*
X117746747Y-130768599D01*
X117732132Y-130748893D01*
X117719520Y-130727850D01*
X117709030Y-130705671D01*
X117700765Y-130682572D01*
X117694804Y-130658773D01*
X117691204Y-130634505D01*
X117690000Y-130610001D01*
X117690000Y-129709999D01*
X117691204Y-129685495D01*
X117694804Y-129661227D01*
X117700765Y-129637428D01*
X117709030Y-129614329D01*
X117719520Y-129592150D01*
X117732132Y-129571107D01*
X117746747Y-129551401D01*
X117763223Y-129533223D01*
X117781401Y-129516747D01*
X117801107Y-129502132D01*
X117822150Y-129489520D01*
X117844329Y-129479030D01*
X117867428Y-129470765D01*
X117891227Y-129464804D01*
X117915495Y-129461204D01*
X117939999Y-129460000D01*
X118590001Y-129460000D01*
X118614505Y-129461204D01*
X118614505Y-129461204D01*
G37*
D11*
X118265000Y-130160000D03*
D10*
G36*
X120664505Y-127261204D02*
G01*
X120688773Y-127264804D01*
X120712572Y-127270765D01*
X120735671Y-127279030D01*
X120757850Y-127289520D01*
X120778893Y-127302132D01*
X120798599Y-127316747D01*
X120816777Y-127333223D01*
X120833253Y-127351401D01*
X120847868Y-127371107D01*
X120860480Y-127392150D01*
X120870970Y-127414329D01*
X120879235Y-127437428D01*
X120885196Y-127461227D01*
X120888796Y-127485495D01*
X120890000Y-127509999D01*
X120890000Y-128410001D01*
X120888796Y-128434505D01*
X120885196Y-128458773D01*
X120879235Y-128482572D01*
X120870970Y-128505671D01*
X120860480Y-128527850D01*
X120847868Y-128548893D01*
X120833253Y-128568599D01*
X120816777Y-128586777D01*
X120798599Y-128603253D01*
X120778893Y-128617868D01*
X120757850Y-128630480D01*
X120735671Y-128640970D01*
X120712572Y-128649235D01*
X120688773Y-128655196D01*
X120664505Y-128658796D01*
X120640001Y-128660000D01*
X119989999Y-128660000D01*
X119965495Y-128658796D01*
X119941227Y-128655196D01*
X119917428Y-128649235D01*
X119894329Y-128640970D01*
X119872150Y-128630480D01*
X119851107Y-128617868D01*
X119831401Y-128603253D01*
X119813223Y-128586777D01*
X119796747Y-128568599D01*
X119782132Y-128548893D01*
X119769520Y-128527850D01*
X119759030Y-128505671D01*
X119750765Y-128482572D01*
X119744804Y-128458773D01*
X119741204Y-128434505D01*
X119740000Y-128410001D01*
X119740000Y-127509999D01*
X119741204Y-127485495D01*
X119744804Y-127461227D01*
X119750765Y-127437428D01*
X119759030Y-127414329D01*
X119769520Y-127392150D01*
X119782132Y-127371107D01*
X119796747Y-127351401D01*
X119813223Y-127333223D01*
X119831401Y-127316747D01*
X119851107Y-127302132D01*
X119872150Y-127289520D01*
X119894329Y-127279030D01*
X119917428Y-127270765D01*
X119941227Y-127264804D01*
X119965495Y-127261204D01*
X119989999Y-127260000D01*
X120640001Y-127260000D01*
X120664505Y-127261204D01*
X120664505Y-127261204D01*
G37*
D11*
X120315000Y-127960000D03*
D10*
G36*
X118614505Y-127261204D02*
G01*
X118638773Y-127264804D01*
X118662572Y-127270765D01*
X118685671Y-127279030D01*
X118707850Y-127289520D01*
X118728893Y-127302132D01*
X118748599Y-127316747D01*
X118766777Y-127333223D01*
X118783253Y-127351401D01*
X118797868Y-127371107D01*
X118810480Y-127392150D01*
X118820970Y-127414329D01*
X118829235Y-127437428D01*
X118835196Y-127461227D01*
X118838796Y-127485495D01*
X118840000Y-127509999D01*
X118840000Y-128410001D01*
X118838796Y-128434505D01*
X118835196Y-128458773D01*
X118829235Y-128482572D01*
X118820970Y-128505671D01*
X118810480Y-128527850D01*
X118797868Y-128548893D01*
X118783253Y-128568599D01*
X118766777Y-128586777D01*
X118748599Y-128603253D01*
X118728893Y-128617868D01*
X118707850Y-128630480D01*
X118685671Y-128640970D01*
X118662572Y-128649235D01*
X118638773Y-128655196D01*
X118614505Y-128658796D01*
X118590001Y-128660000D01*
X117939999Y-128660000D01*
X117915495Y-128658796D01*
X117891227Y-128655196D01*
X117867428Y-128649235D01*
X117844329Y-128640970D01*
X117822150Y-128630480D01*
X117801107Y-128617868D01*
X117781401Y-128603253D01*
X117763223Y-128586777D01*
X117746747Y-128568599D01*
X117732132Y-128548893D01*
X117719520Y-128527850D01*
X117709030Y-128505671D01*
X117700765Y-128482572D01*
X117694804Y-128458773D01*
X117691204Y-128434505D01*
X117690000Y-128410001D01*
X117690000Y-127509999D01*
X117691204Y-127485495D01*
X117694804Y-127461227D01*
X117700765Y-127437428D01*
X117709030Y-127414329D01*
X117719520Y-127392150D01*
X117732132Y-127371107D01*
X117746747Y-127351401D01*
X117763223Y-127333223D01*
X117781401Y-127316747D01*
X117801107Y-127302132D01*
X117822150Y-127289520D01*
X117844329Y-127279030D01*
X117867428Y-127270765D01*
X117891227Y-127264804D01*
X117915495Y-127261204D01*
X117939999Y-127260000D01*
X118590001Y-127260000D01*
X118614505Y-127261204D01*
X118614505Y-127261204D01*
G37*
D11*
X118265000Y-127960000D03*
D10*
G36*
X120664505Y-125061204D02*
G01*
X120688773Y-125064804D01*
X120712572Y-125070765D01*
X120735671Y-125079030D01*
X120757850Y-125089520D01*
X120778893Y-125102132D01*
X120798599Y-125116747D01*
X120816777Y-125133223D01*
X120833253Y-125151401D01*
X120847868Y-125171107D01*
X120860480Y-125192150D01*
X120870970Y-125214329D01*
X120879235Y-125237428D01*
X120885196Y-125261227D01*
X120888796Y-125285495D01*
X120890000Y-125309999D01*
X120890000Y-126210001D01*
X120888796Y-126234505D01*
X120885196Y-126258773D01*
X120879235Y-126282572D01*
X120870970Y-126305671D01*
X120860480Y-126327850D01*
X120847868Y-126348893D01*
X120833253Y-126368599D01*
X120816777Y-126386777D01*
X120798599Y-126403253D01*
X120778893Y-126417868D01*
X120757850Y-126430480D01*
X120735671Y-126440970D01*
X120712572Y-126449235D01*
X120688773Y-126455196D01*
X120664505Y-126458796D01*
X120640001Y-126460000D01*
X119989999Y-126460000D01*
X119965495Y-126458796D01*
X119941227Y-126455196D01*
X119917428Y-126449235D01*
X119894329Y-126440970D01*
X119872150Y-126430480D01*
X119851107Y-126417868D01*
X119831401Y-126403253D01*
X119813223Y-126386777D01*
X119796747Y-126368599D01*
X119782132Y-126348893D01*
X119769520Y-126327850D01*
X119759030Y-126305671D01*
X119750765Y-126282572D01*
X119744804Y-126258773D01*
X119741204Y-126234505D01*
X119740000Y-126210001D01*
X119740000Y-125309999D01*
X119741204Y-125285495D01*
X119744804Y-125261227D01*
X119750765Y-125237428D01*
X119759030Y-125214329D01*
X119769520Y-125192150D01*
X119782132Y-125171107D01*
X119796747Y-125151401D01*
X119813223Y-125133223D01*
X119831401Y-125116747D01*
X119851107Y-125102132D01*
X119872150Y-125089520D01*
X119894329Y-125079030D01*
X119917428Y-125070765D01*
X119941227Y-125064804D01*
X119965495Y-125061204D01*
X119989999Y-125060000D01*
X120640001Y-125060000D01*
X120664505Y-125061204D01*
X120664505Y-125061204D01*
G37*
D11*
X120315000Y-125760000D03*
D10*
G36*
X118614505Y-125061204D02*
G01*
X118638773Y-125064804D01*
X118662572Y-125070765D01*
X118685671Y-125079030D01*
X118707850Y-125089520D01*
X118728893Y-125102132D01*
X118748599Y-125116747D01*
X118766777Y-125133223D01*
X118783253Y-125151401D01*
X118797868Y-125171107D01*
X118810480Y-125192150D01*
X118820970Y-125214329D01*
X118829235Y-125237428D01*
X118835196Y-125261227D01*
X118838796Y-125285495D01*
X118840000Y-125309999D01*
X118840000Y-126210001D01*
X118838796Y-126234505D01*
X118835196Y-126258773D01*
X118829235Y-126282572D01*
X118820970Y-126305671D01*
X118810480Y-126327850D01*
X118797868Y-126348893D01*
X118783253Y-126368599D01*
X118766777Y-126386777D01*
X118748599Y-126403253D01*
X118728893Y-126417868D01*
X118707850Y-126430480D01*
X118685671Y-126440970D01*
X118662572Y-126449235D01*
X118638773Y-126455196D01*
X118614505Y-126458796D01*
X118590001Y-126460000D01*
X117939999Y-126460000D01*
X117915495Y-126458796D01*
X117891227Y-126455196D01*
X117867428Y-126449235D01*
X117844329Y-126440970D01*
X117822150Y-126430480D01*
X117801107Y-126417868D01*
X117781401Y-126403253D01*
X117763223Y-126386777D01*
X117746747Y-126368599D01*
X117732132Y-126348893D01*
X117719520Y-126327850D01*
X117709030Y-126305671D01*
X117700765Y-126282572D01*
X117694804Y-126258773D01*
X117691204Y-126234505D01*
X117690000Y-126210001D01*
X117690000Y-125309999D01*
X117691204Y-125285495D01*
X117694804Y-125261227D01*
X117700765Y-125237428D01*
X117709030Y-125214329D01*
X117719520Y-125192150D01*
X117732132Y-125171107D01*
X117746747Y-125151401D01*
X117763223Y-125133223D01*
X117781401Y-125116747D01*
X117801107Y-125102132D01*
X117822150Y-125089520D01*
X117844329Y-125079030D01*
X117867428Y-125070765D01*
X117891227Y-125064804D01*
X117915495Y-125061204D01*
X117939999Y-125060000D01*
X118590001Y-125060000D01*
X118614505Y-125061204D01*
X118614505Y-125061204D01*
G37*
D11*
X118265000Y-125760000D03*
D12*
X126860000Y-122190000D03*
X125590000Y-122190000D03*
X124320000Y-122190000D03*
X123050000Y-122190000D03*
X121780000Y-122190000D03*
X120510000Y-122190000D03*
X119240000Y-122190000D03*
X117970000Y-122190000D03*
X116700000Y-122190000D03*
X115430000Y-122190000D03*
X114160000Y-122190000D03*
X112890000Y-122190000D03*
X111620000Y-122190000D03*
X110350000Y-122190000D03*
X109080000Y-122190000D03*
X107810000Y-122190000D03*
X106540000Y-122190000D03*
X105270000Y-122190000D03*
X104000000Y-122190000D03*
X102730000Y-122190000D03*
M02*
