G04 #@! TF.GenerationSoftware,KiCad,Pcbnew,(5.1.4)-1*
G04 #@! TF.CreationDate,2023-01-28T21:19:40+01:00*
G04 #@! TF.ProjectId,SEN-UP1-8xTH,53454e2d-5550-4312-9d38-7854482e6b69,V00.02*
G04 #@! TF.SameCoordinates,Original*
G04 #@! TF.FileFunction,Legend,Top*
G04 #@! TF.FilePolarity,Positive*
%FSLAX46Y46*%
G04 Gerber Fmt 4.6, Leading zero omitted, Abs format (unit mm)*
G04 Created by KiCad (PCBNEW (5.1.4)-1) date 2023-01-28 21:19:40*
%MOMM*%
%LPD*%
G04 APERTURE LIST*
%ADD10C,0.100000*%
%ADD11C,0.150000*%
%ADD12C,0.010000*%
%ADD13C,0.120000*%
G04 APERTURE END LIST*
D10*
X95084523Y-128323809D02*
X95198809Y-128361904D01*
X95389285Y-128361904D01*
X95465476Y-128323809D01*
X95503571Y-128285714D01*
X95541666Y-128209523D01*
X95541666Y-128133333D01*
X95503571Y-128057142D01*
X95465476Y-128019047D01*
X95389285Y-127980952D01*
X95236904Y-127942857D01*
X95160714Y-127904761D01*
X95122619Y-127866666D01*
X95084523Y-127790476D01*
X95084523Y-127714285D01*
X95122619Y-127638095D01*
X95160714Y-127600000D01*
X95236904Y-127561904D01*
X95427381Y-127561904D01*
X95541666Y-127600000D01*
X95884523Y-128361904D02*
X95884523Y-127561904D01*
X96075000Y-127561904D01*
X96189285Y-127600000D01*
X96265476Y-127676190D01*
X96303571Y-127752380D01*
X96341666Y-127904761D01*
X96341666Y-128019047D01*
X96303571Y-128171428D01*
X96265476Y-128247619D01*
X96189285Y-128323809D01*
X96075000Y-128361904D01*
X95884523Y-128361904D01*
X96646428Y-128133333D02*
X97027381Y-128133333D01*
X96570238Y-128361904D02*
X96836904Y-127561904D01*
X97103571Y-128361904D01*
X97941666Y-128133333D02*
X98322619Y-128133333D01*
X97865476Y-128361904D02*
X98132143Y-127561904D01*
X98398809Y-128361904D01*
X95122618Y-126123809D02*
X95236904Y-126161904D01*
X95427380Y-126161904D01*
X95503571Y-126123809D01*
X95541666Y-126085714D01*
X95579761Y-126009523D01*
X95579761Y-125933333D01*
X95541666Y-125857142D01*
X95503571Y-125819047D01*
X95427380Y-125780952D01*
X95274999Y-125742857D01*
X95198809Y-125704761D01*
X95160714Y-125666666D01*
X95122618Y-125590476D01*
X95122618Y-125514285D01*
X95160714Y-125438095D01*
X95198809Y-125400000D01*
X95274999Y-125361904D01*
X95465476Y-125361904D01*
X95579761Y-125400000D01*
X96379761Y-126085714D02*
X96341666Y-126123809D01*
X96227380Y-126161904D01*
X96151190Y-126161904D01*
X96036904Y-126123809D01*
X95960714Y-126047619D01*
X95922618Y-125971428D01*
X95884523Y-125819047D01*
X95884523Y-125704761D01*
X95922618Y-125552380D01*
X95960714Y-125476190D01*
X96036904Y-125400000D01*
X96151190Y-125361904D01*
X96227380Y-125361904D01*
X96341666Y-125400000D01*
X96379761Y-125438095D01*
X97103571Y-126161904D02*
X96722618Y-126161904D01*
X96722618Y-125361904D01*
X97941666Y-125933333D02*
X98322618Y-125933333D01*
X97865476Y-126161904D02*
X98132142Y-125361904D01*
X98398809Y-126161904D01*
X94970237Y-132723809D02*
X95084523Y-132761904D01*
X95274999Y-132761904D01*
X95351190Y-132723809D01*
X95389285Y-132685714D01*
X95427380Y-132609523D01*
X95427380Y-132533333D01*
X95389285Y-132457142D01*
X95351190Y-132419047D01*
X95274999Y-132380952D01*
X95122618Y-132342857D01*
X95046428Y-132304761D01*
X95008333Y-132266666D01*
X94970237Y-132190476D01*
X94970237Y-132114285D01*
X95008333Y-132038095D01*
X95046428Y-132000000D01*
X95122618Y-131961904D01*
X95313095Y-131961904D01*
X95427380Y-132000000D01*
X95770237Y-132761904D02*
X95770237Y-131961904D01*
X95960714Y-131961904D01*
X96074999Y-132000000D01*
X96151190Y-132076190D01*
X96189285Y-132152380D01*
X96227380Y-132304761D01*
X96227380Y-132419047D01*
X96189285Y-132571428D01*
X96151190Y-132647619D01*
X96074999Y-132723809D01*
X95960714Y-132761904D01*
X95770237Y-132761904D01*
X96532142Y-132533333D02*
X96913095Y-132533333D01*
X96455952Y-132761904D02*
X96722618Y-131961904D01*
X96989285Y-132761904D01*
X98132142Y-132342857D02*
X98246428Y-132380952D01*
X98284523Y-132419047D01*
X98322618Y-132495238D01*
X98322618Y-132609523D01*
X98284523Y-132685714D01*
X98246428Y-132723809D01*
X98170237Y-132761904D01*
X97865476Y-132761904D01*
X97865476Y-131961904D01*
X98132142Y-131961904D01*
X98208333Y-132000000D01*
X98246428Y-132038095D01*
X98284523Y-132114285D01*
X98284523Y-132190476D01*
X98246428Y-132266666D01*
X98208333Y-132304761D01*
X98132142Y-132342857D01*
X97865476Y-132342857D01*
X95008332Y-130523809D02*
X95122618Y-130561904D01*
X95313094Y-130561904D01*
X95389285Y-130523809D01*
X95427380Y-130485714D01*
X95465475Y-130409523D01*
X95465475Y-130333333D01*
X95427380Y-130257142D01*
X95389285Y-130219047D01*
X95313094Y-130180952D01*
X95160713Y-130142857D01*
X95084523Y-130104761D01*
X95046428Y-130066666D01*
X95008332Y-129990476D01*
X95008332Y-129914285D01*
X95046428Y-129838095D01*
X95084523Y-129800000D01*
X95160713Y-129761904D01*
X95351190Y-129761904D01*
X95465475Y-129800000D01*
X96265475Y-130485714D02*
X96227380Y-130523809D01*
X96113094Y-130561904D01*
X96036904Y-130561904D01*
X95922618Y-130523809D01*
X95846428Y-130447619D01*
X95808332Y-130371428D01*
X95770237Y-130219047D01*
X95770237Y-130104761D01*
X95808332Y-129952380D01*
X95846428Y-129876190D01*
X95922618Y-129800000D01*
X96036904Y-129761904D01*
X96113094Y-129761904D01*
X96227380Y-129800000D01*
X96265475Y-129838095D01*
X96989285Y-130561904D02*
X96608332Y-130561904D01*
X96608332Y-129761904D01*
X98132142Y-130142857D02*
X98246428Y-130180952D01*
X98284523Y-130219047D01*
X98322618Y-130295238D01*
X98322618Y-130409523D01*
X98284523Y-130485714D01*
X98246428Y-130523809D01*
X98170237Y-130561904D01*
X97865475Y-130561904D01*
X97865475Y-129761904D01*
X98132142Y-129761904D01*
X98208332Y-129800000D01*
X98246428Y-129838095D01*
X98284523Y-129914285D01*
X98284523Y-129990476D01*
X98246428Y-130066666D01*
X98208332Y-130104761D01*
X98132142Y-130142857D01*
X97865475Y-130142857D01*
X106197381Y-132723809D02*
X106311667Y-132761904D01*
X106502143Y-132761904D01*
X106578333Y-132723809D01*
X106616428Y-132685714D01*
X106654524Y-132609523D01*
X106654524Y-132533333D01*
X106616428Y-132457142D01*
X106578333Y-132419047D01*
X106502143Y-132380952D01*
X106349762Y-132342857D01*
X106273571Y-132304761D01*
X106235476Y-132266666D01*
X106197381Y-132190476D01*
X106197381Y-132114285D01*
X106235476Y-132038095D01*
X106273571Y-132000000D01*
X106349762Y-131961904D01*
X106540238Y-131961904D01*
X106654524Y-132000000D01*
X107454524Y-132685714D02*
X107416428Y-132723809D01*
X107302143Y-132761904D01*
X107225952Y-132761904D01*
X107111667Y-132723809D01*
X107035476Y-132647619D01*
X106997381Y-132571428D01*
X106959286Y-132419047D01*
X106959286Y-132304761D01*
X106997381Y-132152380D01*
X107035476Y-132076190D01*
X107111667Y-132000000D01*
X107225952Y-131961904D01*
X107302143Y-131961904D01*
X107416428Y-132000000D01*
X107454524Y-132038095D01*
X108178333Y-132761904D02*
X107797381Y-132761904D01*
X107797381Y-131961904D01*
X109511667Y-132685714D02*
X109473571Y-132723809D01*
X109359286Y-132761904D01*
X109283095Y-132761904D01*
X109168809Y-132723809D01*
X109092619Y-132647619D01*
X109054524Y-132571428D01*
X109016428Y-132419047D01*
X109016428Y-132304761D01*
X109054524Y-132152380D01*
X109092619Y-132076190D01*
X109168809Y-132000000D01*
X109283095Y-131961904D01*
X109359286Y-131961904D01*
X109473571Y-132000000D01*
X109511667Y-132038095D01*
X106197381Y-130523809D02*
X106311666Y-130561904D01*
X106502143Y-130561904D01*
X106578333Y-130523809D01*
X106616428Y-130485714D01*
X106654523Y-130409523D01*
X106654523Y-130333333D01*
X106616428Y-130257142D01*
X106578333Y-130219047D01*
X106502143Y-130180952D01*
X106349762Y-130142857D01*
X106273571Y-130104761D01*
X106235476Y-130066666D01*
X106197381Y-129990476D01*
X106197381Y-129914285D01*
X106235476Y-129838095D01*
X106273571Y-129800000D01*
X106349762Y-129761904D01*
X106540238Y-129761904D01*
X106654523Y-129800000D01*
X106997381Y-130561904D02*
X106997381Y-129761904D01*
X107187857Y-129761904D01*
X107302143Y-129800000D01*
X107378333Y-129876190D01*
X107416428Y-129952380D01*
X107454523Y-130104761D01*
X107454523Y-130219047D01*
X107416428Y-130371428D01*
X107378333Y-130447619D01*
X107302143Y-130523809D01*
X107187857Y-130561904D01*
X106997381Y-130561904D01*
X107759285Y-130333333D02*
X108140238Y-130333333D01*
X107683095Y-130561904D02*
X107949762Y-129761904D01*
X108216428Y-130561904D01*
X109549762Y-130485714D02*
X109511666Y-130523809D01*
X109397381Y-130561904D01*
X109321190Y-130561904D01*
X109206904Y-130523809D01*
X109130714Y-130447619D01*
X109092619Y-130371428D01*
X109054523Y-130219047D01*
X109054523Y-130104761D01*
X109092619Y-129952380D01*
X109130714Y-129876190D01*
X109206904Y-129800000D01*
X109321190Y-129761904D01*
X109397381Y-129761904D01*
X109511666Y-129800000D01*
X109549762Y-129838095D01*
X106197381Y-126123809D02*
X106311666Y-126161904D01*
X106502143Y-126161904D01*
X106578333Y-126123809D01*
X106616428Y-126085714D01*
X106654523Y-126009523D01*
X106654523Y-125933333D01*
X106616428Y-125857142D01*
X106578333Y-125819047D01*
X106502143Y-125780952D01*
X106349762Y-125742857D01*
X106273571Y-125704761D01*
X106235476Y-125666666D01*
X106197381Y-125590476D01*
X106197381Y-125514285D01*
X106235476Y-125438095D01*
X106273571Y-125400000D01*
X106349762Y-125361904D01*
X106540238Y-125361904D01*
X106654523Y-125400000D01*
X106997381Y-126161904D02*
X106997381Y-125361904D01*
X107187857Y-125361904D01*
X107302143Y-125400000D01*
X107378333Y-125476190D01*
X107416428Y-125552380D01*
X107454523Y-125704761D01*
X107454523Y-125819047D01*
X107416428Y-125971428D01*
X107378333Y-126047619D01*
X107302143Y-126123809D01*
X107187857Y-126161904D01*
X106997381Y-126161904D01*
X107759285Y-125933333D02*
X108140238Y-125933333D01*
X107683095Y-126161904D02*
X107949762Y-125361904D01*
X108216428Y-126161904D01*
X109092619Y-126161904D02*
X109092619Y-125361904D01*
X109283095Y-125361904D01*
X109397381Y-125400000D01*
X109473571Y-125476190D01*
X109511666Y-125552380D01*
X109549762Y-125704761D01*
X109549762Y-125819047D01*
X109511666Y-125971428D01*
X109473571Y-126047619D01*
X109397381Y-126123809D01*
X109283095Y-126161904D01*
X109092619Y-126161904D01*
X106197381Y-128323809D02*
X106311667Y-128361904D01*
X106502143Y-128361904D01*
X106578333Y-128323809D01*
X106616428Y-128285714D01*
X106654524Y-128209523D01*
X106654524Y-128133333D01*
X106616428Y-128057142D01*
X106578333Y-128019047D01*
X106502143Y-127980952D01*
X106349762Y-127942857D01*
X106273571Y-127904761D01*
X106235476Y-127866666D01*
X106197381Y-127790476D01*
X106197381Y-127714285D01*
X106235476Y-127638095D01*
X106273571Y-127600000D01*
X106349762Y-127561904D01*
X106540238Y-127561904D01*
X106654524Y-127600000D01*
X107454524Y-128285714D02*
X107416428Y-128323809D01*
X107302143Y-128361904D01*
X107225952Y-128361904D01*
X107111667Y-128323809D01*
X107035476Y-128247619D01*
X106997381Y-128171428D01*
X106959286Y-128019047D01*
X106959286Y-127904761D01*
X106997381Y-127752380D01*
X107035476Y-127676190D01*
X107111667Y-127600000D01*
X107225952Y-127561904D01*
X107302143Y-127561904D01*
X107416428Y-127600000D01*
X107454524Y-127638095D01*
X108178333Y-128361904D02*
X107797381Y-128361904D01*
X107797381Y-127561904D01*
X109054524Y-128361904D02*
X109054524Y-127561904D01*
X109245000Y-127561904D01*
X109359286Y-127600000D01*
X109435476Y-127676190D01*
X109473571Y-127752380D01*
X109511667Y-127904761D01*
X109511667Y-128019047D01*
X109473571Y-128171428D01*
X109435476Y-128247619D01*
X109359286Y-128323809D01*
X109245000Y-128361904D01*
X109054524Y-128361904D01*
X110084523Y-132723809D02*
X110198809Y-132761904D01*
X110389285Y-132761904D01*
X110465476Y-132723809D01*
X110503571Y-132685714D01*
X110541666Y-132609523D01*
X110541666Y-132533333D01*
X110503571Y-132457142D01*
X110465476Y-132419047D01*
X110389285Y-132380952D01*
X110236904Y-132342857D01*
X110160714Y-132304761D01*
X110122619Y-132266666D01*
X110084523Y-132190476D01*
X110084523Y-132114285D01*
X110122619Y-132038095D01*
X110160714Y-132000000D01*
X110236904Y-131961904D01*
X110427381Y-131961904D01*
X110541666Y-132000000D01*
X110884523Y-132761904D02*
X110884523Y-131961904D01*
X111075000Y-131961904D01*
X111189285Y-132000000D01*
X111265476Y-132076190D01*
X111303571Y-132152380D01*
X111341666Y-132304761D01*
X111341666Y-132419047D01*
X111303571Y-132571428D01*
X111265476Y-132647619D01*
X111189285Y-132723809D01*
X111075000Y-132761904D01*
X110884523Y-132761904D01*
X111646428Y-132533333D02*
X112027381Y-132533333D01*
X111570238Y-132761904D02*
X111836904Y-131961904D01*
X112103571Y-132761904D01*
X113246428Y-132342857D02*
X112979762Y-132342857D01*
X112979762Y-132761904D02*
X112979762Y-131961904D01*
X113360714Y-131961904D01*
X110046428Y-128323809D02*
X110160714Y-128361904D01*
X110351190Y-128361904D01*
X110427381Y-128323809D01*
X110465476Y-128285714D01*
X110503571Y-128209523D01*
X110503571Y-128133333D01*
X110465476Y-128057142D01*
X110427381Y-128019047D01*
X110351190Y-127980952D01*
X110198809Y-127942857D01*
X110122619Y-127904761D01*
X110084524Y-127866666D01*
X110046428Y-127790476D01*
X110046428Y-127714285D01*
X110084524Y-127638095D01*
X110122619Y-127600000D01*
X110198809Y-127561904D01*
X110389286Y-127561904D01*
X110503571Y-127600000D01*
X110846428Y-128361904D02*
X110846428Y-127561904D01*
X111036905Y-127561904D01*
X111151190Y-127600000D01*
X111227381Y-127676190D01*
X111265476Y-127752380D01*
X111303571Y-127904761D01*
X111303571Y-128019047D01*
X111265476Y-128171428D01*
X111227381Y-128247619D01*
X111151190Y-128323809D01*
X111036905Y-128361904D01*
X110846428Y-128361904D01*
X111608333Y-128133333D02*
X111989286Y-128133333D01*
X111532143Y-128361904D02*
X111798809Y-127561904D01*
X112065476Y-128361904D01*
X112941667Y-127942857D02*
X113208333Y-127942857D01*
X113322619Y-128361904D02*
X112941667Y-128361904D01*
X112941667Y-127561904D01*
X113322619Y-127561904D01*
X110122618Y-130523809D02*
X110236904Y-130561904D01*
X110427380Y-130561904D01*
X110503571Y-130523809D01*
X110541666Y-130485714D01*
X110579761Y-130409523D01*
X110579761Y-130333333D01*
X110541666Y-130257142D01*
X110503571Y-130219047D01*
X110427380Y-130180952D01*
X110274999Y-130142857D01*
X110198809Y-130104761D01*
X110160714Y-130066666D01*
X110122618Y-129990476D01*
X110122618Y-129914285D01*
X110160714Y-129838095D01*
X110198809Y-129800000D01*
X110274999Y-129761904D01*
X110465476Y-129761904D01*
X110579761Y-129800000D01*
X111379761Y-130485714D02*
X111341666Y-130523809D01*
X111227380Y-130561904D01*
X111151190Y-130561904D01*
X111036904Y-130523809D01*
X110960714Y-130447619D01*
X110922618Y-130371428D01*
X110884523Y-130219047D01*
X110884523Y-130104761D01*
X110922618Y-129952380D01*
X110960714Y-129876190D01*
X111036904Y-129800000D01*
X111151190Y-129761904D01*
X111227380Y-129761904D01*
X111341666Y-129800000D01*
X111379761Y-129838095D01*
X112103571Y-130561904D02*
X111722618Y-130561904D01*
X111722618Y-129761904D01*
X113246428Y-130142857D02*
X112979761Y-130142857D01*
X112979761Y-130561904D02*
X112979761Y-129761904D01*
X113360714Y-129761904D01*
X121197381Y-132723809D02*
X121311667Y-132761904D01*
X121502143Y-132761904D01*
X121578333Y-132723809D01*
X121616428Y-132685714D01*
X121654524Y-132609523D01*
X121654524Y-132533333D01*
X121616428Y-132457142D01*
X121578333Y-132419047D01*
X121502143Y-132380952D01*
X121349762Y-132342857D01*
X121273571Y-132304761D01*
X121235476Y-132266666D01*
X121197381Y-132190476D01*
X121197381Y-132114285D01*
X121235476Y-132038095D01*
X121273571Y-132000000D01*
X121349762Y-131961904D01*
X121540238Y-131961904D01*
X121654524Y-132000000D01*
X122454524Y-132685714D02*
X122416428Y-132723809D01*
X122302143Y-132761904D01*
X122225952Y-132761904D01*
X122111667Y-132723809D01*
X122035476Y-132647619D01*
X121997381Y-132571428D01*
X121959286Y-132419047D01*
X121959286Y-132304761D01*
X121997381Y-132152380D01*
X122035476Y-132076190D01*
X122111667Y-132000000D01*
X122225952Y-131961904D01*
X122302143Y-131961904D01*
X122416428Y-132000000D01*
X122454524Y-132038095D01*
X123178333Y-132761904D02*
X122797381Y-132761904D01*
X122797381Y-131961904D01*
X124473571Y-132000000D02*
X124397381Y-131961904D01*
X124283095Y-131961904D01*
X124168809Y-132000000D01*
X124092619Y-132076190D01*
X124054524Y-132152380D01*
X124016428Y-132304761D01*
X124016428Y-132419047D01*
X124054524Y-132571428D01*
X124092619Y-132647619D01*
X124168809Y-132723809D01*
X124283095Y-132761904D01*
X124359286Y-132761904D01*
X124473571Y-132723809D01*
X124511667Y-132685714D01*
X124511667Y-132419047D01*
X124359286Y-132419047D01*
X121197381Y-128323809D02*
X121311666Y-128361904D01*
X121502143Y-128361904D01*
X121578333Y-128323809D01*
X121616428Y-128285714D01*
X121654523Y-128209523D01*
X121654523Y-128133333D01*
X121616428Y-128057142D01*
X121578333Y-128019047D01*
X121502143Y-127980952D01*
X121349762Y-127942857D01*
X121273571Y-127904761D01*
X121235476Y-127866666D01*
X121197381Y-127790476D01*
X121197381Y-127714285D01*
X121235476Y-127638095D01*
X121273571Y-127600000D01*
X121349762Y-127561904D01*
X121540238Y-127561904D01*
X121654523Y-127600000D01*
X122454523Y-128285714D02*
X122416428Y-128323809D01*
X122302143Y-128361904D01*
X122225952Y-128361904D01*
X122111666Y-128323809D01*
X122035476Y-128247619D01*
X121997381Y-128171428D01*
X121959285Y-128019047D01*
X121959285Y-127904761D01*
X121997381Y-127752380D01*
X122035476Y-127676190D01*
X122111666Y-127600000D01*
X122225952Y-127561904D01*
X122302143Y-127561904D01*
X122416428Y-127600000D01*
X122454523Y-127638095D01*
X123178333Y-128361904D02*
X122797381Y-128361904D01*
X122797381Y-127561904D01*
X124054523Y-128361904D02*
X124054523Y-127561904D01*
X124054523Y-127942857D02*
X124511666Y-127942857D01*
X124511666Y-128361904D02*
X124511666Y-127561904D01*
X121197381Y-130523809D02*
X121311666Y-130561904D01*
X121502143Y-130561904D01*
X121578333Y-130523809D01*
X121616428Y-130485714D01*
X121654523Y-130409523D01*
X121654523Y-130333333D01*
X121616428Y-130257142D01*
X121578333Y-130219047D01*
X121502143Y-130180952D01*
X121349762Y-130142857D01*
X121273571Y-130104761D01*
X121235476Y-130066666D01*
X121197381Y-129990476D01*
X121197381Y-129914285D01*
X121235476Y-129838095D01*
X121273571Y-129800000D01*
X121349762Y-129761904D01*
X121540238Y-129761904D01*
X121654523Y-129800000D01*
X121997381Y-130561904D02*
X121997381Y-129761904D01*
X122187857Y-129761904D01*
X122302143Y-129800000D01*
X122378333Y-129876190D01*
X122416428Y-129952380D01*
X122454523Y-130104761D01*
X122454523Y-130219047D01*
X122416428Y-130371428D01*
X122378333Y-130447619D01*
X122302143Y-130523809D01*
X122187857Y-130561904D01*
X121997381Y-130561904D01*
X122759285Y-130333333D02*
X123140238Y-130333333D01*
X122683095Y-130561904D02*
X122949762Y-129761904D01*
X123216428Y-130561904D01*
X124511666Y-129800000D02*
X124435476Y-129761904D01*
X124321190Y-129761904D01*
X124206904Y-129800000D01*
X124130714Y-129876190D01*
X124092619Y-129952380D01*
X124054523Y-130104761D01*
X124054523Y-130219047D01*
X124092619Y-130371428D01*
X124130714Y-130447619D01*
X124206904Y-130523809D01*
X124321190Y-130561904D01*
X124397381Y-130561904D01*
X124511666Y-130523809D01*
X124549762Y-130485714D01*
X124549762Y-130219047D01*
X124397381Y-130219047D01*
X121197380Y-126123809D02*
X121311666Y-126161904D01*
X121502142Y-126161904D01*
X121578333Y-126123809D01*
X121616428Y-126085714D01*
X121654523Y-126009523D01*
X121654523Y-125933333D01*
X121616428Y-125857142D01*
X121578333Y-125819047D01*
X121502142Y-125780952D01*
X121349761Y-125742857D01*
X121273571Y-125704761D01*
X121235476Y-125666666D01*
X121197380Y-125590476D01*
X121197380Y-125514285D01*
X121235476Y-125438095D01*
X121273571Y-125400000D01*
X121349761Y-125361904D01*
X121540238Y-125361904D01*
X121654523Y-125400000D01*
X121997380Y-126161904D02*
X121997380Y-125361904D01*
X122187857Y-125361904D01*
X122302142Y-125400000D01*
X122378333Y-125476190D01*
X122416428Y-125552380D01*
X122454523Y-125704761D01*
X122454523Y-125819047D01*
X122416428Y-125971428D01*
X122378333Y-126047619D01*
X122302142Y-126123809D01*
X122187857Y-126161904D01*
X121997380Y-126161904D01*
X122759285Y-125933333D02*
X123140238Y-125933333D01*
X122683095Y-126161904D02*
X122949761Y-125361904D01*
X123216428Y-126161904D01*
X124092618Y-126161904D02*
X124092618Y-125361904D01*
X124092618Y-125742857D02*
X124549761Y-125742857D01*
X124549761Y-126161904D02*
X124549761Y-125361904D01*
X110084523Y-126123809D02*
X110198809Y-126161904D01*
X110389285Y-126161904D01*
X110465476Y-126123809D01*
X110503571Y-126085714D01*
X110541666Y-126009523D01*
X110541666Y-125933333D01*
X110503571Y-125857142D01*
X110465476Y-125819047D01*
X110389285Y-125780952D01*
X110236904Y-125742857D01*
X110160714Y-125704761D01*
X110122619Y-125666666D01*
X110084523Y-125590476D01*
X110084523Y-125514285D01*
X110122619Y-125438095D01*
X110160714Y-125400000D01*
X110236904Y-125361904D01*
X110427381Y-125361904D01*
X110541666Y-125400000D01*
X111341666Y-126085714D02*
X111303571Y-126123809D01*
X111189285Y-126161904D01*
X111113095Y-126161904D01*
X110998809Y-126123809D01*
X110922619Y-126047619D01*
X110884523Y-125971428D01*
X110846428Y-125819047D01*
X110846428Y-125704761D01*
X110884523Y-125552380D01*
X110922619Y-125476190D01*
X110998809Y-125400000D01*
X111113095Y-125361904D01*
X111189285Y-125361904D01*
X111303571Y-125400000D01*
X111341666Y-125438095D01*
X112065476Y-126161904D02*
X111684523Y-126161904D01*
X111684523Y-125361904D01*
X112941666Y-125742857D02*
X113208333Y-125742857D01*
X113322619Y-126161904D02*
X112941666Y-126161904D01*
X112941666Y-125361904D01*
X113322619Y-125361904D01*
D11*
X90490476Y-121552380D02*
X91061904Y-121552380D01*
X90776190Y-122552380D02*
X90776190Y-121552380D01*
X91585714Y-121552380D02*
X91776190Y-121552380D01*
X91871428Y-121600000D01*
X91966666Y-121695238D01*
X92014285Y-121885714D01*
X92014285Y-122219047D01*
X91966666Y-122409523D01*
X91871428Y-122504761D01*
X91776190Y-122552380D01*
X91585714Y-122552380D01*
X91490476Y-122504761D01*
X91395238Y-122409523D01*
X91347619Y-122219047D01*
X91347619Y-121885714D01*
X91395238Y-121695238D01*
X91490476Y-121600000D01*
X91585714Y-121552380D01*
X92442857Y-122552380D02*
X92442857Y-121552380D01*
X92823809Y-121552380D01*
X92919047Y-121600000D01*
X92966666Y-121647619D01*
X93014285Y-121742857D01*
X93014285Y-121885714D01*
X92966666Y-121980952D01*
X92919047Y-122028571D01*
X92823809Y-122076190D01*
X92442857Y-122076190D01*
D12*
G36*
X95940071Y-122400460D02*
G01*
X95944312Y-122800920D01*
X96007222Y-122713991D01*
X96052999Y-122651756D01*
X96108557Y-122577830D01*
X96170953Y-122495971D01*
X96237241Y-122409933D01*
X96304474Y-122323474D01*
X96369707Y-122240349D01*
X96429995Y-122164316D01*
X96482392Y-122099129D01*
X96523952Y-122048547D01*
X96551730Y-122016324D01*
X96562268Y-122006189D01*
X96584379Y-122003852D01*
X96631697Y-122002518D01*
X96697694Y-122002263D01*
X96775840Y-122003165D01*
X96792090Y-122003485D01*
X97003266Y-122007937D01*
X96698160Y-122388937D01*
X96622041Y-122484310D01*
X96552353Y-122572237D01*
X96491588Y-122649527D01*
X96442237Y-122712986D01*
X96406792Y-122759423D01*
X96387745Y-122785645D01*
X96385249Y-122789825D01*
X96391916Y-122807193D01*
X96414326Y-122847880D01*
X96450579Y-122908809D01*
X96498775Y-122986901D01*
X96557015Y-123079079D01*
X96623399Y-123182266D01*
X96696027Y-123293383D01*
X96696659Y-123294343D01*
X96769457Y-123405060D01*
X96836423Y-123507288D01*
X96895618Y-123598036D01*
X96945101Y-123674311D01*
X96982932Y-123733123D01*
X97007169Y-123771480D01*
X97015872Y-123786391D01*
X97015875Y-123786424D01*
X97000963Y-123789145D01*
X96960083Y-123791421D01*
X96899013Y-123793051D01*
X96823534Y-123793834D01*
X96801236Y-123793875D01*
X96586597Y-123793875D01*
X96476977Y-123623218D01*
X96423540Y-123540043D01*
X96361031Y-123442768D01*
X96297549Y-123343998D01*
X96245505Y-123263041D01*
X96123653Y-123073520D01*
X96030704Y-123175729D01*
X95937756Y-123277937D01*
X95937065Y-123535906D01*
X95936375Y-123793875D01*
X95571250Y-123793875D01*
X95571250Y-122000000D01*
X95935829Y-122000000D01*
X95940071Y-122400460D01*
X95940071Y-122400460D01*
G37*
X95940071Y-122400460D02*
X95944312Y-122800920D01*
X96007222Y-122713991D01*
X96052999Y-122651756D01*
X96108557Y-122577830D01*
X96170953Y-122495971D01*
X96237241Y-122409933D01*
X96304474Y-122323474D01*
X96369707Y-122240349D01*
X96429995Y-122164316D01*
X96482392Y-122099129D01*
X96523952Y-122048547D01*
X96551730Y-122016324D01*
X96562268Y-122006189D01*
X96584379Y-122003852D01*
X96631697Y-122002518D01*
X96697694Y-122002263D01*
X96775840Y-122003165D01*
X96792090Y-122003485D01*
X97003266Y-122007937D01*
X96698160Y-122388937D01*
X96622041Y-122484310D01*
X96552353Y-122572237D01*
X96491588Y-122649527D01*
X96442237Y-122712986D01*
X96406792Y-122759423D01*
X96387745Y-122785645D01*
X96385249Y-122789825D01*
X96391916Y-122807193D01*
X96414326Y-122847880D01*
X96450579Y-122908809D01*
X96498775Y-122986901D01*
X96557015Y-123079079D01*
X96623399Y-123182266D01*
X96696027Y-123293383D01*
X96696659Y-123294343D01*
X96769457Y-123405060D01*
X96836423Y-123507288D01*
X96895618Y-123598036D01*
X96945101Y-123674311D01*
X96982932Y-123733123D01*
X97007169Y-123771480D01*
X97015872Y-123786391D01*
X97015875Y-123786424D01*
X97000963Y-123789145D01*
X96960083Y-123791421D01*
X96899013Y-123793051D01*
X96823534Y-123793834D01*
X96801236Y-123793875D01*
X96586597Y-123793875D01*
X96476977Y-123623218D01*
X96423540Y-123540043D01*
X96361031Y-123442768D01*
X96297549Y-123343998D01*
X96245505Y-123263041D01*
X96123653Y-123073520D01*
X96030704Y-123175729D01*
X95937756Y-123277937D01*
X95937065Y-123535906D01*
X95936375Y-123793875D01*
X95571250Y-123793875D01*
X95571250Y-122000000D01*
X95935829Y-122000000D01*
X95940071Y-122400460D01*
G36*
X97889195Y-122586650D02*
G01*
X98246187Y-123173301D01*
X98250349Y-122586650D01*
X98254511Y-122000000D01*
X98619250Y-122000000D01*
X98619250Y-123794882D01*
X98433304Y-123790410D01*
X98247359Y-123785937D01*
X97547687Y-122638855D01*
X97543523Y-123216365D01*
X97539358Y-123793875D01*
X97158750Y-123793875D01*
X97158750Y-122000000D01*
X97532202Y-122000000D01*
X97889195Y-122586650D01*
X97889195Y-122586650D01*
G37*
X97889195Y-122586650D02*
X98246187Y-123173301D01*
X98250349Y-122586650D01*
X98254511Y-122000000D01*
X98619250Y-122000000D01*
X98619250Y-123794882D01*
X98433304Y-123790410D01*
X98247359Y-123785937D01*
X97547687Y-122638855D01*
X97543523Y-123216365D01*
X97539358Y-123793875D01*
X97158750Y-123793875D01*
X97158750Y-122000000D01*
X97532202Y-122000000D01*
X97889195Y-122586650D01*
G36*
X99034460Y-122000053D02*
G01*
X99246312Y-122000107D01*
X99414936Y-122310482D01*
X99583561Y-122620856D01*
X99749440Y-122314397D01*
X99915319Y-122007937D01*
X100124534Y-122003507D01*
X100201854Y-122002570D01*
X100266271Y-122003122D01*
X100311936Y-122005013D01*
X100332998Y-122008091D01*
X100333750Y-122008908D01*
X100325997Y-122024503D01*
X100304021Y-122064090D01*
X100269744Y-122124322D01*
X100225089Y-122201854D01*
X100171979Y-122293340D01*
X100112337Y-122395434D01*
X100078647Y-122452852D01*
X100006664Y-122575810D01*
X99949650Y-122674475D01*
X99906139Y-122751718D01*
X99874661Y-122810410D01*
X99853752Y-122853423D01*
X99841943Y-122883626D01*
X99837767Y-122903893D01*
X99839758Y-122917094D01*
X99840574Y-122918787D01*
X99852740Y-122940094D01*
X99878955Y-122985043D01*
X99917066Y-123049974D01*
X99964917Y-123131225D01*
X100020355Y-123225136D01*
X100081226Y-123328044D01*
X100103615Y-123365847D01*
X100164924Y-123469531D01*
X100220655Y-123564172D01*
X100268836Y-123646389D01*
X100307495Y-123712801D01*
X100334660Y-123760029D01*
X100348358Y-123784692D01*
X100349625Y-123787479D01*
X100334722Y-123789835D01*
X100293904Y-123791800D01*
X100233003Y-123793197D01*
X100157854Y-123793849D01*
X100138908Y-123793875D01*
X99928192Y-123793875D01*
X99769814Y-123505778D01*
X99721313Y-123417884D01*
X99677255Y-123338670D01*
X99640185Y-123272660D01*
X99612647Y-123224377D01*
X99597184Y-123198346D01*
X99595555Y-123195915D01*
X99586147Y-123195550D01*
X99569283Y-123212820D01*
X99543522Y-123249939D01*
X99507426Y-123309124D01*
X99459552Y-123392591D01*
X99410865Y-123480043D01*
X99242055Y-123785937D01*
X99023774Y-123790368D01*
X98805493Y-123794798D01*
X98828858Y-123758618D01*
X98856228Y-123714904D01*
X98894028Y-123652644D01*
X98939925Y-123575855D01*
X98991585Y-123488553D01*
X99046674Y-123394756D01*
X99102858Y-123298479D01*
X99157803Y-123203741D01*
X99209175Y-123114556D01*
X99254641Y-123034943D01*
X99291867Y-122968917D01*
X99318519Y-122920496D01*
X99332262Y-122893696D01*
X99333625Y-122889875D01*
X99325860Y-122871605D01*
X99303986Y-122829860D01*
X99270130Y-122768448D01*
X99226421Y-122691178D01*
X99174986Y-122601857D01*
X99121830Y-122510879D01*
X99062376Y-122409762D01*
X99005911Y-122313650D01*
X98955155Y-122227181D01*
X98912830Y-122154993D01*
X98881657Y-122101724D01*
X98866321Y-122075406D01*
X98822608Y-122000000D01*
X99034460Y-122000053D01*
X99034460Y-122000053D01*
G37*
X99034460Y-122000053D02*
X99246312Y-122000107D01*
X99414936Y-122310482D01*
X99583561Y-122620856D01*
X99749440Y-122314397D01*
X99915319Y-122007937D01*
X100124534Y-122003507D01*
X100201854Y-122002570D01*
X100266271Y-122003122D01*
X100311936Y-122005013D01*
X100332998Y-122008091D01*
X100333750Y-122008908D01*
X100325997Y-122024503D01*
X100304021Y-122064090D01*
X100269744Y-122124322D01*
X100225089Y-122201854D01*
X100171979Y-122293340D01*
X100112337Y-122395434D01*
X100078647Y-122452852D01*
X100006664Y-122575810D01*
X99949650Y-122674475D01*
X99906139Y-122751718D01*
X99874661Y-122810410D01*
X99853752Y-122853423D01*
X99841943Y-122883626D01*
X99837767Y-122903893D01*
X99839758Y-122917094D01*
X99840574Y-122918787D01*
X99852740Y-122940094D01*
X99878955Y-122985043D01*
X99917066Y-123049974D01*
X99964917Y-123131225D01*
X100020355Y-123225136D01*
X100081226Y-123328044D01*
X100103615Y-123365847D01*
X100164924Y-123469531D01*
X100220655Y-123564172D01*
X100268836Y-123646389D01*
X100307495Y-123712801D01*
X100334660Y-123760029D01*
X100348358Y-123784692D01*
X100349625Y-123787479D01*
X100334722Y-123789835D01*
X100293904Y-123791800D01*
X100233003Y-123793197D01*
X100157854Y-123793849D01*
X100138908Y-123793875D01*
X99928192Y-123793875D01*
X99769814Y-123505778D01*
X99721313Y-123417884D01*
X99677255Y-123338670D01*
X99640185Y-123272660D01*
X99612647Y-123224377D01*
X99597184Y-123198346D01*
X99595555Y-123195915D01*
X99586147Y-123195550D01*
X99569283Y-123212820D01*
X99543522Y-123249939D01*
X99507426Y-123309124D01*
X99459552Y-123392591D01*
X99410865Y-123480043D01*
X99242055Y-123785937D01*
X99023774Y-123790368D01*
X98805493Y-123794798D01*
X98828858Y-123758618D01*
X98856228Y-123714904D01*
X98894028Y-123652644D01*
X98939925Y-123575855D01*
X98991585Y-123488553D01*
X99046674Y-123394756D01*
X99102858Y-123298479D01*
X99157803Y-123203741D01*
X99209175Y-123114556D01*
X99254641Y-123034943D01*
X99291867Y-122968917D01*
X99318519Y-122920496D01*
X99332262Y-122893696D01*
X99333625Y-122889875D01*
X99325860Y-122871605D01*
X99303986Y-122829860D01*
X99270130Y-122768448D01*
X99226421Y-122691178D01*
X99174986Y-122601857D01*
X99121830Y-122510879D01*
X99062376Y-122409762D01*
X99005911Y-122313650D01*
X98955155Y-122227181D01*
X98912830Y-122154993D01*
X98881657Y-122101724D01*
X98866321Y-122075406D01*
X98822608Y-122000000D01*
X99034460Y-122000053D01*
G36*
X94827582Y-122020122D02*
G01*
X94849657Y-122036947D01*
X94863056Y-122072472D01*
X94871618Y-122132819D01*
X94872582Y-122142875D01*
X94878570Y-122193206D01*
X94887537Y-122220044D01*
X94904043Y-122231605D01*
X94923773Y-122235155D01*
X94969313Y-122254196D01*
X95010914Y-122293963D01*
X95039644Y-122343829D01*
X95047375Y-122382218D01*
X95049016Y-122409031D01*
X95059224Y-122422814D01*
X95085920Y-122427901D01*
X95132227Y-122428625D01*
X95203911Y-122437086D01*
X95249218Y-122462725D01*
X95268713Y-122505917D01*
X95269625Y-122520597D01*
X95256667Y-122555818D01*
X95217000Y-122577762D01*
X95149436Y-122586989D01*
X95127793Y-122587375D01*
X95080297Y-122588623D01*
X95056458Y-122595023D01*
X95048205Y-122610558D01*
X95047375Y-122627062D01*
X95049681Y-122649904D01*
X95061812Y-122661730D01*
X95091584Y-122666141D01*
X95133553Y-122666750D01*
X95205823Y-122674370D01*
X95250800Y-122697474D01*
X95269108Y-122736427D01*
X95269625Y-122746125D01*
X95256561Y-122788282D01*
X95216954Y-122814519D01*
X95150177Y-122825198D01*
X95133553Y-122825500D01*
X95083495Y-122826914D01*
X95057568Y-122833016D01*
X95048206Y-122846592D01*
X95047375Y-122857250D01*
X95052389Y-122877564D01*
X95072897Y-122886931D01*
X95114843Y-122889234D01*
X95186192Y-122897614D01*
X95237682Y-122920631D01*
X95264623Y-122955924D01*
X95266874Y-122965677D01*
X95264369Y-123006606D01*
X95240526Y-123032419D01*
X95192010Y-123045285D01*
X95140681Y-123047750D01*
X95088564Y-123048631D01*
X95060660Y-123053412D01*
X95049440Y-123065295D01*
X95047375Y-123087437D01*
X95049681Y-123110279D01*
X95061812Y-123122105D01*
X95091584Y-123126516D01*
X95133553Y-123127125D01*
X95205823Y-123134745D01*
X95250800Y-123157849D01*
X95269108Y-123196802D01*
X95269625Y-123206500D01*
X95256561Y-123248657D01*
X95216954Y-123274894D01*
X95150177Y-123285573D01*
X95133553Y-123285875D01*
X95083616Y-123287221D01*
X95057749Y-123293208D01*
X95048320Y-123306755D01*
X95047375Y-123318846D01*
X95034252Y-123356873D01*
X95001633Y-123396820D01*
X94959635Y-123429168D01*
X94918380Y-123444398D01*
X94913658Y-123444625D01*
X94890962Y-123446504D01*
X94878729Y-123457127D01*
X94873733Y-123483973D01*
X94872751Y-123534521D01*
X94872750Y-123539509D01*
X94871144Y-123594543D01*
X94864176Y-123627726D01*
X94848620Y-123648885D01*
X94833062Y-123660397D01*
X94801991Y-123677194D01*
X94777561Y-123674477D01*
X94753687Y-123660397D01*
X94731108Y-123641764D01*
X94719138Y-123617262D01*
X94714551Y-123577066D01*
X94714000Y-123539509D01*
X94713152Y-123486846D01*
X94708525Y-123458457D01*
X94696995Y-123446874D01*
X94675439Y-123444626D01*
X94674312Y-123444625D01*
X94653005Y-123446426D01*
X94641122Y-123456604D01*
X94635919Y-123482321D01*
X94634649Y-123530738D01*
X94634625Y-123548152D01*
X94633483Y-123604994D01*
X94628300Y-123638556D01*
X94616443Y-123657279D01*
X94596945Y-123668848D01*
X94553631Y-123677553D01*
X94525508Y-123667949D01*
X94506828Y-123653614D01*
X94496568Y-123630310D01*
X94492361Y-123589578D01*
X94491750Y-123547253D01*
X94491045Y-123491970D01*
X94487076Y-123461241D01*
X94477062Y-123447874D01*
X94458222Y-123444677D01*
X94452062Y-123444625D01*
X94429332Y-123446891D01*
X94417497Y-123458870D01*
X94413025Y-123488331D01*
X94412375Y-123531937D01*
X94408716Y-123592057D01*
X94395946Y-123631179D01*
X94380625Y-123651000D01*
X94338519Y-123679998D01*
X94302548Y-123679474D01*
X94274963Y-123651418D01*
X94258014Y-123597819D01*
X94253625Y-123538741D01*
X94252760Y-123486343D01*
X94248059Y-123458190D01*
X94236360Y-123446783D01*
X94214501Y-123444625D01*
X94213937Y-123444625D01*
X94191207Y-123446891D01*
X94179372Y-123458870D01*
X94174900Y-123488331D01*
X94174250Y-123531937D01*
X94166546Y-123599529D01*
X94145875Y-123648970D01*
X94115902Y-123676894D01*
X94080286Y-123679935D01*
X94042693Y-123654725D01*
X94041772Y-123653718D01*
X94023031Y-123614593D01*
X94015673Y-123549503D01*
X94015500Y-123534656D01*
X94014160Y-123483162D01*
X94008448Y-123455980D01*
X93995818Y-123445726D01*
X93984496Y-123444625D01*
X93921707Y-123429709D01*
X93870534Y-123387843D01*
X93845787Y-123346840D01*
X93828074Y-123310891D01*
X93809086Y-123292868D01*
X93777876Y-123286592D01*
X93737807Y-123285875D01*
X93674900Y-123280863D01*
X93637546Y-123263568D01*
X93620818Y-123230601D01*
X93618625Y-123203883D01*
X93628933Y-123163856D01*
X93661824Y-123139159D01*
X93720240Y-123128105D01*
X93752518Y-123127125D01*
X93797007Y-123125534D01*
X93818241Y-123117677D01*
X93824676Y-123098925D01*
X93825000Y-123087437D01*
X93822369Y-123063738D01*
X93809024Y-123052007D01*
X93776783Y-123048085D01*
X93746923Y-123047750D01*
X93682747Y-123045458D01*
X93644051Y-123036258D01*
X93624750Y-123016663D01*
X93618761Y-122983185D01*
X93618625Y-122974221D01*
X93627768Y-122931572D01*
X93657560Y-122904644D01*
X93711545Y-122891338D01*
X93762533Y-122889000D01*
X93803663Y-122886242D01*
X93821655Y-122875142D01*
X93825000Y-122857250D01*
X93821064Y-122838634D01*
X93804170Y-122829094D01*
X93766682Y-122825750D01*
X93740862Y-122825500D01*
X93676796Y-122820668D01*
X93638465Y-122804085D01*
X93621046Y-122772620D01*
X93618625Y-122746125D01*
X93626065Y-122704523D01*
X93651602Y-122679633D01*
X93700059Y-122668322D01*
X93740862Y-122666750D01*
X93789723Y-122665626D01*
X93814755Y-122659771D01*
X93823863Y-122645454D01*
X93825000Y-122627062D01*
X93822618Y-122604014D01*
X93810204Y-122592207D01*
X93779852Y-122587910D01*
X93740862Y-122587375D01*
X93677058Y-122582637D01*
X93638884Y-122566189D01*
X93621338Y-122534676D01*
X93618625Y-122505383D01*
X93628933Y-122465356D01*
X93661824Y-122440659D01*
X93720240Y-122429605D01*
X93752518Y-122428625D01*
X93797202Y-122426850D01*
X93818537Y-122418795D01*
X93824849Y-122400357D01*
X93825059Y-122392906D01*
X93839742Y-122332889D01*
X93878540Y-122280215D01*
X93933876Y-122244164D01*
X93951275Y-122238319D01*
X94015500Y-122221026D01*
X94015500Y-122137500D01*
X94020290Y-122073875D01*
X94036903Y-122035864D01*
X94068700Y-122018481D01*
X94097491Y-122015875D01*
X94137518Y-122026183D01*
X94162215Y-122059074D01*
X94173269Y-122117490D01*
X94174250Y-122149768D01*
X94176426Y-122195107D01*
X94185091Y-122216666D01*
X94203451Y-122222247D01*
X94204034Y-122222250D01*
X94221835Y-122216956D01*
X94232627Y-122196359D01*
X94239371Y-122153381D01*
X94241180Y-122133476D01*
X94250785Y-122071061D01*
X94269440Y-122034504D01*
X94301099Y-122018322D01*
X94325856Y-122016118D01*
X94363534Y-122024958D01*
X94386081Y-122054750D01*
X94395741Y-122109371D01*
X94396500Y-122138112D01*
X94397623Y-122186973D01*
X94403478Y-122212005D01*
X94417795Y-122221113D01*
X94436187Y-122222250D01*
X94460547Y-122219345D01*
X94472174Y-122204996D01*
X94475697Y-122170749D01*
X94475875Y-122149768D01*
X94481784Y-122079946D01*
X94500640Y-122036867D01*
X94534128Y-122017585D01*
X94552633Y-122015875D01*
X94595430Y-122022937D01*
X94621035Y-122047459D01*
X94632804Y-122094441D01*
X94634625Y-122138112D01*
X94635748Y-122186973D01*
X94641603Y-122212005D01*
X94655920Y-122221113D01*
X94674312Y-122222250D01*
X94698672Y-122219345D01*
X94710299Y-122204996D01*
X94713822Y-122170749D01*
X94713999Y-122149768D01*
X94719693Y-122080461D01*
X94738094Y-122037677D01*
X94771186Y-122018054D01*
X94792996Y-122015875D01*
X94827582Y-122020122D01*
X94827582Y-122020122D01*
G37*
X94827582Y-122020122D02*
X94849657Y-122036947D01*
X94863056Y-122072472D01*
X94871618Y-122132819D01*
X94872582Y-122142875D01*
X94878570Y-122193206D01*
X94887537Y-122220044D01*
X94904043Y-122231605D01*
X94923773Y-122235155D01*
X94969313Y-122254196D01*
X95010914Y-122293963D01*
X95039644Y-122343829D01*
X95047375Y-122382218D01*
X95049016Y-122409031D01*
X95059224Y-122422814D01*
X95085920Y-122427901D01*
X95132227Y-122428625D01*
X95203911Y-122437086D01*
X95249218Y-122462725D01*
X95268713Y-122505917D01*
X95269625Y-122520597D01*
X95256667Y-122555818D01*
X95217000Y-122577762D01*
X95149436Y-122586989D01*
X95127793Y-122587375D01*
X95080297Y-122588623D01*
X95056458Y-122595023D01*
X95048205Y-122610558D01*
X95047375Y-122627062D01*
X95049681Y-122649904D01*
X95061812Y-122661730D01*
X95091584Y-122666141D01*
X95133553Y-122666750D01*
X95205823Y-122674370D01*
X95250800Y-122697474D01*
X95269108Y-122736427D01*
X95269625Y-122746125D01*
X95256561Y-122788282D01*
X95216954Y-122814519D01*
X95150177Y-122825198D01*
X95133553Y-122825500D01*
X95083495Y-122826914D01*
X95057568Y-122833016D01*
X95048206Y-122846592D01*
X95047375Y-122857250D01*
X95052389Y-122877564D01*
X95072897Y-122886931D01*
X95114843Y-122889234D01*
X95186192Y-122897614D01*
X95237682Y-122920631D01*
X95264623Y-122955924D01*
X95266874Y-122965677D01*
X95264369Y-123006606D01*
X95240526Y-123032419D01*
X95192010Y-123045285D01*
X95140681Y-123047750D01*
X95088564Y-123048631D01*
X95060660Y-123053412D01*
X95049440Y-123065295D01*
X95047375Y-123087437D01*
X95049681Y-123110279D01*
X95061812Y-123122105D01*
X95091584Y-123126516D01*
X95133553Y-123127125D01*
X95205823Y-123134745D01*
X95250800Y-123157849D01*
X95269108Y-123196802D01*
X95269625Y-123206500D01*
X95256561Y-123248657D01*
X95216954Y-123274894D01*
X95150177Y-123285573D01*
X95133553Y-123285875D01*
X95083616Y-123287221D01*
X95057749Y-123293208D01*
X95048320Y-123306755D01*
X95047375Y-123318846D01*
X95034252Y-123356873D01*
X95001633Y-123396820D01*
X94959635Y-123429168D01*
X94918380Y-123444398D01*
X94913658Y-123444625D01*
X94890962Y-123446504D01*
X94878729Y-123457127D01*
X94873733Y-123483973D01*
X94872751Y-123534521D01*
X94872750Y-123539509D01*
X94871144Y-123594543D01*
X94864176Y-123627726D01*
X94848620Y-123648885D01*
X94833062Y-123660397D01*
X94801991Y-123677194D01*
X94777561Y-123674477D01*
X94753687Y-123660397D01*
X94731108Y-123641764D01*
X94719138Y-123617262D01*
X94714551Y-123577066D01*
X94714000Y-123539509D01*
X94713152Y-123486846D01*
X94708525Y-123458457D01*
X94696995Y-123446874D01*
X94675439Y-123444626D01*
X94674312Y-123444625D01*
X94653005Y-123446426D01*
X94641122Y-123456604D01*
X94635919Y-123482321D01*
X94634649Y-123530738D01*
X94634625Y-123548152D01*
X94633483Y-123604994D01*
X94628300Y-123638556D01*
X94616443Y-123657279D01*
X94596945Y-123668848D01*
X94553631Y-123677553D01*
X94525508Y-123667949D01*
X94506828Y-123653614D01*
X94496568Y-123630310D01*
X94492361Y-123589578D01*
X94491750Y-123547253D01*
X94491045Y-123491970D01*
X94487076Y-123461241D01*
X94477062Y-123447874D01*
X94458222Y-123444677D01*
X94452062Y-123444625D01*
X94429332Y-123446891D01*
X94417497Y-123458870D01*
X94413025Y-123488331D01*
X94412375Y-123531937D01*
X94408716Y-123592057D01*
X94395946Y-123631179D01*
X94380625Y-123651000D01*
X94338519Y-123679998D01*
X94302548Y-123679474D01*
X94274963Y-123651418D01*
X94258014Y-123597819D01*
X94253625Y-123538741D01*
X94252760Y-123486343D01*
X94248059Y-123458190D01*
X94236360Y-123446783D01*
X94214501Y-123444625D01*
X94213937Y-123444625D01*
X94191207Y-123446891D01*
X94179372Y-123458870D01*
X94174900Y-123488331D01*
X94174250Y-123531937D01*
X94166546Y-123599529D01*
X94145875Y-123648970D01*
X94115902Y-123676894D01*
X94080286Y-123679935D01*
X94042693Y-123654725D01*
X94041772Y-123653718D01*
X94023031Y-123614593D01*
X94015673Y-123549503D01*
X94015500Y-123534656D01*
X94014160Y-123483162D01*
X94008448Y-123455980D01*
X93995818Y-123445726D01*
X93984496Y-123444625D01*
X93921707Y-123429709D01*
X93870534Y-123387843D01*
X93845787Y-123346840D01*
X93828074Y-123310891D01*
X93809086Y-123292868D01*
X93777876Y-123286592D01*
X93737807Y-123285875D01*
X93674900Y-123280863D01*
X93637546Y-123263568D01*
X93620818Y-123230601D01*
X93618625Y-123203883D01*
X93628933Y-123163856D01*
X93661824Y-123139159D01*
X93720240Y-123128105D01*
X93752518Y-123127125D01*
X93797007Y-123125534D01*
X93818241Y-123117677D01*
X93824676Y-123098925D01*
X93825000Y-123087437D01*
X93822369Y-123063738D01*
X93809024Y-123052007D01*
X93776783Y-123048085D01*
X93746923Y-123047750D01*
X93682747Y-123045458D01*
X93644051Y-123036258D01*
X93624750Y-123016663D01*
X93618761Y-122983185D01*
X93618625Y-122974221D01*
X93627768Y-122931572D01*
X93657560Y-122904644D01*
X93711545Y-122891338D01*
X93762533Y-122889000D01*
X93803663Y-122886242D01*
X93821655Y-122875142D01*
X93825000Y-122857250D01*
X93821064Y-122838634D01*
X93804170Y-122829094D01*
X93766682Y-122825750D01*
X93740862Y-122825500D01*
X93676796Y-122820668D01*
X93638465Y-122804085D01*
X93621046Y-122772620D01*
X93618625Y-122746125D01*
X93626065Y-122704523D01*
X93651602Y-122679633D01*
X93700059Y-122668322D01*
X93740862Y-122666750D01*
X93789723Y-122665626D01*
X93814755Y-122659771D01*
X93823863Y-122645454D01*
X93825000Y-122627062D01*
X93822618Y-122604014D01*
X93810204Y-122592207D01*
X93779852Y-122587910D01*
X93740862Y-122587375D01*
X93677058Y-122582637D01*
X93638884Y-122566189D01*
X93621338Y-122534676D01*
X93618625Y-122505383D01*
X93628933Y-122465356D01*
X93661824Y-122440659D01*
X93720240Y-122429605D01*
X93752518Y-122428625D01*
X93797202Y-122426850D01*
X93818537Y-122418795D01*
X93824849Y-122400357D01*
X93825059Y-122392906D01*
X93839742Y-122332889D01*
X93878540Y-122280215D01*
X93933876Y-122244164D01*
X93951275Y-122238319D01*
X94015500Y-122221026D01*
X94015500Y-122137500D01*
X94020290Y-122073875D01*
X94036903Y-122035864D01*
X94068700Y-122018481D01*
X94097491Y-122015875D01*
X94137518Y-122026183D01*
X94162215Y-122059074D01*
X94173269Y-122117490D01*
X94174250Y-122149768D01*
X94176426Y-122195107D01*
X94185091Y-122216666D01*
X94203451Y-122222247D01*
X94204034Y-122222250D01*
X94221835Y-122216956D01*
X94232627Y-122196359D01*
X94239371Y-122153381D01*
X94241180Y-122133476D01*
X94250785Y-122071061D01*
X94269440Y-122034504D01*
X94301099Y-122018322D01*
X94325856Y-122016118D01*
X94363534Y-122024958D01*
X94386081Y-122054750D01*
X94395741Y-122109371D01*
X94396500Y-122138112D01*
X94397623Y-122186973D01*
X94403478Y-122212005D01*
X94417795Y-122221113D01*
X94436187Y-122222250D01*
X94460547Y-122219345D01*
X94472174Y-122204996D01*
X94475697Y-122170749D01*
X94475875Y-122149768D01*
X94481784Y-122079946D01*
X94500640Y-122036867D01*
X94534128Y-122017585D01*
X94552633Y-122015875D01*
X94595430Y-122022937D01*
X94621035Y-122047459D01*
X94632804Y-122094441D01*
X94634625Y-122138112D01*
X94635748Y-122186973D01*
X94641603Y-122212005D01*
X94655920Y-122221113D01*
X94674312Y-122222250D01*
X94698672Y-122219345D01*
X94710299Y-122204996D01*
X94713822Y-122170749D01*
X94713999Y-122149768D01*
X94719693Y-122080461D01*
X94738094Y-122037677D01*
X94771186Y-122018054D01*
X94792996Y-122015875D01*
X94827582Y-122020122D01*
G36*
X99341854Y-121248961D02*
G01*
X99351882Y-121262329D01*
X99357676Y-121292489D01*
X99361143Y-121345887D01*
X99362074Y-121368968D01*
X99366710Y-121492000D01*
X99854992Y-121492000D01*
X100004875Y-121492372D01*
X100125263Y-121493547D01*
X100218405Y-121495607D01*
X100286548Y-121498638D01*
X100331941Y-121502724D01*
X100356832Y-121507950D01*
X100362324Y-121511049D01*
X100379348Y-121547316D01*
X100376814Y-121590342D01*
X100362324Y-121615825D01*
X100352950Y-121618272D01*
X100329212Y-121620519D01*
X100290043Y-121622572D01*
X100234373Y-121624439D01*
X100161136Y-121626126D01*
X100069260Y-121627640D01*
X99957680Y-121628988D01*
X99825324Y-121630178D01*
X99671126Y-121631215D01*
X99494015Y-121632107D01*
X99292925Y-121632862D01*
X99066785Y-121633484D01*
X98814528Y-121633983D01*
X98535085Y-121634364D01*
X98227387Y-121634634D01*
X97890366Y-121634801D01*
X97522953Y-121634871D01*
X97418130Y-121634875D01*
X94492986Y-121634875D01*
X94488399Y-121773781D01*
X94485622Y-121840629D01*
X94481511Y-121882121D01*
X94474304Y-121904646D01*
X94462239Y-121914594D01*
X94448726Y-121917677D01*
X94431916Y-121918322D01*
X94421265Y-121910488D01*
X94415031Y-121888255D01*
X94411472Y-121845702D01*
X94409039Y-121782739D01*
X94404437Y-121642812D01*
X94135711Y-121638447D01*
X94030061Y-121635705D01*
X93945068Y-121631379D01*
X93884072Y-121625721D01*
X93850417Y-121618982D01*
X93845992Y-121616659D01*
X93827919Y-121583944D01*
X93828050Y-121542193D01*
X93844049Y-121511050D01*
X93853556Y-121508510D01*
X93877514Y-121506187D01*
X93917031Y-121504072D01*
X93973218Y-121502158D01*
X94047181Y-121500437D01*
X94140030Y-121498900D01*
X94252872Y-121497541D01*
X94386816Y-121496352D01*
X94542971Y-121495325D01*
X94722445Y-121494452D01*
X94926346Y-121493725D01*
X95155783Y-121493137D01*
X95411864Y-121492680D01*
X95695698Y-121492346D01*
X96008392Y-121492128D01*
X96351056Y-121492017D01*
X96573882Y-121492000D01*
X99284664Y-121492000D01*
X99289300Y-121368968D01*
X99292425Y-121306761D01*
X99297266Y-121269857D01*
X99305729Y-121251809D01*
X99319722Y-121246173D01*
X99325687Y-121245937D01*
X99341854Y-121248961D01*
X99341854Y-121248961D01*
G37*
X99341854Y-121248961D02*
X99351882Y-121262329D01*
X99357676Y-121292489D01*
X99361143Y-121345887D01*
X99362074Y-121368968D01*
X99366710Y-121492000D01*
X99854992Y-121492000D01*
X100004875Y-121492372D01*
X100125263Y-121493547D01*
X100218405Y-121495607D01*
X100286548Y-121498638D01*
X100331941Y-121502724D01*
X100356832Y-121507950D01*
X100362324Y-121511049D01*
X100379348Y-121547316D01*
X100376814Y-121590342D01*
X100362324Y-121615825D01*
X100352950Y-121618272D01*
X100329212Y-121620519D01*
X100290043Y-121622572D01*
X100234373Y-121624439D01*
X100161136Y-121626126D01*
X100069260Y-121627640D01*
X99957680Y-121628988D01*
X99825324Y-121630178D01*
X99671126Y-121631215D01*
X99494015Y-121632107D01*
X99292925Y-121632862D01*
X99066785Y-121633484D01*
X98814528Y-121633983D01*
X98535085Y-121634364D01*
X98227387Y-121634634D01*
X97890366Y-121634801D01*
X97522953Y-121634871D01*
X97418130Y-121634875D01*
X94492986Y-121634875D01*
X94488399Y-121773781D01*
X94485622Y-121840629D01*
X94481511Y-121882121D01*
X94474304Y-121904646D01*
X94462239Y-121914594D01*
X94448726Y-121917677D01*
X94431916Y-121918322D01*
X94421265Y-121910488D01*
X94415031Y-121888255D01*
X94411472Y-121845702D01*
X94409039Y-121782739D01*
X94404437Y-121642812D01*
X94135711Y-121638447D01*
X94030061Y-121635705D01*
X93945068Y-121631379D01*
X93884072Y-121625721D01*
X93850417Y-121618982D01*
X93845992Y-121616659D01*
X93827919Y-121583944D01*
X93828050Y-121542193D01*
X93844049Y-121511050D01*
X93853556Y-121508510D01*
X93877514Y-121506187D01*
X93917031Y-121504072D01*
X93973218Y-121502158D01*
X94047181Y-121500437D01*
X94140030Y-121498900D01*
X94252872Y-121497541D01*
X94386816Y-121496352D01*
X94542971Y-121495325D01*
X94722445Y-121494452D01*
X94926346Y-121493725D01*
X95155783Y-121493137D01*
X95411864Y-121492680D01*
X95695698Y-121492346D01*
X96008392Y-121492128D01*
X96351056Y-121492017D01*
X96573882Y-121492000D01*
X99284664Y-121492000D01*
X99289300Y-121368968D01*
X99292425Y-121306761D01*
X99297266Y-121269857D01*
X99305729Y-121251809D01*
X99319722Y-121246173D01*
X99325687Y-121245937D01*
X99341854Y-121248961D01*
G36*
X95900689Y-120085072D02*
G01*
X95997845Y-120133439D01*
X96081768Y-120205635D01*
X96147726Y-120299810D01*
X96162549Y-120330363D01*
X96182612Y-120403852D01*
X96188695Y-120492867D01*
X96181209Y-120584634D01*
X96160563Y-120666378D01*
X96151029Y-120688779D01*
X96088760Y-120783300D01*
X96007272Y-120856032D01*
X95911696Y-120905553D01*
X95807166Y-120930445D01*
X95698815Y-120929288D01*
X95591776Y-120900663D01*
X95519996Y-120863277D01*
X95482416Y-120840229D01*
X95457094Y-120826721D01*
X95452527Y-120825250D01*
X95449950Y-120840312D01*
X95447699Y-120882247D01*
X95445910Y-120946181D01*
X95444716Y-121027237D01*
X95444251Y-121120539D01*
X95444250Y-121126875D01*
X95444250Y-121428500D01*
X95317250Y-121428500D01*
X95317250Y-120517213D01*
X95451561Y-120517213D01*
X95471007Y-120604820D01*
X95515750Y-120683141D01*
X95582579Y-120746763D01*
X95668288Y-120790272D01*
X95678629Y-120793568D01*
X95740345Y-120806391D01*
X95799586Y-120803254D01*
X95845527Y-120792545D01*
X95925240Y-120755489D01*
X95988677Y-120696903D01*
X96033718Y-120623058D01*
X96058241Y-120540228D01*
X96060122Y-120454686D01*
X96037240Y-120372704D01*
X96005193Y-120320593D01*
X95933289Y-120251848D01*
X95852006Y-120209713D01*
X95766446Y-120193203D01*
X95681711Y-120201333D01*
X95602905Y-120233118D01*
X95535129Y-120287572D01*
X95483486Y-120363711D01*
X95460618Y-120425734D01*
X95451561Y-120517213D01*
X95317250Y-120517213D01*
X95317250Y-120079125D01*
X95380750Y-120079125D01*
X95421466Y-120081005D01*
X95439566Y-120091197D01*
X95444149Y-120116523D01*
X95444250Y-120126750D01*
X95450267Y-120162996D01*
X95465290Y-120174250D01*
X95484771Y-120157149D01*
X95484945Y-120156868D01*
X95504496Y-120140890D01*
X95543417Y-120118238D01*
X95577164Y-120101461D01*
X95685615Y-120067232D01*
X95795035Y-120062386D01*
X95900689Y-120085072D01*
X95900689Y-120085072D01*
G37*
X95900689Y-120085072D02*
X95997845Y-120133439D01*
X96081768Y-120205635D01*
X96147726Y-120299810D01*
X96162549Y-120330363D01*
X96182612Y-120403852D01*
X96188695Y-120492867D01*
X96181209Y-120584634D01*
X96160563Y-120666378D01*
X96151029Y-120688779D01*
X96088760Y-120783300D01*
X96007272Y-120856032D01*
X95911696Y-120905553D01*
X95807166Y-120930445D01*
X95698815Y-120929288D01*
X95591776Y-120900663D01*
X95519996Y-120863277D01*
X95482416Y-120840229D01*
X95457094Y-120826721D01*
X95452527Y-120825250D01*
X95449950Y-120840312D01*
X95447699Y-120882247D01*
X95445910Y-120946181D01*
X95444716Y-121027237D01*
X95444251Y-121120539D01*
X95444250Y-121126875D01*
X95444250Y-121428500D01*
X95317250Y-121428500D01*
X95317250Y-120517213D01*
X95451561Y-120517213D01*
X95471007Y-120604820D01*
X95515750Y-120683141D01*
X95582579Y-120746763D01*
X95668288Y-120790272D01*
X95678629Y-120793568D01*
X95740345Y-120806391D01*
X95799586Y-120803254D01*
X95845527Y-120792545D01*
X95925240Y-120755489D01*
X95988677Y-120696903D01*
X96033718Y-120623058D01*
X96058241Y-120540228D01*
X96060122Y-120454686D01*
X96037240Y-120372704D01*
X96005193Y-120320593D01*
X95933289Y-120251848D01*
X95852006Y-120209713D01*
X95766446Y-120193203D01*
X95681711Y-120201333D01*
X95602905Y-120233118D01*
X95535129Y-120287572D01*
X95483486Y-120363711D01*
X95460618Y-120425734D01*
X95451561Y-120517213D01*
X95317250Y-120517213D01*
X95317250Y-120079125D01*
X95380750Y-120079125D01*
X95421466Y-120081005D01*
X95439566Y-120091197D01*
X95444149Y-120116523D01*
X95444250Y-120126750D01*
X95450267Y-120162996D01*
X95465290Y-120174250D01*
X95484771Y-120157149D01*
X95484945Y-120156868D01*
X95504496Y-120140890D01*
X95543417Y-120118238D01*
X95577164Y-120101461D01*
X95685615Y-120067232D01*
X95795035Y-120062386D01*
X95900689Y-120085072D01*
G36*
X99474876Y-119580025D02*
G01*
X99497624Y-119609429D01*
X99507424Y-119663388D01*
X99508250Y-119693362D01*
X99509373Y-119742223D01*
X99515228Y-119767255D01*
X99529545Y-119776363D01*
X99547937Y-119777500D01*
X99572297Y-119774595D01*
X99583924Y-119760246D01*
X99587447Y-119725999D01*
X99587625Y-119705018D01*
X99594428Y-119633559D01*
X99614367Y-119588466D01*
X99646732Y-119571255D01*
X99650385Y-119571125D01*
X99692797Y-119575359D01*
X99717168Y-119592370D01*
X99728169Y-119628618D01*
X99730500Y-119681964D01*
X99731330Y-119733599D01*
X99736653Y-119761982D01*
X99750712Y-119775609D01*
X99777754Y-119782978D01*
X99781330Y-119783697D01*
X99847071Y-119811810D01*
X99893947Y-119863026D01*
X99915391Y-119923424D01*
X99925057Y-119983875D01*
X100007166Y-119983875D01*
X100071723Y-119989275D01*
X100110100Y-120007041D01*
X100126245Y-120039518D01*
X100127375Y-120055312D01*
X100118474Y-120093376D01*
X100089070Y-120116124D01*
X100035111Y-120125924D01*
X100005137Y-120126750D01*
X99956276Y-120127873D01*
X99931244Y-120133728D01*
X99922136Y-120148045D01*
X99921000Y-120166437D01*
X99923904Y-120190797D01*
X99938253Y-120202424D01*
X99972500Y-120205947D01*
X99993481Y-120206125D01*
X100065790Y-120213000D01*
X100110112Y-120233860D01*
X100127131Y-120269058D01*
X100127375Y-120274946D01*
X100119017Y-120314158D01*
X100091042Y-120337607D01*
X100039095Y-120347931D01*
X100005137Y-120349000D01*
X99956276Y-120350123D01*
X99931244Y-120355978D01*
X99922136Y-120370295D01*
X99921000Y-120388687D01*
X99923381Y-120411735D01*
X99935795Y-120423542D01*
X99966147Y-120427839D01*
X100005137Y-120428375D01*
X100070268Y-120433576D01*
X100109193Y-120450760D01*
X100125962Y-120482294D01*
X100127375Y-120499812D01*
X100118474Y-120537876D01*
X100089070Y-120560624D01*
X100035111Y-120570424D01*
X100005137Y-120571250D01*
X99956213Y-120572446D01*
X99931145Y-120578387D01*
X99922062Y-120592602D01*
X99921000Y-120608971D01*
X99924003Y-120630773D01*
X99938090Y-120643248D01*
X99970874Y-120650262D01*
X100009773Y-120654055D01*
X100071929Y-120663538D01*
X100108341Y-120682028D01*
X100124648Y-120713718D01*
X100127131Y-120741347D01*
X100113516Y-120778343D01*
X100071918Y-120800964D01*
X100002125Y-120809319D01*
X99994550Y-120809375D01*
X99948520Y-120811929D01*
X99924344Y-120822394D01*
X99912343Y-120844974D01*
X99912307Y-120845093D01*
X99879569Y-120903612D01*
X99826631Y-120946314D01*
X99783523Y-120961711D01*
X99753579Y-120968698D01*
X99737772Y-120980899D01*
X99731584Y-121006855D01*
X99730501Y-121055105D01*
X99730500Y-121061966D01*
X99725492Y-121129947D01*
X99709277Y-121171114D01*
X99680066Y-121188971D01*
X99664958Y-121190375D01*
X99623548Y-121176586D01*
X99597825Y-121135211D01*
X99587780Y-121066238D01*
X99587625Y-121054303D01*
X99586562Y-121004704D01*
X99580976Y-120979024D01*
X99567265Y-120969446D01*
X99547937Y-120968125D01*
X99525657Y-120970235D01*
X99513794Y-120981619D01*
X99509080Y-121009853D01*
X99508250Y-121060200D01*
X99503395Y-121128647D01*
X99487622Y-121170279D01*
X99459118Y-121188696D01*
X99442708Y-121190375D01*
X99401298Y-121176586D01*
X99375575Y-121135211D01*
X99365530Y-121066238D01*
X99365375Y-121054303D01*
X99364312Y-121004704D01*
X99358726Y-120979024D01*
X99345015Y-120969446D01*
X99325687Y-120968125D01*
X99303721Y-120970132D01*
X99291845Y-120981115D01*
X99286968Y-121008516D01*
X99286001Y-121059779D01*
X99286000Y-121063715D01*
X99284735Y-121117807D01*
X99278778Y-121149235D01*
X99264889Y-121167049D01*
X99245079Y-121177950D01*
X99202403Y-121189351D01*
X99173037Y-121176557D01*
X99155057Y-121137378D01*
X99146536Y-121069626D01*
X99146336Y-121065693D01*
X99142815Y-121012041D01*
X99136682Y-120982791D01*
X99124649Y-120970600D01*
X99103432Y-120968125D01*
X99102679Y-120968125D01*
X99080133Y-120970584D01*
X99068539Y-120983204D01*
X99064288Y-121013847D01*
X99063750Y-121052977D01*
X99059648Y-121113341D01*
X99045906Y-121151098D01*
X99034718Y-121164102D01*
X98992689Y-121187953D01*
X98954583Y-121180374D01*
X98929712Y-121155092D01*
X98914255Y-121117027D01*
X98905664Y-121064484D01*
X98905000Y-121046480D01*
X98903428Y-121001244D01*
X98893885Y-120976974D01*
X98869124Y-120962896D01*
X98843252Y-120954650D01*
X98789209Y-120927416D01*
X98748974Y-120886433D01*
X98730714Y-120840448D01*
X98730375Y-120833746D01*
X98722407Y-120818520D01*
X98694367Y-120811049D01*
X98651000Y-120809375D01*
X98589154Y-120801277D01*
X98540483Y-120779687D01*
X98512280Y-120748656D01*
X98508125Y-120730000D01*
X98522712Y-120695530D01*
X98561722Y-120668529D01*
X98618022Y-120652928D01*
X98652104Y-120650625D01*
X98699407Y-120649409D01*
X98722454Y-120643405D01*
X98728716Y-120629073D01*
X98727510Y-120614906D01*
X98720993Y-120594353D01*
X98703581Y-120582763D01*
X98667344Y-120576800D01*
X98631292Y-120574430D01*
X98575140Y-120569035D01*
X98542179Y-120558300D01*
X98523948Y-120539349D01*
X98523008Y-120537647D01*
X98514825Y-120504763D01*
X98530220Y-120468466D01*
X98531175Y-120466997D01*
X98550695Y-120444193D01*
X98577387Y-120432565D01*
X98621558Y-120428602D01*
X98644532Y-120428375D01*
X98694630Y-120427368D01*
X98720215Y-120422278D01*
X98728507Y-120409993D01*
X98727510Y-120392656D01*
X98720993Y-120372103D01*
X98703581Y-120360513D01*
X98667344Y-120354550D01*
X98631292Y-120352180D01*
X98575140Y-120346785D01*
X98542179Y-120336050D01*
X98523948Y-120317099D01*
X98523008Y-120315397D01*
X98514825Y-120282513D01*
X98530220Y-120246216D01*
X98531175Y-120244747D01*
X98550882Y-120221806D01*
X98577895Y-120210188D01*
X98622618Y-120206314D01*
X98643428Y-120206125D01*
X98693303Y-120205084D01*
X98719225Y-120199594D01*
X98728980Y-120186101D01*
X98730375Y-120166437D01*
X98727947Y-120143298D01*
X98715371Y-120131461D01*
X98684709Y-120127123D01*
X98647031Y-120126506D01*
X98575934Y-120120383D01*
X98532962Y-120101604D01*
X98516566Y-120068805D01*
X98525194Y-120020622D01*
X98525574Y-120019593D01*
X98536683Y-119999518D01*
X98556596Y-119988737D01*
X98593795Y-119984472D01*
X98634613Y-119983875D01*
X98730375Y-119983875D01*
X98730375Y-119930630D01*
X98744893Y-119872413D01*
X98783097Y-119822009D01*
X98836959Y-119788775D01*
X98856896Y-119783152D01*
X98885902Y-119774997D01*
X98900046Y-119759505D01*
X98904631Y-119727207D01*
X98905000Y-119697274D01*
X98913508Y-119629589D01*
X98939442Y-119587954D01*
X98983420Y-119571485D01*
X98992887Y-119571125D01*
X99030783Y-119583654D01*
X99054073Y-119622149D01*
X99063473Y-119687963D01*
X99063750Y-119705018D01*
X99065765Y-119750058D01*
X99074161Y-119771521D01*
X99092461Y-119777450D01*
X99095500Y-119777500D01*
X99114650Y-119773257D01*
X99124136Y-119755302D01*
X99127137Y-119715793D01*
X99127250Y-119699258D01*
X99135413Y-119630997D01*
X99160474Y-119588890D01*
X99203285Y-119571690D01*
X99215137Y-119571125D01*
X99253033Y-119583654D01*
X99276323Y-119622149D01*
X99285723Y-119687963D01*
X99286000Y-119705018D01*
X99287590Y-119749507D01*
X99295447Y-119770741D01*
X99314199Y-119777176D01*
X99325687Y-119777500D01*
X99348735Y-119775118D01*
X99360542Y-119762704D01*
X99364839Y-119732352D01*
X99365375Y-119693362D01*
X99370576Y-119628231D01*
X99387760Y-119589306D01*
X99419294Y-119572537D01*
X99436812Y-119571124D01*
X99474876Y-119580025D01*
X99474876Y-119580025D01*
G37*
X99474876Y-119580025D02*
X99497624Y-119609429D01*
X99507424Y-119663388D01*
X99508250Y-119693362D01*
X99509373Y-119742223D01*
X99515228Y-119767255D01*
X99529545Y-119776363D01*
X99547937Y-119777500D01*
X99572297Y-119774595D01*
X99583924Y-119760246D01*
X99587447Y-119725999D01*
X99587625Y-119705018D01*
X99594428Y-119633559D01*
X99614367Y-119588466D01*
X99646732Y-119571255D01*
X99650385Y-119571125D01*
X99692797Y-119575359D01*
X99717168Y-119592370D01*
X99728169Y-119628618D01*
X99730500Y-119681964D01*
X99731330Y-119733599D01*
X99736653Y-119761982D01*
X99750712Y-119775609D01*
X99777754Y-119782978D01*
X99781330Y-119783697D01*
X99847071Y-119811810D01*
X99893947Y-119863026D01*
X99915391Y-119923424D01*
X99925057Y-119983875D01*
X100007166Y-119983875D01*
X100071723Y-119989275D01*
X100110100Y-120007041D01*
X100126245Y-120039518D01*
X100127375Y-120055312D01*
X100118474Y-120093376D01*
X100089070Y-120116124D01*
X100035111Y-120125924D01*
X100005137Y-120126750D01*
X99956276Y-120127873D01*
X99931244Y-120133728D01*
X99922136Y-120148045D01*
X99921000Y-120166437D01*
X99923904Y-120190797D01*
X99938253Y-120202424D01*
X99972500Y-120205947D01*
X99993481Y-120206125D01*
X100065790Y-120213000D01*
X100110112Y-120233860D01*
X100127131Y-120269058D01*
X100127375Y-120274946D01*
X100119017Y-120314158D01*
X100091042Y-120337607D01*
X100039095Y-120347931D01*
X100005137Y-120349000D01*
X99956276Y-120350123D01*
X99931244Y-120355978D01*
X99922136Y-120370295D01*
X99921000Y-120388687D01*
X99923381Y-120411735D01*
X99935795Y-120423542D01*
X99966147Y-120427839D01*
X100005137Y-120428375D01*
X100070268Y-120433576D01*
X100109193Y-120450760D01*
X100125962Y-120482294D01*
X100127375Y-120499812D01*
X100118474Y-120537876D01*
X100089070Y-120560624D01*
X100035111Y-120570424D01*
X100005137Y-120571250D01*
X99956213Y-120572446D01*
X99931145Y-120578387D01*
X99922062Y-120592602D01*
X99921000Y-120608971D01*
X99924003Y-120630773D01*
X99938090Y-120643248D01*
X99970874Y-120650262D01*
X100009773Y-120654055D01*
X100071929Y-120663538D01*
X100108341Y-120682028D01*
X100124648Y-120713718D01*
X100127131Y-120741347D01*
X100113516Y-120778343D01*
X100071918Y-120800964D01*
X100002125Y-120809319D01*
X99994550Y-120809375D01*
X99948520Y-120811929D01*
X99924344Y-120822394D01*
X99912343Y-120844974D01*
X99912307Y-120845093D01*
X99879569Y-120903612D01*
X99826631Y-120946314D01*
X99783523Y-120961711D01*
X99753579Y-120968698D01*
X99737772Y-120980899D01*
X99731584Y-121006855D01*
X99730501Y-121055105D01*
X99730500Y-121061966D01*
X99725492Y-121129947D01*
X99709277Y-121171114D01*
X99680066Y-121188971D01*
X99664958Y-121190375D01*
X99623548Y-121176586D01*
X99597825Y-121135211D01*
X99587780Y-121066238D01*
X99587625Y-121054303D01*
X99586562Y-121004704D01*
X99580976Y-120979024D01*
X99567265Y-120969446D01*
X99547937Y-120968125D01*
X99525657Y-120970235D01*
X99513794Y-120981619D01*
X99509080Y-121009853D01*
X99508250Y-121060200D01*
X99503395Y-121128647D01*
X99487622Y-121170279D01*
X99459118Y-121188696D01*
X99442708Y-121190375D01*
X99401298Y-121176586D01*
X99375575Y-121135211D01*
X99365530Y-121066238D01*
X99365375Y-121054303D01*
X99364312Y-121004704D01*
X99358726Y-120979024D01*
X99345015Y-120969446D01*
X99325687Y-120968125D01*
X99303721Y-120970132D01*
X99291845Y-120981115D01*
X99286968Y-121008516D01*
X99286001Y-121059779D01*
X99286000Y-121063715D01*
X99284735Y-121117807D01*
X99278778Y-121149235D01*
X99264889Y-121167049D01*
X99245079Y-121177950D01*
X99202403Y-121189351D01*
X99173037Y-121176557D01*
X99155057Y-121137378D01*
X99146536Y-121069626D01*
X99146336Y-121065693D01*
X99142815Y-121012041D01*
X99136682Y-120982791D01*
X99124649Y-120970600D01*
X99103432Y-120968125D01*
X99102679Y-120968125D01*
X99080133Y-120970584D01*
X99068539Y-120983204D01*
X99064288Y-121013847D01*
X99063750Y-121052977D01*
X99059648Y-121113341D01*
X99045906Y-121151098D01*
X99034718Y-121164102D01*
X98992689Y-121187953D01*
X98954583Y-121180374D01*
X98929712Y-121155092D01*
X98914255Y-121117027D01*
X98905664Y-121064484D01*
X98905000Y-121046480D01*
X98903428Y-121001244D01*
X98893885Y-120976974D01*
X98869124Y-120962896D01*
X98843252Y-120954650D01*
X98789209Y-120927416D01*
X98748974Y-120886433D01*
X98730714Y-120840448D01*
X98730375Y-120833746D01*
X98722407Y-120818520D01*
X98694367Y-120811049D01*
X98651000Y-120809375D01*
X98589154Y-120801277D01*
X98540483Y-120779687D01*
X98512280Y-120748656D01*
X98508125Y-120730000D01*
X98522712Y-120695530D01*
X98561722Y-120668529D01*
X98618022Y-120652928D01*
X98652104Y-120650625D01*
X98699407Y-120649409D01*
X98722454Y-120643405D01*
X98728716Y-120629073D01*
X98727510Y-120614906D01*
X98720993Y-120594353D01*
X98703581Y-120582763D01*
X98667344Y-120576800D01*
X98631292Y-120574430D01*
X98575140Y-120569035D01*
X98542179Y-120558300D01*
X98523948Y-120539349D01*
X98523008Y-120537647D01*
X98514825Y-120504763D01*
X98530220Y-120468466D01*
X98531175Y-120466997D01*
X98550695Y-120444193D01*
X98577387Y-120432565D01*
X98621558Y-120428602D01*
X98644532Y-120428375D01*
X98694630Y-120427368D01*
X98720215Y-120422278D01*
X98728507Y-120409993D01*
X98727510Y-120392656D01*
X98720993Y-120372103D01*
X98703581Y-120360513D01*
X98667344Y-120354550D01*
X98631292Y-120352180D01*
X98575140Y-120346785D01*
X98542179Y-120336050D01*
X98523948Y-120317099D01*
X98523008Y-120315397D01*
X98514825Y-120282513D01*
X98530220Y-120246216D01*
X98531175Y-120244747D01*
X98550882Y-120221806D01*
X98577895Y-120210188D01*
X98622618Y-120206314D01*
X98643428Y-120206125D01*
X98693303Y-120205084D01*
X98719225Y-120199594D01*
X98728980Y-120186101D01*
X98730375Y-120166437D01*
X98727947Y-120143298D01*
X98715371Y-120131461D01*
X98684709Y-120127123D01*
X98647031Y-120126506D01*
X98575934Y-120120383D01*
X98532962Y-120101604D01*
X98516566Y-120068805D01*
X98525194Y-120020622D01*
X98525574Y-120019593D01*
X98536683Y-119999518D01*
X98556596Y-119988737D01*
X98593795Y-119984472D01*
X98634613Y-119983875D01*
X98730375Y-119983875D01*
X98730375Y-119930630D01*
X98744893Y-119872413D01*
X98783097Y-119822009D01*
X98836959Y-119788775D01*
X98856896Y-119783152D01*
X98885902Y-119774997D01*
X98900046Y-119759505D01*
X98904631Y-119727207D01*
X98905000Y-119697274D01*
X98913508Y-119629589D01*
X98939442Y-119587954D01*
X98983420Y-119571485D01*
X98992887Y-119571125D01*
X99030783Y-119583654D01*
X99054073Y-119622149D01*
X99063473Y-119687963D01*
X99063750Y-119705018D01*
X99065765Y-119750058D01*
X99074161Y-119771521D01*
X99092461Y-119777450D01*
X99095500Y-119777500D01*
X99114650Y-119773257D01*
X99124136Y-119755302D01*
X99127137Y-119715793D01*
X99127250Y-119699258D01*
X99135413Y-119630997D01*
X99160474Y-119588890D01*
X99203285Y-119571690D01*
X99215137Y-119571125D01*
X99253033Y-119583654D01*
X99276323Y-119622149D01*
X99285723Y-119687963D01*
X99286000Y-119705018D01*
X99287590Y-119749507D01*
X99295447Y-119770741D01*
X99314199Y-119777176D01*
X99325687Y-119777500D01*
X99348735Y-119775118D01*
X99360542Y-119762704D01*
X99364839Y-119732352D01*
X99365375Y-119693362D01*
X99370576Y-119628231D01*
X99387760Y-119589306D01*
X99419294Y-119572537D01*
X99436812Y-119571124D01*
X99474876Y-119580025D01*
G36*
X94489104Y-119642612D02*
G01*
X94606698Y-119668292D01*
X94718405Y-119716615D01*
X94820699Y-119788130D01*
X94910052Y-119883387D01*
X94979551Y-119995994D01*
X95006391Y-120051861D01*
X95023717Y-120095486D01*
X95033606Y-120136920D01*
X95038137Y-120186211D01*
X95039389Y-120253407D01*
X95039437Y-120285499D01*
X95038883Y-120362067D01*
X95035834Y-120416937D01*
X95028212Y-120460156D01*
X95013938Y-120501773D01*
X94990933Y-120551838D01*
X94979551Y-120575005D01*
X94903770Y-120694384D01*
X94807212Y-120792000D01*
X94693835Y-120865994D01*
X94567596Y-120914508D01*
X94432456Y-120935682D01*
X94292370Y-120927658D01*
X94247556Y-120918717D01*
X94123586Y-120874146D01*
X94012490Y-120804165D01*
X93917232Y-120713223D01*
X93840777Y-120605772D01*
X93786089Y-120486262D01*
X93756133Y-120359141D01*
X93754205Y-120247959D01*
X93888916Y-120247959D01*
X93893866Y-120364732D01*
X93920779Y-120465833D01*
X93975777Y-120570768D01*
X94054007Y-120660863D01*
X94149687Y-120731449D01*
X94257035Y-120777857D01*
X94324903Y-120792187D01*
X94411203Y-120795607D01*
X94502152Y-120786789D01*
X94584180Y-120767582D01*
X94624461Y-120751342D01*
X94726510Y-120683421D01*
X94809078Y-120595740D01*
X94869798Y-120493450D01*
X94906299Y-120381699D01*
X94916213Y-120265638D01*
X94898634Y-120155342D01*
X94852475Y-120044776D01*
X94784341Y-119946813D01*
X94699394Y-119866845D01*
X94602797Y-119810265D01*
X94551086Y-119792253D01*
X94427458Y-119773448D01*
X94309638Y-119782559D01*
X94200559Y-119816451D01*
X94103153Y-119871992D01*
X94020353Y-119946048D01*
X93955092Y-120035483D01*
X93910302Y-120137165D01*
X93888916Y-120247959D01*
X93754205Y-120247959D01*
X93753873Y-120228862D01*
X93759650Y-120186281D01*
X93797372Y-120050627D01*
X93857422Y-119933214D01*
X93936273Y-119834592D01*
X94030398Y-119755313D01*
X94136271Y-119695925D01*
X94250364Y-119656978D01*
X94369151Y-119639024D01*
X94489104Y-119642612D01*
X94489104Y-119642612D01*
G37*
X94489104Y-119642612D02*
X94606698Y-119668292D01*
X94718405Y-119716615D01*
X94820699Y-119788130D01*
X94910052Y-119883387D01*
X94979551Y-119995994D01*
X95006391Y-120051861D01*
X95023717Y-120095486D01*
X95033606Y-120136920D01*
X95038137Y-120186211D01*
X95039389Y-120253407D01*
X95039437Y-120285499D01*
X95038883Y-120362067D01*
X95035834Y-120416937D01*
X95028212Y-120460156D01*
X95013938Y-120501773D01*
X94990933Y-120551838D01*
X94979551Y-120575005D01*
X94903770Y-120694384D01*
X94807212Y-120792000D01*
X94693835Y-120865994D01*
X94567596Y-120914508D01*
X94432456Y-120935682D01*
X94292370Y-120927658D01*
X94247556Y-120918717D01*
X94123586Y-120874146D01*
X94012490Y-120804165D01*
X93917232Y-120713223D01*
X93840777Y-120605772D01*
X93786089Y-120486262D01*
X93756133Y-120359141D01*
X93754205Y-120247959D01*
X93888916Y-120247959D01*
X93893866Y-120364732D01*
X93920779Y-120465833D01*
X93975777Y-120570768D01*
X94054007Y-120660863D01*
X94149687Y-120731449D01*
X94257035Y-120777857D01*
X94324903Y-120792187D01*
X94411203Y-120795607D01*
X94502152Y-120786789D01*
X94584180Y-120767582D01*
X94624461Y-120751342D01*
X94726510Y-120683421D01*
X94809078Y-120595740D01*
X94869798Y-120493450D01*
X94906299Y-120381699D01*
X94916213Y-120265638D01*
X94898634Y-120155342D01*
X94852475Y-120044776D01*
X94784341Y-119946813D01*
X94699394Y-119866845D01*
X94602797Y-119810265D01*
X94551086Y-119792253D01*
X94427458Y-119773448D01*
X94309638Y-119782559D01*
X94200559Y-119816451D01*
X94103153Y-119871992D01*
X94020353Y-119946048D01*
X93955092Y-120035483D01*
X93910302Y-120137165D01*
X93888916Y-120247959D01*
X93754205Y-120247959D01*
X93753873Y-120228862D01*
X93759650Y-120186281D01*
X93797372Y-120050627D01*
X93857422Y-119933214D01*
X93936273Y-119834592D01*
X94030398Y-119755313D01*
X94136271Y-119695925D01*
X94250364Y-119656978D01*
X94369151Y-119639024D01*
X94489104Y-119642612D01*
G36*
X96945469Y-120079191D02*
G01*
X97040416Y-120118298D01*
X97123894Y-120176748D01*
X97191215Y-120251938D01*
X97237692Y-120341259D01*
X97258635Y-120442106D01*
X97258995Y-120448860D01*
X97261937Y-120515687D01*
X96890918Y-120519953D01*
X96519900Y-120524219D01*
X96530146Y-120575451D01*
X96553463Y-120633560D01*
X96596337Y-120694414D01*
X96649913Y-120746590D01*
X96677624Y-120765667D01*
X96724022Y-120785473D01*
X96781330Y-120800666D01*
X96797301Y-120803314D01*
X96874039Y-120800889D01*
X96953013Y-120777029D01*
X97023650Y-120736505D01*
X97075379Y-120684088D01*
X97080966Y-120675304D01*
X97105822Y-120639280D01*
X97132444Y-120623031D01*
X97174687Y-120618917D01*
X97183304Y-120618875D01*
X97252348Y-120618875D01*
X97234363Y-120670468D01*
X97203897Y-120725491D01*
X97153072Y-120785349D01*
X97090543Y-120841989D01*
X97024967Y-120887357D01*
X96977193Y-120909763D01*
X96874544Y-120932030D01*
X96771650Y-120931592D01*
X96696506Y-120914458D01*
X96584953Y-120860412D01*
X96498693Y-120787483D01*
X96438364Y-120696559D01*
X96404601Y-120588529D01*
X96397098Y-120496353D01*
X96409275Y-120396625D01*
X96538809Y-120396625D01*
X96824967Y-120396625D01*
X96916317Y-120395914D01*
X96995606Y-120393938D01*
X97057829Y-120390936D01*
X97097980Y-120387142D01*
X97111125Y-120383097D01*
X97099069Y-120350271D01*
X97067995Y-120308625D01*
X97025544Y-120266584D01*
X96979355Y-120232576D01*
X96969721Y-120227151D01*
X96881578Y-120197238D01*
X96790897Y-120195472D01*
X96704256Y-120219826D01*
X96628237Y-120268271D01*
X96569416Y-120338780D01*
X96561521Y-120352968D01*
X96538809Y-120396625D01*
X96409275Y-120396625D01*
X96411682Y-120376913D01*
X96453922Y-120272472D01*
X96522779Y-120184718D01*
X96617214Y-120115338D01*
X96638699Y-120104005D01*
X96739923Y-120069439D01*
X96843742Y-120062036D01*
X96945469Y-120079191D01*
X96945469Y-120079191D01*
G37*
X96945469Y-120079191D02*
X97040416Y-120118298D01*
X97123894Y-120176748D01*
X97191215Y-120251938D01*
X97237692Y-120341259D01*
X97258635Y-120442106D01*
X97258995Y-120448860D01*
X97261937Y-120515687D01*
X96890918Y-120519953D01*
X96519900Y-120524219D01*
X96530146Y-120575451D01*
X96553463Y-120633560D01*
X96596337Y-120694414D01*
X96649913Y-120746590D01*
X96677624Y-120765667D01*
X96724022Y-120785473D01*
X96781330Y-120800666D01*
X96797301Y-120803314D01*
X96874039Y-120800889D01*
X96953013Y-120777029D01*
X97023650Y-120736505D01*
X97075379Y-120684088D01*
X97080966Y-120675304D01*
X97105822Y-120639280D01*
X97132444Y-120623031D01*
X97174687Y-120618917D01*
X97183304Y-120618875D01*
X97252348Y-120618875D01*
X97234363Y-120670468D01*
X97203897Y-120725491D01*
X97153072Y-120785349D01*
X97090543Y-120841989D01*
X97024967Y-120887357D01*
X96977193Y-120909763D01*
X96874544Y-120932030D01*
X96771650Y-120931592D01*
X96696506Y-120914458D01*
X96584953Y-120860412D01*
X96498693Y-120787483D01*
X96438364Y-120696559D01*
X96404601Y-120588529D01*
X96397098Y-120496353D01*
X96409275Y-120396625D01*
X96538809Y-120396625D01*
X96824967Y-120396625D01*
X96916317Y-120395914D01*
X96995606Y-120393938D01*
X97057829Y-120390936D01*
X97097980Y-120387142D01*
X97111125Y-120383097D01*
X97099069Y-120350271D01*
X97067995Y-120308625D01*
X97025544Y-120266584D01*
X96979355Y-120232576D01*
X96969721Y-120227151D01*
X96881578Y-120197238D01*
X96790897Y-120195472D01*
X96704256Y-120219826D01*
X96628237Y-120268271D01*
X96569416Y-120338780D01*
X96561521Y-120352968D01*
X96538809Y-120396625D01*
X96409275Y-120396625D01*
X96411682Y-120376913D01*
X96453922Y-120272472D01*
X96522779Y-120184718D01*
X96617214Y-120115338D01*
X96638699Y-120104005D01*
X96739923Y-120069439D01*
X96843742Y-120062036D01*
X96945469Y-120079191D01*
G36*
X97867732Y-120066770D02*
G01*
X97962945Y-120088676D01*
X98041100Y-120137311D01*
X98102493Y-120212880D01*
X98117236Y-120239925D01*
X98131809Y-120270347D01*
X98142513Y-120298208D01*
X98149945Y-120328979D01*
X98154700Y-120368130D01*
X98157375Y-120421131D01*
X98158565Y-120493453D01*
X98158868Y-120590567D01*
X98158875Y-120621991D01*
X98158875Y-120920500D01*
X98031875Y-120920500D01*
X98031786Y-120654593D01*
X98030793Y-120535083D01*
X98027366Y-120442652D01*
X98020703Y-120372673D01*
X98009998Y-120320517D01*
X97994447Y-120281556D01*
X97973248Y-120251162D01*
X97959182Y-120236696D01*
X97909802Y-120208684D01*
X97846176Y-120196458D01*
X97780781Y-120200363D01*
X97726098Y-120220741D01*
X97713850Y-120229937D01*
X97687147Y-120257432D01*
X97667126Y-120289001D01*
X97652865Y-120329452D01*
X97643447Y-120383594D01*
X97637950Y-120456236D01*
X97635454Y-120552188D01*
X97635000Y-120642177D01*
X97635000Y-120920500D01*
X97508000Y-120920500D01*
X97508000Y-120079125D01*
X97571500Y-120079125D01*
X97614871Y-120082716D01*
X97633252Y-120095102D01*
X97635000Y-120104260D01*
X97640875Y-120122884D01*
X97646906Y-120123267D01*
X97721305Y-120088566D01*
X97781700Y-120070210D01*
X97839354Y-120065319D01*
X97867732Y-120066770D01*
X97867732Y-120066770D01*
G37*
X97867732Y-120066770D02*
X97962945Y-120088676D01*
X98041100Y-120137311D01*
X98102493Y-120212880D01*
X98117236Y-120239925D01*
X98131809Y-120270347D01*
X98142513Y-120298208D01*
X98149945Y-120328979D01*
X98154700Y-120368130D01*
X98157375Y-120421131D01*
X98158565Y-120493453D01*
X98158868Y-120590567D01*
X98158875Y-120621991D01*
X98158875Y-120920500D01*
X98031875Y-120920500D01*
X98031786Y-120654593D01*
X98030793Y-120535083D01*
X98027366Y-120442652D01*
X98020703Y-120372673D01*
X98009998Y-120320517D01*
X97994447Y-120281556D01*
X97973248Y-120251162D01*
X97959182Y-120236696D01*
X97909802Y-120208684D01*
X97846176Y-120196458D01*
X97780781Y-120200363D01*
X97726098Y-120220741D01*
X97713850Y-120229937D01*
X97687147Y-120257432D01*
X97667126Y-120289001D01*
X97652865Y-120329452D01*
X97643447Y-120383594D01*
X97637950Y-120456236D01*
X97635454Y-120552188D01*
X97635000Y-120642177D01*
X97635000Y-120920500D01*
X97508000Y-120920500D01*
X97508000Y-120079125D01*
X97571500Y-120079125D01*
X97614871Y-120082716D01*
X97633252Y-120095102D01*
X97635000Y-120104260D01*
X97640875Y-120122884D01*
X97646906Y-120123267D01*
X97721305Y-120088566D01*
X97781700Y-120070210D01*
X97839354Y-120065319D01*
X97867732Y-120066770D01*
D13*
X95900000Y-126100000D02*
X95300000Y-125800000D01*
X95300000Y-125800000D02*
X95900000Y-125500000D01*
X95900000Y-125500000D02*
X95900000Y-126100000D01*
X95500000Y-134850000D02*
X95500000Y-124300000D01*
X95500000Y-124300000D02*
X89200000Y-124300000D01*
X89200000Y-124300000D02*
X89200000Y-134850000D01*
X89200000Y-134850000D02*
X95500000Y-134850000D01*
X123100000Y-133040000D02*
X123700000Y-133340000D01*
X123700000Y-133340000D02*
X123100000Y-133640000D01*
X123100000Y-133640000D02*
X123100000Y-133040000D01*
X123500000Y-124290000D02*
X123500000Y-134840000D01*
X123500000Y-134840000D02*
X129800000Y-134840000D01*
X129800000Y-134840000D02*
X129800000Y-124290000D01*
X129800000Y-124290000D02*
X123500000Y-124290000D01*
X100551252Y-126470000D02*
X100028748Y-126470000D01*
X100551252Y-125050000D02*
X100028748Y-125050000D01*
X100551252Y-128670000D02*
X100028748Y-128670000D01*
X100551252Y-127250000D02*
X100028748Y-127250000D01*
X100551252Y-130870000D02*
X100028748Y-130870000D01*
X100551252Y-129450000D02*
X100028748Y-129450000D01*
X100551252Y-133070000D02*
X100028748Y-133070000D01*
X100551252Y-131650000D02*
X100028748Y-131650000D01*
X104028748Y-131650000D02*
X104551252Y-131650000D01*
X104028748Y-133070000D02*
X104551252Y-133070000D01*
X104028748Y-129450000D02*
X104551252Y-129450000D01*
X104028748Y-130870000D02*
X104551252Y-130870000D01*
X104028748Y-127250000D02*
X104551252Y-127250000D01*
X104028748Y-128670000D02*
X104551252Y-128670000D01*
X104028748Y-125050000D02*
X104551252Y-125050000D01*
X104028748Y-126470000D02*
X104551252Y-126470000D01*
X115551252Y-126470000D02*
X115028748Y-126470000D01*
X115551252Y-125050000D02*
X115028748Y-125050000D01*
X115551252Y-128670000D02*
X115028748Y-128670000D01*
X115551252Y-127250000D02*
X115028748Y-127250000D01*
X115551252Y-130870000D02*
X115028748Y-130870000D01*
X115551252Y-129450000D02*
X115028748Y-129450000D01*
X115551252Y-133070000D02*
X115028748Y-133070000D01*
X115551252Y-131650000D02*
X115028748Y-131650000D01*
X119028748Y-131650000D02*
X119551252Y-131650000D01*
X119028748Y-133070000D02*
X119551252Y-133070000D01*
X119028748Y-129450000D02*
X119551252Y-129450000D01*
X119028748Y-130870000D02*
X119551252Y-130870000D01*
X119028748Y-127250000D02*
X119551252Y-127250000D01*
X119028748Y-128670000D02*
X119551252Y-128670000D01*
X119028748Y-125050000D02*
X119551252Y-125050000D01*
X119028748Y-126470000D02*
X119551252Y-126470000D01*
X111450000Y-134100000D02*
X111150000Y-134700000D01*
X111150000Y-134700000D02*
X110850000Y-134100000D01*
X110850000Y-134100000D02*
X111450000Y-134100000D01*
X122750000Y-140800000D02*
X122750000Y-134500000D01*
X122750000Y-134500000D02*
X109650000Y-134500000D01*
X109650000Y-134500000D02*
X109650000Y-140800000D01*
X109650000Y-140800000D02*
X122750000Y-140800000D01*
X98050000Y-134100000D02*
X97750000Y-134700000D01*
X97750000Y-134700000D02*
X97450000Y-134100000D01*
X97450000Y-134100000D02*
X98050000Y-134100000D01*
X109350000Y-140800000D02*
X109350000Y-134500000D01*
X109350000Y-134500000D02*
X96250000Y-134500000D01*
X96250000Y-134500000D02*
X96250000Y-140800000D01*
X96250000Y-140800000D02*
X109350000Y-140800000D01*
D11*
X92966666Y-135052380D02*
X92966666Y-135766666D01*
X92919047Y-135909523D01*
X92823809Y-136004761D01*
X92680952Y-136052380D01*
X92585714Y-136052380D01*
X93395238Y-135147619D02*
X93442857Y-135100000D01*
X93538095Y-135052380D01*
X93776190Y-135052380D01*
X93871428Y-135100000D01*
X93919047Y-135147619D01*
X93966666Y-135242857D01*
X93966666Y-135338095D01*
X93919047Y-135480952D01*
X93347619Y-136052380D01*
X93966666Y-136052380D01*
X125766666Y-135052380D02*
X125766666Y-135766666D01*
X125719047Y-135909523D01*
X125623809Y-136004761D01*
X125480952Y-136052380D01*
X125385714Y-136052380D01*
X126147619Y-135052380D02*
X126766666Y-135052380D01*
X126433333Y-135433333D01*
X126576190Y-135433333D01*
X126671428Y-135480952D01*
X126719047Y-135528571D01*
X126766666Y-135623809D01*
X126766666Y-135861904D01*
X126719047Y-135957142D01*
X126671428Y-136004761D01*
X126576190Y-136052380D01*
X126290476Y-136052380D01*
X126195238Y-136004761D01*
X126147619Y-135957142D01*
X122952380Y-138033333D02*
X123666666Y-138033333D01*
X123809523Y-138080952D01*
X123904761Y-138176190D01*
X123952380Y-138319047D01*
X123952380Y-138414285D01*
X122952380Y-137080952D02*
X122952380Y-137557142D01*
X123428571Y-137604761D01*
X123380952Y-137557142D01*
X123333333Y-137461904D01*
X123333333Y-137223809D01*
X123380952Y-137128571D01*
X123428571Y-137080952D01*
X123523809Y-137033333D01*
X123761904Y-137033333D01*
X123857142Y-137080952D01*
X123904761Y-137128571D01*
X123952380Y-137223809D01*
X123952380Y-137461904D01*
X123904761Y-137557142D01*
X123857142Y-137604761D01*
X94852380Y-138033333D02*
X95566666Y-138033333D01*
X95709523Y-138080952D01*
X95804761Y-138176190D01*
X95852380Y-138319047D01*
X95852380Y-138414285D01*
X95185714Y-137128571D02*
X95852380Y-137128571D01*
X94804761Y-137366666D02*
X95519047Y-137604761D01*
X95519047Y-136985714D01*
M02*
