M48
; DRILL file {KiCad (5.1.4)-1} date 28/01/2023 21:19:09
; FORMAT={-:-/ absolute / inch / decimal}
; #@! TF.CreationDate,2023-01-28T21:19:09+01:00
; #@! TF.GenerationSoftware,Kicad,Pcbnew,(5.1.4)-1
; #@! TF.FileFunction,Plated,1,2,PTH
FMAT,2
INCH
T1C0.0118
T2C0.0394
%
G90
G05
T1
X3.6102Y-4.8189
X3.7087Y-5.3819
X3.7205Y-5.0787
X3.7362Y-5.0
X3.7362Y-5.1575
X3.8583Y-5.0787
X3.8937Y-4.815
X4.0118Y-5.3346
X4.0453Y-4.8327
X4.0945Y-4.8327
X4.1437Y-4.8327
X4.185Y-5.315
X4.1929Y-4.8327
X4.2421Y-4.8327
X4.248Y-5.126
X4.2913Y-4.8327
X4.2913Y-5.0787
X4.3425Y-4.8386
X4.374Y-5.1693
X4.3937Y-4.8386
X4.4449Y-4.8386
X4.4921Y-4.8386
X4.5433Y-4.8386
X4.5945Y-4.8386
X4.6457Y-4.8386
X4.6969Y-4.8386
X4.7441Y-4.8268
X4.7953Y-4.8268
X4.8425Y-4.937
X4.8858Y-5.3425
X4.9445Y-4.8311
X4.9945Y-4.7854
X4.9961Y-4.8307
T2
X4.9803Y-4.9496
X4.9803Y-5.0496
X4.9803Y-5.1496
X4.9803Y-5.2496
X4.376Y-5.4134
X4.476Y-5.4134
X4.576Y-5.4134
X4.676Y-5.4134
X4.776Y-5.4134
X3.6417Y-4.9528
X3.6417Y-5.0528
X3.6417Y-5.1528
X3.6417Y-5.2528
X3.8484Y-5.4134
X3.9484Y-5.4134
X4.0484Y-5.4134
X4.1484Y-5.4134
X4.2484Y-5.4134
T0
M30
