G04 #@! TF.GenerationSoftware,KiCad,Pcbnew,(5.1.4)-1*
G04 #@! TF.CreationDate,2023-01-28T21:19:40+01:00*
G04 #@! TF.ProjectId,SEN-UP1-8xTH,53454e2d-5550-4312-9d38-7854482e6b69,V00.02*
G04 #@! TF.SameCoordinates,Original*
G04 #@! TF.FileFunction,Soldermask,Bot*
G04 #@! TF.FilePolarity,Negative*
%FSLAX46Y46*%
G04 Gerber Fmt 4.6, Leading zero omitted, Abs format (unit mm)*
G04 Created by KiCad (PCBNEW (5.1.4)-1) date 2023-01-28 21:19:40*
%MOMM*%
%LPD*%
G04 APERTURE LIST*
%ADD10C,0.100000*%
G04 APERTURE END LIST*
D10*
G36*
X121496427Y-136212760D02*
G01*
X121675693Y-136267140D01*
X121840902Y-136355445D01*
X121985712Y-136474288D01*
X122104555Y-136619098D01*
X122192860Y-136784306D01*
X122247240Y-136963572D01*
X122261000Y-137103282D01*
X122261000Y-137896717D01*
X122247240Y-138036427D01*
X122192860Y-138215694D01*
X122104555Y-138380902D01*
X121985712Y-138525712D01*
X121840902Y-138644555D01*
X121675694Y-138732860D01*
X121496428Y-138787240D01*
X121310000Y-138805601D01*
X121123573Y-138787240D01*
X120944307Y-138732860D01*
X120779099Y-138644555D01*
X120634289Y-138525712D01*
X120515446Y-138380902D01*
X120427141Y-138215694D01*
X120372760Y-138036428D01*
X120359000Y-137896718D01*
X120359000Y-137103283D01*
X120372760Y-136963573D01*
X120427140Y-136784307D01*
X120515445Y-136619098D01*
X120634288Y-136474288D01*
X120779098Y-136355445D01*
X120944306Y-136267140D01*
X121123572Y-136212760D01*
X121310000Y-136194399D01*
X121496427Y-136212760D01*
X121496427Y-136212760D01*
G37*
G36*
X118956427Y-136212760D02*
G01*
X119135693Y-136267140D01*
X119300902Y-136355445D01*
X119445712Y-136474288D01*
X119564555Y-136619098D01*
X119652860Y-136784306D01*
X119707240Y-136963572D01*
X119721000Y-137103282D01*
X119721000Y-137896717D01*
X119707240Y-138036427D01*
X119652860Y-138215694D01*
X119564555Y-138380902D01*
X119445712Y-138525712D01*
X119300902Y-138644555D01*
X119135694Y-138732860D01*
X118956428Y-138787240D01*
X118770000Y-138805601D01*
X118583573Y-138787240D01*
X118404307Y-138732860D01*
X118239099Y-138644555D01*
X118094289Y-138525712D01*
X117975446Y-138380902D01*
X117887141Y-138215694D01*
X117832760Y-138036428D01*
X117819000Y-137896718D01*
X117819000Y-137103283D01*
X117832760Y-136963573D01*
X117887140Y-136784307D01*
X117975445Y-136619098D01*
X118094288Y-136474288D01*
X118239098Y-136355445D01*
X118404306Y-136267140D01*
X118583572Y-136212760D01*
X118770000Y-136194399D01*
X118956427Y-136212760D01*
X118956427Y-136212760D01*
G37*
G36*
X116416427Y-136212760D02*
G01*
X116595693Y-136267140D01*
X116760902Y-136355445D01*
X116905712Y-136474288D01*
X117024555Y-136619098D01*
X117112860Y-136784306D01*
X117167240Y-136963572D01*
X117181000Y-137103282D01*
X117181000Y-137896717D01*
X117167240Y-138036427D01*
X117112860Y-138215694D01*
X117024555Y-138380902D01*
X116905712Y-138525712D01*
X116760902Y-138644555D01*
X116595694Y-138732860D01*
X116416428Y-138787240D01*
X116230000Y-138805601D01*
X116043573Y-138787240D01*
X115864307Y-138732860D01*
X115699099Y-138644555D01*
X115554289Y-138525712D01*
X115435446Y-138380902D01*
X115347141Y-138215694D01*
X115292760Y-138036428D01*
X115279000Y-137896718D01*
X115279000Y-137103283D01*
X115292760Y-136963573D01*
X115347140Y-136784307D01*
X115435445Y-136619098D01*
X115554288Y-136474288D01*
X115699098Y-136355445D01*
X115864306Y-136267140D01*
X116043572Y-136212760D01*
X116230000Y-136194399D01*
X116416427Y-136212760D01*
X116416427Y-136212760D01*
G37*
G36*
X113876427Y-136212760D02*
G01*
X114055693Y-136267140D01*
X114220902Y-136355445D01*
X114365712Y-136474288D01*
X114484555Y-136619098D01*
X114572860Y-136784306D01*
X114627240Y-136963572D01*
X114641000Y-137103282D01*
X114641000Y-137896717D01*
X114627240Y-138036427D01*
X114572860Y-138215694D01*
X114484555Y-138380902D01*
X114365712Y-138525712D01*
X114220902Y-138644555D01*
X114055694Y-138732860D01*
X113876428Y-138787240D01*
X113690000Y-138805601D01*
X113503573Y-138787240D01*
X113324307Y-138732860D01*
X113159099Y-138644555D01*
X113014289Y-138525712D01*
X112895446Y-138380902D01*
X112807141Y-138215694D01*
X112752760Y-138036428D01*
X112739000Y-137896718D01*
X112739000Y-137103283D01*
X112752760Y-136963573D01*
X112807140Y-136784307D01*
X112895445Y-136619098D01*
X113014288Y-136474288D01*
X113159098Y-136355445D01*
X113324306Y-136267140D01*
X113503572Y-136212760D01*
X113690000Y-136194399D01*
X113876427Y-136212760D01*
X113876427Y-136212760D01*
G37*
G36*
X108096427Y-136212760D02*
G01*
X108275693Y-136267140D01*
X108440902Y-136355445D01*
X108585712Y-136474288D01*
X108704555Y-136619098D01*
X108792860Y-136784306D01*
X108847240Y-136963572D01*
X108861000Y-137103282D01*
X108861000Y-137896717D01*
X108847240Y-138036427D01*
X108792860Y-138215694D01*
X108704555Y-138380902D01*
X108585712Y-138525712D01*
X108440902Y-138644555D01*
X108275694Y-138732860D01*
X108096428Y-138787240D01*
X107910000Y-138805601D01*
X107723573Y-138787240D01*
X107544307Y-138732860D01*
X107379099Y-138644555D01*
X107234289Y-138525712D01*
X107115446Y-138380902D01*
X107027141Y-138215694D01*
X106972760Y-138036428D01*
X106959000Y-137896718D01*
X106959000Y-137103283D01*
X106972760Y-136963573D01*
X107027140Y-136784307D01*
X107115445Y-136619098D01*
X107234288Y-136474288D01*
X107379098Y-136355445D01*
X107544306Y-136267140D01*
X107723572Y-136212760D01*
X107910000Y-136194399D01*
X108096427Y-136212760D01*
X108096427Y-136212760D01*
G37*
G36*
X105556427Y-136212760D02*
G01*
X105735693Y-136267140D01*
X105900902Y-136355445D01*
X106045712Y-136474288D01*
X106164555Y-136619098D01*
X106252860Y-136784306D01*
X106307240Y-136963572D01*
X106321000Y-137103282D01*
X106321000Y-137896717D01*
X106307240Y-138036427D01*
X106252860Y-138215694D01*
X106164555Y-138380902D01*
X106045712Y-138525712D01*
X105900902Y-138644555D01*
X105735694Y-138732860D01*
X105556428Y-138787240D01*
X105370000Y-138805601D01*
X105183573Y-138787240D01*
X105004307Y-138732860D01*
X104839099Y-138644555D01*
X104694289Y-138525712D01*
X104575446Y-138380902D01*
X104487141Y-138215694D01*
X104432760Y-138036428D01*
X104419000Y-137896718D01*
X104419000Y-137103283D01*
X104432760Y-136963573D01*
X104487140Y-136784307D01*
X104575445Y-136619098D01*
X104694288Y-136474288D01*
X104839098Y-136355445D01*
X105004306Y-136267140D01*
X105183572Y-136212760D01*
X105370000Y-136194399D01*
X105556427Y-136212760D01*
X105556427Y-136212760D01*
G37*
G36*
X103016427Y-136212760D02*
G01*
X103195693Y-136267140D01*
X103360902Y-136355445D01*
X103505712Y-136474288D01*
X103624555Y-136619098D01*
X103712860Y-136784306D01*
X103767240Y-136963572D01*
X103781000Y-137103282D01*
X103781000Y-137896717D01*
X103767240Y-138036427D01*
X103712860Y-138215694D01*
X103624555Y-138380902D01*
X103505712Y-138525712D01*
X103360902Y-138644555D01*
X103195694Y-138732860D01*
X103016428Y-138787240D01*
X102830000Y-138805601D01*
X102643573Y-138787240D01*
X102464307Y-138732860D01*
X102299099Y-138644555D01*
X102154289Y-138525712D01*
X102035446Y-138380902D01*
X101947141Y-138215694D01*
X101892760Y-138036428D01*
X101879000Y-137896718D01*
X101879000Y-137103283D01*
X101892760Y-136963573D01*
X101947140Y-136784307D01*
X102035445Y-136619098D01*
X102154288Y-136474288D01*
X102299098Y-136355445D01*
X102464306Y-136267140D01*
X102643572Y-136212760D01*
X102830000Y-136194399D01*
X103016427Y-136212760D01*
X103016427Y-136212760D01*
G37*
G36*
X100476427Y-136212760D02*
G01*
X100655693Y-136267140D01*
X100820902Y-136355445D01*
X100965712Y-136474288D01*
X101084555Y-136619098D01*
X101172860Y-136784306D01*
X101227240Y-136963572D01*
X101241000Y-137103282D01*
X101241000Y-137896717D01*
X101227240Y-138036427D01*
X101172860Y-138215694D01*
X101084555Y-138380902D01*
X100965712Y-138525712D01*
X100820902Y-138644555D01*
X100655694Y-138732860D01*
X100476428Y-138787240D01*
X100290000Y-138805601D01*
X100103573Y-138787240D01*
X99924307Y-138732860D01*
X99759099Y-138644555D01*
X99614289Y-138525712D01*
X99495446Y-138380902D01*
X99407141Y-138215694D01*
X99352760Y-138036428D01*
X99339000Y-137896718D01*
X99339000Y-137103283D01*
X99352760Y-136963573D01*
X99407140Y-136784307D01*
X99495445Y-136619098D01*
X99614288Y-136474288D01*
X99759098Y-136355445D01*
X99924306Y-136267140D01*
X100103572Y-136212760D01*
X100290000Y-136194399D01*
X100476427Y-136212760D01*
X100476427Y-136212760D01*
G37*
G36*
X98517208Y-136203623D02*
G01*
X98559989Y-136216601D01*
X98599413Y-136237673D01*
X98633969Y-136266031D01*
X98662327Y-136300587D01*
X98683399Y-136340011D01*
X98696377Y-136382792D01*
X98701000Y-136429732D01*
X98701000Y-138570268D01*
X98696377Y-138617208D01*
X98683399Y-138659989D01*
X98662327Y-138699413D01*
X98633969Y-138733969D01*
X98599413Y-138762327D01*
X98559989Y-138783399D01*
X98517208Y-138796377D01*
X98470268Y-138801000D01*
X97029732Y-138801000D01*
X96982792Y-138796377D01*
X96940011Y-138783399D01*
X96900587Y-138762327D01*
X96866031Y-138733969D01*
X96837673Y-138699413D01*
X96816601Y-138659989D01*
X96803623Y-138617208D01*
X96799000Y-138570268D01*
X96799000Y-136429732D01*
X96803623Y-136382792D01*
X96816601Y-136340011D01*
X96837673Y-136300587D01*
X96866031Y-136266031D01*
X96900587Y-136237673D01*
X96940011Y-136216601D01*
X96982792Y-136203623D01*
X97029732Y-136199000D01*
X98470268Y-136199000D01*
X98517208Y-136203623D01*
X98517208Y-136203623D01*
G37*
G36*
X111917208Y-136203623D02*
G01*
X111959989Y-136216601D01*
X111999413Y-136237673D01*
X112033969Y-136266031D01*
X112062327Y-136300587D01*
X112083399Y-136340011D01*
X112096377Y-136382792D01*
X112101000Y-136429732D01*
X112101000Y-138570268D01*
X112096377Y-138617208D01*
X112083399Y-138659989D01*
X112062327Y-138699413D01*
X112033969Y-138733969D01*
X111999413Y-138762327D01*
X111959989Y-138783399D01*
X111917208Y-138796377D01*
X111870268Y-138801000D01*
X110429732Y-138801000D01*
X110382792Y-138796377D01*
X110340011Y-138783399D01*
X110300587Y-138762327D01*
X110266031Y-138733969D01*
X110237673Y-138699413D01*
X110216601Y-138659989D01*
X110203623Y-138617208D01*
X110199000Y-138570268D01*
X110199000Y-136429732D01*
X110203623Y-136382792D01*
X110216601Y-136340011D01*
X110237673Y-136300587D01*
X110266031Y-136266031D01*
X110300587Y-136237673D01*
X110340011Y-136216601D01*
X110382792Y-136203623D01*
X110429732Y-136199000D01*
X111870268Y-136199000D01*
X111917208Y-136203623D01*
X111917208Y-136203623D01*
G37*
G36*
X114126000Y-135681000D02*
G01*
X113374000Y-135681000D01*
X113374000Y-134519000D01*
X114126000Y-134519000D01*
X114126000Y-135681000D01*
X114126000Y-135681000D01*
G37*
G36*
X99176000Y-135681000D02*
G01*
X98424000Y-135681000D01*
X98424000Y-134519000D01*
X99176000Y-134519000D01*
X99176000Y-135681000D01*
X99176000Y-135681000D01*
G37*
G36*
X100126000Y-135681000D02*
G01*
X99374000Y-135681000D01*
X99374000Y-134519000D01*
X100126000Y-134519000D01*
X100126000Y-135681000D01*
X100126000Y-135681000D01*
G37*
G36*
X105326000Y-135681000D02*
G01*
X104574000Y-135681000D01*
X104574000Y-134519000D01*
X105326000Y-134519000D01*
X105326000Y-135681000D01*
X105326000Y-135681000D01*
G37*
G36*
X103426000Y-135681000D02*
G01*
X102674000Y-135681000D01*
X102674000Y-134519000D01*
X103426000Y-134519000D01*
X103426000Y-135681000D01*
X103426000Y-135681000D01*
G37*
G36*
X104376000Y-135681000D02*
G01*
X103624000Y-135681000D01*
X103624000Y-134519000D01*
X104376000Y-134519000D01*
X104376000Y-135681000D01*
X104376000Y-135681000D01*
G37*
G36*
X116026000Y-135681000D02*
G01*
X115274000Y-135681000D01*
X115274000Y-134519000D01*
X116026000Y-134519000D01*
X116026000Y-135681000D01*
X116026000Y-135681000D01*
G37*
G36*
X115076000Y-135681000D02*
G01*
X114324000Y-135681000D01*
X114324000Y-134519000D01*
X115076000Y-134519000D01*
X115076000Y-135681000D01*
X115076000Y-135681000D01*
G37*
G36*
X120526000Y-135681000D02*
G01*
X119774000Y-135681000D01*
X119774000Y-134519000D01*
X120526000Y-134519000D01*
X120526000Y-135681000D01*
X120526000Y-135681000D01*
G37*
G36*
X118626000Y-135681000D02*
G01*
X117874000Y-135681000D01*
X117874000Y-134519000D01*
X118626000Y-134519000D01*
X118626000Y-135681000D01*
X118626000Y-135681000D01*
G37*
G36*
X101076000Y-135681000D02*
G01*
X100324000Y-135681000D01*
X100324000Y-134519000D01*
X101076000Y-134519000D01*
X101076000Y-135681000D01*
X101076000Y-135681000D01*
G37*
G36*
X119576000Y-135681000D02*
G01*
X118824000Y-135681000D01*
X118824000Y-134519000D01*
X119576000Y-134519000D01*
X119576000Y-135681000D01*
X119576000Y-135681000D01*
G37*
G36*
X93036428Y-132482760D02*
G01*
X93215694Y-132537140D01*
X93380902Y-132625445D01*
X93525712Y-132744288D01*
X93644555Y-132889098D01*
X93732860Y-133054306D01*
X93787240Y-133233572D01*
X93805601Y-133420000D01*
X93787240Y-133606428D01*
X93732860Y-133785694D01*
X93644555Y-133950902D01*
X93525712Y-134095712D01*
X93380902Y-134214555D01*
X93215694Y-134302860D01*
X93036428Y-134357240D01*
X92896718Y-134371000D01*
X92103282Y-134371000D01*
X91963572Y-134357240D01*
X91784306Y-134302860D01*
X91619098Y-134214555D01*
X91474288Y-134095712D01*
X91355445Y-133950902D01*
X91267140Y-133785694D01*
X91212760Y-133606428D01*
X91194399Y-133420000D01*
X91212760Y-133233572D01*
X91267140Y-133054306D01*
X91355445Y-132889098D01*
X91474288Y-132744288D01*
X91619098Y-132625445D01*
X91784306Y-132537140D01*
X91963572Y-132482760D01*
X92103282Y-132469000D01*
X92896718Y-132469000D01*
X93036428Y-132482760D01*
X93036428Y-132482760D01*
G37*
G36*
X127617208Y-132393623D02*
G01*
X127659989Y-132406601D01*
X127699413Y-132427673D01*
X127733969Y-132456031D01*
X127762327Y-132490587D01*
X127783399Y-132530011D01*
X127796377Y-132572792D01*
X127801000Y-132619732D01*
X127801000Y-134060268D01*
X127796377Y-134107208D01*
X127783399Y-134149989D01*
X127762327Y-134189413D01*
X127733969Y-134223969D01*
X127699413Y-134252327D01*
X127659989Y-134273399D01*
X127617208Y-134286377D01*
X127570268Y-134291000D01*
X125429732Y-134291000D01*
X125382792Y-134286377D01*
X125340011Y-134273399D01*
X125300587Y-134252327D01*
X125266031Y-134223969D01*
X125237673Y-134189413D01*
X125216601Y-134149989D01*
X125203623Y-134107208D01*
X125199000Y-134060268D01*
X125199000Y-132619732D01*
X125203623Y-132572792D01*
X125216601Y-132530011D01*
X125237673Y-132490587D01*
X125266031Y-132456031D01*
X125300587Y-132427673D01*
X125340011Y-132406601D01*
X125382792Y-132393623D01*
X125429732Y-132389000D01*
X127570268Y-132389000D01*
X127617208Y-132393623D01*
X127617208Y-132393623D01*
G37*
G36*
X101076000Y-133481000D02*
G01*
X100324000Y-133481000D01*
X100324000Y-132319000D01*
X101076000Y-132319000D01*
X101076000Y-133481000D01*
X101076000Y-133481000D01*
G37*
G36*
X105326000Y-133481000D02*
G01*
X104574000Y-133481000D01*
X104574000Y-132319000D01*
X105326000Y-132319000D01*
X105326000Y-133481000D01*
X105326000Y-133481000D01*
G37*
G36*
X103426000Y-133481000D02*
G01*
X102674000Y-133481000D01*
X102674000Y-132319000D01*
X103426000Y-132319000D01*
X103426000Y-133481000D01*
X103426000Y-133481000D01*
G37*
G36*
X100126000Y-133481000D02*
G01*
X99374000Y-133481000D01*
X99374000Y-132319000D01*
X100126000Y-132319000D01*
X100126000Y-133481000D01*
X100126000Y-133481000D01*
G37*
G36*
X114126000Y-133481000D02*
G01*
X113374000Y-133481000D01*
X113374000Y-132319000D01*
X114126000Y-132319000D01*
X114126000Y-133481000D01*
X114126000Y-133481000D01*
G37*
G36*
X115076000Y-133481000D02*
G01*
X114324000Y-133481000D01*
X114324000Y-132319000D01*
X115076000Y-132319000D01*
X115076000Y-133481000D01*
X115076000Y-133481000D01*
G37*
G36*
X99176000Y-133481000D02*
G01*
X98424000Y-133481000D01*
X98424000Y-132319000D01*
X99176000Y-132319000D01*
X99176000Y-133481000D01*
X99176000Y-133481000D01*
G37*
G36*
X116026000Y-133481000D02*
G01*
X115274000Y-133481000D01*
X115274000Y-132319000D01*
X116026000Y-132319000D01*
X116026000Y-133481000D01*
X116026000Y-133481000D01*
G37*
G36*
X120526000Y-133481000D02*
G01*
X119774000Y-133481000D01*
X119774000Y-132319000D01*
X120526000Y-132319000D01*
X120526000Y-133481000D01*
X120526000Y-133481000D01*
G37*
G36*
X119576000Y-133481000D02*
G01*
X118824000Y-133481000D01*
X118824000Y-132319000D01*
X119576000Y-132319000D01*
X119576000Y-133481000D01*
X119576000Y-133481000D01*
G37*
G36*
X118626000Y-133481000D02*
G01*
X117874000Y-133481000D01*
X117874000Y-132319000D01*
X118626000Y-132319000D01*
X118626000Y-133481000D01*
X118626000Y-133481000D01*
G37*
G36*
X104376000Y-133481000D02*
G01*
X103624000Y-133481000D01*
X103624000Y-132319000D01*
X104376000Y-132319000D01*
X104376000Y-133481000D01*
X104376000Y-133481000D01*
G37*
G36*
X97681000Y-132326000D02*
G01*
X96519000Y-132326000D01*
X96519000Y-131574000D01*
X97681000Y-131574000D01*
X97681000Y-132326000D01*
X97681000Y-132326000D01*
G37*
G36*
X95481000Y-132326000D02*
G01*
X94319000Y-132326000D01*
X94319000Y-131574000D01*
X95481000Y-131574000D01*
X95481000Y-132326000D01*
X95481000Y-132326000D01*
G37*
G36*
X124681000Y-132226000D02*
G01*
X123519000Y-132226000D01*
X123519000Y-131474000D01*
X124681000Y-131474000D01*
X124681000Y-132226000D01*
X124681000Y-132226000D01*
G37*
G36*
X122481000Y-132226000D02*
G01*
X121319000Y-132226000D01*
X121319000Y-131474000D01*
X122481000Y-131474000D01*
X122481000Y-132226000D01*
X122481000Y-132226000D01*
G37*
G36*
X93036428Y-129942760D02*
G01*
X93215694Y-129997140D01*
X93380902Y-130085445D01*
X93525712Y-130204288D01*
X93644555Y-130349098D01*
X93732860Y-130514306D01*
X93787240Y-130693572D01*
X93805601Y-130880000D01*
X93787240Y-131066428D01*
X93732860Y-131245694D01*
X93644555Y-131410902D01*
X93525712Y-131555712D01*
X93380902Y-131674555D01*
X93215694Y-131762860D01*
X93036428Y-131817240D01*
X92896718Y-131831000D01*
X92103282Y-131831000D01*
X91963572Y-131817240D01*
X91784306Y-131762860D01*
X91619098Y-131674555D01*
X91474288Y-131555712D01*
X91355445Y-131410902D01*
X91267140Y-131245694D01*
X91212760Y-131066428D01*
X91194399Y-130880000D01*
X91212760Y-130693572D01*
X91267140Y-130514306D01*
X91355445Y-130349098D01*
X91474288Y-130204288D01*
X91619098Y-130085445D01*
X91784306Y-129997140D01*
X91963572Y-129942760D01*
X92103282Y-129929000D01*
X92896718Y-129929000D01*
X93036428Y-129942760D01*
X93036428Y-129942760D01*
G37*
G36*
X127036428Y-129862760D02*
G01*
X127215694Y-129917140D01*
X127380902Y-130005445D01*
X127525712Y-130124288D01*
X127644555Y-130269098D01*
X127732860Y-130434306D01*
X127787240Y-130613572D01*
X127805601Y-130800000D01*
X127787240Y-130986428D01*
X127732860Y-131165694D01*
X127644555Y-131330902D01*
X127525712Y-131475712D01*
X127380902Y-131594555D01*
X127215694Y-131682860D01*
X127036428Y-131737240D01*
X126896718Y-131751000D01*
X126103282Y-131751000D01*
X125963572Y-131737240D01*
X125784306Y-131682860D01*
X125619098Y-131594555D01*
X125474288Y-131475712D01*
X125355445Y-131330902D01*
X125267140Y-131165694D01*
X125212760Y-130986428D01*
X125194399Y-130800000D01*
X125212760Y-130613572D01*
X125267140Y-130434306D01*
X125355445Y-130269098D01*
X125474288Y-130124288D01*
X125619098Y-130005445D01*
X125784306Y-129917140D01*
X125963572Y-129862760D01*
X126103282Y-129849000D01*
X126896718Y-129849000D01*
X127036428Y-129862760D01*
X127036428Y-129862760D01*
G37*
G36*
X95481000Y-131376000D02*
G01*
X94319000Y-131376000D01*
X94319000Y-130624000D01*
X95481000Y-130624000D01*
X95481000Y-131376000D01*
X95481000Y-131376000D01*
G37*
G36*
X97681000Y-131376000D02*
G01*
X96519000Y-131376000D01*
X96519000Y-130624000D01*
X97681000Y-130624000D01*
X97681000Y-131376000D01*
X97681000Y-131376000D01*
G37*
G36*
X124681000Y-131276000D02*
G01*
X123519000Y-131276000D01*
X123519000Y-130524000D01*
X124681000Y-130524000D01*
X124681000Y-131276000D01*
X124681000Y-131276000D01*
G37*
G36*
X122481000Y-131276000D02*
G01*
X121319000Y-131276000D01*
X121319000Y-130524000D01*
X122481000Y-130524000D01*
X122481000Y-131276000D01*
X122481000Y-131276000D01*
G37*
G36*
X97681000Y-130426000D02*
G01*
X96519000Y-130426000D01*
X96519000Y-129674000D01*
X97681000Y-129674000D01*
X97681000Y-130426000D01*
X97681000Y-130426000D01*
G37*
G36*
X95481000Y-130426000D02*
G01*
X94319000Y-130426000D01*
X94319000Y-129674000D01*
X95481000Y-129674000D01*
X95481000Y-130426000D01*
X95481000Y-130426000D01*
G37*
G36*
X124681000Y-130326000D02*
G01*
X123519000Y-130326000D01*
X123519000Y-129574000D01*
X124681000Y-129574000D01*
X124681000Y-130326000D01*
X124681000Y-130326000D01*
G37*
G36*
X122481000Y-130326000D02*
G01*
X121319000Y-130326000D01*
X121319000Y-129574000D01*
X122481000Y-129574000D01*
X122481000Y-130326000D01*
X122481000Y-130326000D01*
G37*
G36*
X93036428Y-127402760D02*
G01*
X93215694Y-127457140D01*
X93380902Y-127545445D01*
X93525712Y-127664288D01*
X93644555Y-127809098D01*
X93732860Y-127974306D01*
X93787240Y-128153572D01*
X93805601Y-128340000D01*
X93787240Y-128526428D01*
X93732860Y-128705694D01*
X93644555Y-128870902D01*
X93525712Y-129015712D01*
X93380902Y-129134555D01*
X93215694Y-129222860D01*
X93036428Y-129277240D01*
X92896718Y-129291000D01*
X92103282Y-129291000D01*
X91963572Y-129277240D01*
X91784306Y-129222860D01*
X91619098Y-129134555D01*
X91474288Y-129015712D01*
X91355445Y-128870902D01*
X91267140Y-128705694D01*
X91212760Y-128526428D01*
X91194399Y-128340000D01*
X91212760Y-128153572D01*
X91267140Y-127974306D01*
X91355445Y-127809098D01*
X91474288Y-127664288D01*
X91619098Y-127545445D01*
X91784306Y-127457140D01*
X91963572Y-127402760D01*
X92103282Y-127389000D01*
X92896718Y-127389000D01*
X93036428Y-127402760D01*
X93036428Y-127402760D01*
G37*
G36*
X127036428Y-127322760D02*
G01*
X127215694Y-127377140D01*
X127380902Y-127465445D01*
X127525712Y-127584288D01*
X127644555Y-127729098D01*
X127732860Y-127894306D01*
X127787240Y-128073572D01*
X127805601Y-128260000D01*
X127787240Y-128446428D01*
X127732860Y-128625694D01*
X127644555Y-128790902D01*
X127525712Y-128935712D01*
X127380902Y-129054555D01*
X127215694Y-129142860D01*
X127036428Y-129197240D01*
X126896718Y-129211000D01*
X126103282Y-129211000D01*
X125963572Y-129197240D01*
X125784306Y-129142860D01*
X125619098Y-129054555D01*
X125474288Y-128935712D01*
X125355445Y-128790902D01*
X125267140Y-128625694D01*
X125212760Y-128446428D01*
X125194399Y-128260000D01*
X125212760Y-128073572D01*
X125267140Y-127894306D01*
X125355445Y-127729098D01*
X125474288Y-127584288D01*
X125619098Y-127465445D01*
X125784306Y-127377140D01*
X125963572Y-127322760D01*
X126103282Y-127309000D01*
X126896718Y-127309000D01*
X127036428Y-127322760D01*
X127036428Y-127322760D01*
G37*
G36*
X95481000Y-128326000D02*
G01*
X94319000Y-128326000D01*
X94319000Y-127574000D01*
X95481000Y-127574000D01*
X95481000Y-128326000D01*
X95481000Y-128326000D01*
G37*
G36*
X97681000Y-128326000D02*
G01*
X96519000Y-128326000D01*
X96519000Y-127574000D01*
X97681000Y-127574000D01*
X97681000Y-128326000D01*
X97681000Y-128326000D01*
G37*
G36*
X122481000Y-128226000D02*
G01*
X121319000Y-128226000D01*
X121319000Y-127474000D01*
X122481000Y-127474000D01*
X122481000Y-128226000D01*
X122481000Y-128226000D01*
G37*
G36*
X124681000Y-128226000D02*
G01*
X123519000Y-128226000D01*
X123519000Y-127474000D01*
X124681000Y-127474000D01*
X124681000Y-128226000D01*
X124681000Y-128226000D01*
G37*
G36*
X95481000Y-127376000D02*
G01*
X94319000Y-127376000D01*
X94319000Y-126624000D01*
X95481000Y-126624000D01*
X95481000Y-127376000D01*
X95481000Y-127376000D01*
G37*
G36*
X97681000Y-127376000D02*
G01*
X96519000Y-127376000D01*
X96519000Y-126624000D01*
X97681000Y-126624000D01*
X97681000Y-127376000D01*
X97681000Y-127376000D01*
G37*
G36*
X122481000Y-127276000D02*
G01*
X121319000Y-127276000D01*
X121319000Y-126524000D01*
X122481000Y-126524000D01*
X122481000Y-127276000D01*
X122481000Y-127276000D01*
G37*
G36*
X124681000Y-127276000D02*
G01*
X123519000Y-127276000D01*
X123519000Y-126524000D01*
X124681000Y-126524000D01*
X124681000Y-127276000D01*
X124681000Y-127276000D01*
G37*
G36*
X93617208Y-124853623D02*
G01*
X93659989Y-124866601D01*
X93699413Y-124887673D01*
X93733969Y-124916031D01*
X93762327Y-124950587D01*
X93783399Y-124990011D01*
X93796377Y-125032792D01*
X93801000Y-125079732D01*
X93801000Y-126520268D01*
X93796377Y-126567208D01*
X93783399Y-126609989D01*
X93762327Y-126649413D01*
X93733969Y-126683969D01*
X93699413Y-126712327D01*
X93659989Y-126733399D01*
X93617208Y-126746377D01*
X93570268Y-126751000D01*
X91429732Y-126751000D01*
X91382792Y-126746377D01*
X91340011Y-126733399D01*
X91300587Y-126712327D01*
X91266031Y-126683969D01*
X91237673Y-126649413D01*
X91216601Y-126609989D01*
X91203623Y-126567208D01*
X91199000Y-126520268D01*
X91199000Y-125079732D01*
X91203623Y-125032792D01*
X91216601Y-124990011D01*
X91237673Y-124950587D01*
X91266031Y-124916031D01*
X91300587Y-124887673D01*
X91340011Y-124866601D01*
X91382792Y-124853623D01*
X91429732Y-124849000D01*
X93570268Y-124849000D01*
X93617208Y-124853623D01*
X93617208Y-124853623D01*
G37*
G36*
X127036428Y-124782760D02*
G01*
X127215694Y-124837140D01*
X127380902Y-124925445D01*
X127525712Y-125044288D01*
X127644555Y-125189098D01*
X127732860Y-125354306D01*
X127787240Y-125533572D01*
X127805601Y-125720000D01*
X127787240Y-125906428D01*
X127732860Y-126085694D01*
X127644555Y-126250902D01*
X127525712Y-126395712D01*
X127380902Y-126514555D01*
X127215694Y-126602860D01*
X127036428Y-126657240D01*
X126896718Y-126671000D01*
X126103282Y-126671000D01*
X125963572Y-126657240D01*
X125784306Y-126602860D01*
X125619098Y-126514555D01*
X125474288Y-126395712D01*
X125355445Y-126250902D01*
X125267140Y-126085694D01*
X125212760Y-125906428D01*
X125194399Y-125720000D01*
X125212760Y-125533572D01*
X125267140Y-125354306D01*
X125355445Y-125189098D01*
X125474288Y-125044288D01*
X125619098Y-124925445D01*
X125784306Y-124837140D01*
X125963572Y-124782760D01*
X126103282Y-124769000D01*
X126896718Y-124769000D01*
X127036428Y-124782760D01*
X127036428Y-124782760D01*
G37*
G36*
X97681000Y-126426000D02*
G01*
X96519000Y-126426000D01*
X96519000Y-125674000D01*
X97681000Y-125674000D01*
X97681000Y-126426000D01*
X97681000Y-126426000D01*
G37*
G36*
X95481000Y-126426000D02*
G01*
X94319000Y-126426000D01*
X94319000Y-125674000D01*
X95481000Y-125674000D01*
X95481000Y-126426000D01*
X95481000Y-126426000D01*
G37*
G36*
X124681000Y-126326000D02*
G01*
X123519000Y-126326000D01*
X123519000Y-125574000D01*
X124681000Y-125574000D01*
X124681000Y-126326000D01*
X124681000Y-126326000D01*
G37*
G36*
X122481000Y-126326000D02*
G01*
X121319000Y-126326000D01*
X121319000Y-125574000D01*
X122481000Y-125574000D01*
X122481000Y-126326000D01*
X122481000Y-126326000D01*
G37*
M02*
